<svg xmlns="http://www.w3.org/2000/svg" width="250" height="250"><defs><style type="text/css"><![CDATA[ 
  .background, .port {
    stroke: #000000;
    stroke-width: 1;
  }

  .background {
    fill: #eeeeee;
  }

  .port {
    fill: #ffffff;
  }

  .path {
    fill: none;
    stroke-width: 3;
  }
 ]]></style></defs><g><rect class="background" x="12.5" y="12.5" width="225" height="225"></rect><path class="path" stroke="#4b191" d="M87.5,12.5L87.5,25C87.5,37.5,87.5,62.5,75,75C62.5,87.5,37.5,87.5,25,87.5C12.5,87.5,12.5,87.5,12.5,87.5L12.5,87.5"></path><path class="path" stroke="#5379dd" d="M162.5,12.5L162.5,21.875C162.5,31.25,162.5,50,150,78.125C137.5,106.25,112.5,143.75,100,171.875C87.5,200,87.5,218.75,87.5,228.125L87.5,237.5"></path><path class="path" stroke="#1b8ee8" d="M162.5,237.5L162.5,225C162.5,212.5,162.5,187.5,175,175C187.5,162.5,212.5,162.5,225,162.5C237.5,162.5,237.5,162.5,237.5,162.5L237.5,162.5"></path><path class="path" stroke="#fd9647" d="M12.5,162.5L21.875,162.5C31.25,162.5,50,162.5,78.125,150C106.25,137.5,143.75,112.5,171.875,100C200,87.5,218.75,87.5,228.125,87.5L237.5,87.5"></path><circle class="port" cx="87.5" cy="12.5" r="5.625"></circle><circle class="port" cx="162.5" cy="12.5" r="5.625"></circle><circle class="port" cx="237.5" cy="87.5" r="5.625"></circle><circle class="port" cx="237.5" cy="162.5" r="5.625"></circle><circle class="port" cx="162.5" cy="237.5" r="5.625"></circle><circle class="port" cx="87.5" cy="237.5" r="5.625"></circle><circle class="port" cx="12.5" cy="162.5" r="5.625"></circle><circle class="port" cx="12.5" cy="87.5" r="5.625"></circle></g></svg>