<svg xmlns="http://www.w3.org/2000/svg" width="250" height="250"><defs><style type="text/css"><![CDATA[ 
  .background, .port {
    stroke: #000000;
    stroke-width: 1;
  }

  .background {
    fill: #eeeeee;
  }

  .port {
    fill: #ffffff;
  }

  .path {
    fill: none;
    stroke: #000000;
    stroke-width: 3;
  }
 ]]></style></defs><g><rect class="background" x="12.5" y="12.5" width="225" height="225"></rect><path class="path" d="M87.5,12.5L87.5,21.875C87.5,31.25,87.5,50,100,59.375C112.5,68.75,137.5,68.75,150,59.375C162.5,50,162.5,31.25,162.5,21.875L162.5,12.5"></path><path class="path" d="M237.5,87.5L228.125,87.5C218.75,87.5,200,87.5,190.625,100C181.25,112.5,181.25,137.5,190.625,150C200,162.5,218.75,162.5,228.125,162.5L237.5,162.5"></path><path class="path" d="M162.5,237.5L162.5,228.125C162.5,218.75,162.5,200,150,190.625C137.5,181.25,112.5,181.25,100,190.625C87.5,200,87.5,218.75,87.5,228.125L87.5,237.5"></path><path class="path" d="M12.5,162.5L21.875,162.5C31.25,162.5,50,162.5,59.375,150C68.75,137.5,68.75,112.5,59.375,100C50,87.5,31.25,87.5,21.875,87.5L12.5,87.5"></path><circle class="port" cx="87.5" cy="12.5" r="5.625"></circle><circle class="port" cx="162.5" cy="12.5" r="5.625"></circle><circle class="port" cx="237.5" cy="87.5" r="5.625"></circle><circle class="port" cx="237.5" cy="162.5" r="5.625"></circle><circle class="port" cx="162.5" cy="237.5" r="5.625"></circle><circle class="port" cx="87.5" cy="237.5" r="5.625"></circle><circle class="port" cx="12.5" cy="162.5" r="5.625"></circle><circle class="port" cx="12.5" cy="87.5" r="5.625"></circle></g></svg>