<svg xmlns="http://www.w3.org/2000/svg" width="250" height="250"><defs><style type="text/css"><![CDATA[ 
  .background, .port {
    stroke: #000000;
    stroke-width: 1;
  }

  .background {
    fill: #eeeeee;
  }

  .port {
    fill: #ffffff;
  }

  .path {
    fill: none;
    stroke: #000000;
    stroke-width: 3;
  }
 ]]></style></defs><g><rect class="background" x="12.5" y="12.5" width="225" height="225"></rect><path class="path" d="M87.5,12.5L87.5,25C87.5,37.5,87.5,62.5,75,75C62.5,87.5,37.5,87.5,25,87.5C12.5,87.5,12.5,87.5,12.5,87.5L12.5,87.5"></path><path class="path" d="M162.5,12.5L162.5,37.5C162.5,62.5,162.5,112.5,175,137.5C187.5,162.5,212.5,162.5,225,162.5C237.5,162.5,237.5,162.5,237.5,162.5L237.5,162.5"></path><path class="path" d="M237.5,87.5L237.5,87.5C237.5,87.5,237.5,87.5,212.5,87.5C187.5,87.5,137.5,87.5,112.5,112.5C87.5,137.5,87.5,187.5,87.5,212.5L87.5,237.5"></path><path class="path" d="M12.5,162.5L12.5,162.5C12.5,162.5,12.5,162.5,37.5,162.5C62.5,162.5,112.5,162.5,137.5,175C162.5,187.5,162.5,212.5,162.5,225L162.5,237.5"></path><circle class="port" cx="87.5" cy="12.5" r="5.625"></circle><circle class="port" cx="162.5" cy="12.5" r="5.625"></circle><circle class="port" cx="237.5" cy="87.5" r="5.625"></circle><circle class="port" cx="237.5" cy="162.5" r="5.625"></circle><circle class="port" cx="162.5" cy="237.5" r="5.625"></circle><circle class="port" cx="87.5" cy="237.5" r="5.625"></circle><circle class="port" cx="12.5" cy="162.5" r="5.625"></circle><circle class="port" cx="12.5" cy="87.5" r="5.625"></circle></g></svg>