<svg xmlns="http://www.w3.org/2000/svg" width="300" height="300"><defs><style type="text/css"><![CDATA[ 
    .background, .port {
      stroke: #000000;
      stroke-width: 1;
    }

    .background {
      fill: #eeeeee;
    }

    .port {
      fill: #ffffff;
    }

    .path {
      fill: none;
      stroke-width: 3;
    }
   ]]></style></defs><rect class="background" x="20" y="20" width="260" height="260"></rect><path class="path" stroke="#7b2a26" d="M106.66666666666666,20L106.66666666666664,30.833333333333332C106.66666666666667,41.666666666666664,106.66666666666667,63.333333333333336,121.11111111111109,74.16666666666667C135.55555555555554,85,164.44444444444443,85,178.88888888888889,74.16666666666667C193.33333333333334,63.333333333333336,193.33333333333334,41.666666666666664,193.3333333333333,30.833333333333332L193.33333333333331,20"></path><path class="path" stroke="#bf2952" d="M20,106.66666666666666L20,106.66666666666664C20,106.66666666666667,20,106.66666666666667,34.44444444444444,106.66666666666664C48.888888888888886,106.66666666666667,77.77777777777777,106.66666666666667,92.22222222222221,135.55555555555554C106.66666666666667,164.44444444444443,106.66666666666667,222.2222222222222,106.66666666666664,251.11111111111111L106.66666666666666,280"></path><path class="path" stroke="#d2b53c" d="M280,106.66666666666666L280,106.66666666666664C280,106.66666666666667,280,106.66666666666667,265.55555555555554,106.66666666666664C251.1111111111111,106.66666666666667,222.2222222222222,106.66666666666667,207.77777777777774,135.55555555555554C193.33333333333334,164.44444444444443,193.33333333333334,222.2222222222222,193.3333333333333,251.11111111111111L193.33333333333331,280"></path><path class="path" stroke="#63af33" d="M20,193.33333333333331L20,193.3333333333333C20,193.33333333333334,20,193.33333333333334,63.333333333333336,193.3333333333333C106.66666666666667,193.33333333333334,193.33333333333334,193.33333333333334,236.66666666666666,193.3333333333333C280,193.33333333333334,280,193.33333333333334,280,193.3333333333333L280,193.33333333333331"></path><circle class="port" cx="106.66666666666666" cy="20" r="6"></circle><circle class="port" cx="193.33333333333331" cy="20" r="6"></circle><circle class="port" cx="280" cy="106.66666666666666" r="6"></circle><circle class="port" cx="280" cy="193.33333333333331" r="6"></circle><circle class="port" cx="106.66666666666666" cy="280" r="6"></circle><circle class="port" cx="193.33333333333331" cy="280" r="6"></circle><circle class="port" cx="20" cy="106.66666666666666" r="6"></circle><circle class="port" cx="20" cy="193.33333333333331" r="6"></circle></svg>