<svg xmlns="http://www.w3.org/2000/svg" width="800" height="865"><defs><style type="text/css"><![CDATA[ 
  .avatar, .border, .port {
    stroke: #583C14;
    stroke-width: 1;
  }

  .avatar__highlight {
    fill: #E3A865;
    stroke: #E3A865;
    stroke-width: 7;
  }

  .avatar__shadow {
    fill: #FCE8B8;
    stroke: #FCE8B8;
    stroke-width: 5;
  }

  .background {
    fill: #ffffff;
  }

  .border {
    fill: none;
  }

  .dead {
    opacity: 0.5;
  }

  .port {
    fill: #ffffff;
  }

  .path {
    fill: none;
    stroke: #FCE8B8;
    stroke-width: 3;
  }

  .path__shadow {
    fill: none;
    opacity: 0.5;
    stroke: #583C14;
    stroke-width: 7;
  }

  .tile-bg {
    fill: #936D36;
  }

  .tile-bg--empty {
    fill: #E3A865;
  }

  text {
    fill: #000000;
    font-family: 'Helvetica', sans-serif;
    font-size: 16px;
    transform: translate(0, 12px);
  }

  text tspan {
    font-weight: 600;
  }
 ]]></style></defs><g><rect class="background" x="0" y="0" width="800" height="865"></rect></g><text dx="20" dy="20"><tspan>Turn </tspan>13</text><g><g id="jack" class="dead"><circle class="avatar" cx="30" cy="55" r="10" fill="white"></circle></g><g id="jill" class="dead"><circle class="avatar__highlight" cx="60" cy="55" r="10"></circle><circle class="avatar" cx="60" cy="55" r="10" fill="black"></circle></g><g id="wirt" class=""><circle class="avatar" cx="90" cy="55" r="10" fill="red"></circle></g></g><g class=""><g><rect class="tile-bg" x="735" y="20" width="45" height="45"></rect><path class="path__shadow" d="M750,20L750,21.875C750,23.75,750,27.5,752.5,29.375C755,31.25,760,31.25,762.5,29.375C765,27.5,765,23.75,765,21.875L765,20"></path><path class="path__shadow" d="M780,35L778.125,35C776.25,35,772.5,35,766.875,37.5C761.25,40,753.75,45,748.125,47.5C742.5,50,738.75,50,736.875,50L735,50"></path><path class="path__shadow" d="M780,50L780,50C780,50,780,50,777.5,50C775,50,770,50,767.5,52.5C765,55,765,60,765,62.5L765,65"></path><path class="path__shadow" d="M750,65L750,60C750,55,750,45,747.5,40C745,35,740,35,737.5,35C735,35,735,35,735,35L735,35"></path><path class="path" d="M750,20L750,21.875C750,23.75,750,27.5,752.5,29.375C755,31.25,760,31.25,762.5,29.375C765,27.5,765,23.75,765,21.875L765,20"></path><path class="path" d="M780,35L778.125,35C776.25,35,772.5,35,766.875,37.5C761.25,40,753.75,45,748.125,47.5C742.5,50,738.75,50,736.875,50L735,50"></path><path class="path" d="M780,50L780,50C780,50,780,50,777.5,50C775,50,770,50,767.5,52.5C765,55,765,60,765,62.5L765,65"></path><path class="path" d="M750,65L750,60C750,55,750,45,747.5,40C745,35,740,35,737.5,35C735,35,735,35,735,35L735,35"></path><rect class="border" x="735" y="20" width="45" height="45"></rect></g></g><g class="dead"><g><rect class="tile-bg" x="680" y="20" width="45" height="45"></rect><path class="path__shadow" d="M695,20L695,21.875C695,23.75,695,27.5,697.5,29.375C700,31.25,705,31.25,707.5,29.375C710,27.5,710,23.75,710,21.875L710,20"></path><path class="path__shadow" d="M725,35L725,35C725,35,725,35,720,35C715,35,705,35,700,40C695,45,695,55,695,60L695,65"></path><path class="path__shadow" d="M725,50L723.125,50C721.25,50,717.5,50,711.875,47.5C706.25,45,698.75,40,693.125,37.5C687.5,35,683.75,35,681.875,35L680,35"></path><path class="path__shadow" d="M710,65L710,62.5C710,60,710,55,705,52.5C700,50,690,50,685,50C680,50,680,50,680,50L680,50"></path><path class="path" d="M695,20L695,21.875C695,23.75,695,27.5,697.5,29.375C700,31.25,705,31.25,707.5,29.375C710,27.5,710,23.75,710,21.875L710,20"></path><path class="path" d="M725,35L725,35C725,35,725,35,720,35C715,35,705,35,700,40C695,45,695,55,695,60L695,65"></path><path class="path" d="M725,50L723.125,50C721.25,50,717.5,50,711.875,47.5C706.25,45,698.75,40,693.125,37.5C687.5,35,683.75,35,681.875,35L680,35"></path><path class="path" d="M710,65L710,62.5C710,60,710,55,705,52.5C700,50,690,50,685,50C680,50,680,50,680,50L680,50"></path><rect class="border" x="680" y="20" width="45" height="45"></rect></g></g><text dx="670" dy="20" text-anchor="end"><tspan>Last move</tspan></text><circle class="avatar" cx="660" cy="55" r="10" fill="black"></circle><g><rect class="tile-bg" x="20" y="85" width="76" height="76"></rect><path class="path__shadow" d="M45.33333333333333,85L45.33333333333332,88.16666666666667C45.333333333333336,91.33333333333333,45.333333333333336,97.66666666666667,45.33333333333332,107.16666666666667C45.333333333333336,116.66666666666667,45.333333333333336,129.33333333333334,45.33333333333332,138.83333333333334C45.333333333333336,148.33333333333334,45.333333333333336,154.66666666666666,45.33333333333332,157.83333333333334L45.33333333333333,161"></path><path class="path__shadow" d="M70.66666666666666,85L70.66666666666664,88.16666666666667C70.66666666666666,91.33333333333333,70.66666666666666,97.66666666666667,70.66666666666664,107.16666666666667C70.66666666666666,116.66666666666667,70.66666666666666,129.33333333333334,70.66666666666664,138.83333333333334C70.66666666666666,148.33333333333334,70.66666666666666,154.66666666666666,70.66666666666664,157.83333333333334L70.66666666666666,161"></path><path class="path__shadow" d="M96,110.33333333333333L92.83333333333333,110.33333333333333C89.66666666666667,110.33333333333333,83.33333333333333,110.33333333333333,73.83333333333333,110.33333333333333C64.33333333333333,110.33333333333333,51.666666666666664,110.33333333333333,42.166666666666664,110.33333333333333C32.666666666666664,110.33333333333333,26.333333333333332,110.33333333333333,23.166666666666668,110.33333333333333L20,110.33333333333333"></path><path class="path__shadow" d="M96,135.66666666666666L92.83333333333333,135.66666666666666C89.66666666666667,135.66666666666666,83.33333333333333,135.66666666666666,73.83333333333333,135.66666666666666C64.33333333333333,135.66666666666666,51.666666666666664,135.66666666666666,42.166666666666664,135.66666666666666C32.666666666666664,135.66666666666666,26.333333333333332,135.66666666666666,23.166666666666668,135.66666666666666L20,135.66666666666666"></path><path class="path" d="M45.33333333333333,85L45.33333333333332,88.16666666666667C45.333333333333336,91.33333333333333,45.333333333333336,97.66666666666667,45.33333333333332,107.16666666666667C45.333333333333336,116.66666666666667,45.333333333333336,129.33333333333334,45.33333333333332,138.83333333333334C45.333333333333336,148.33333333333334,45.333333333333336,154.66666666666666,45.33333333333332,157.83333333333334L45.33333333333333,161"></path><path class="path" d="M70.66666666666666,85L70.66666666666664,88.16666666666667C70.66666666666666,91.33333333333333,70.66666666666666,97.66666666666667,70.66666666666664,107.16666666666667C70.66666666666666,116.66666666666667,70.66666666666666,129.33333333333334,70.66666666666664,138.83333333333334C70.66666666666666,148.33333333333334,70.66666666666666,154.66666666666666,70.66666666666664,157.83333333333334L70.66666666666666,161"></path><path class="path" d="M96,110.33333333333333L92.83333333333333,110.33333333333333C89.66666666666667,110.33333333333333,83.33333333333333,110.33333333333333,73.83333333333333,110.33333333333333C64.33333333333333,110.33333333333333,51.666666666666664,110.33333333333333,42.166666666666664,110.33333333333333C32.666666666666664,110.33333333333333,26.333333333333332,110.33333333333333,23.166666666666668,110.33333333333333L20,110.33333333333333"></path><path class="path" d="M96,135.66666666666666L92.83333333333333,135.66666666666666C89.66666666666667,135.66666666666666,83.33333333333333,135.66666666666666,73.83333333333333,135.66666666666666C64.33333333333333,135.66666666666666,51.666666666666664,135.66666666666666,42.166666666666664,135.66666666666666C32.666666666666664,135.66666666666666,26.333333333333332,135.66666666666666,23.166666666666668,135.66666666666666L20,135.66666666666666"></path><rect class="border" x="20" y="85" width="76" height="76"></rect></g><g><rect class="tile-bg" x="20" y="161" width="76" height="76"></rect><path class="path__shadow" d="M45.33333333333333,161L45.33333333333332,169.44444444444443C45.333333333333336,177.88888888888889,45.333333333333336,194.77777777777774,53.77777777777777,203.2222222222222C62.22222222222222,211.66666666666666,79.1111111111111,211.66666666666666,87.55555555555554,211.66666666666666C96,211.66666666666666,96,211.66666666666666,96,211.66666666666666L96,211.66666666666666"></path><path class="path__shadow" d="M70.66666666666666,161L70.66666666666664,164.16666666666666C70.66666666666666,167.33333333333334,70.66666666666666,173.66666666666666,70.66666666666664,183.16666666666666C70.66666666666666,192.66666666666666,70.66666666666666,205.33333333333334,70.66666666666664,214.83333333333334C70.66666666666666,224.33333333333334,70.66666666666666,230.66666666666666,70.66666666666664,233.83333333333334L70.66666666666666,237"></path><path class="path__shadow" d="M96,186.33333333333334L92.83333333333333,186.33333333333334C89.66666666666667,186.33333333333334,83.33333333333333,186.33333333333334,73.83333333333333,186.33333333333334C64.33333333333333,186.33333333333334,51.666666666666664,186.33333333333334,42.166666666666664,186.33333333333334C32.666666666666664,186.33333333333334,26.333333333333332,186.33333333333334,23.166666666666668,186.33333333333334L20,186.33333333333334"></path><path class="path__shadow" d="M45.33333333333333,237L45.33333333333332,232.7777777777778C45.333333333333336,228.55555555555554,45.333333333333336,220.1111111111111,41.11111111111111,215.88888888888889C36.888888888888886,211.66666666666666,28.444444444444443,211.66666666666666,24.222222222222218,211.66666666666666C20,211.66666666666666,20,211.66666666666666,20,211.66666666666666L20,211.66666666666666"></path><path class="path" d="M45.33333333333333,161L45.33333333333332,169.44444444444443C45.333333333333336,177.88888888888889,45.333333333333336,194.77777777777774,53.77777777777777,203.2222222222222C62.22222222222222,211.66666666666666,79.1111111111111,211.66666666666666,87.55555555555554,211.66666666666666C96,211.66666666666666,96,211.66666666666666,96,211.66666666666666L96,211.66666666666666"></path><path class="path" d="M70.66666666666666,161L70.66666666666664,164.16666666666666C70.66666666666666,167.33333333333334,70.66666666666666,173.66666666666666,70.66666666666664,183.16666666666666C70.66666666666666,192.66666666666666,70.66666666666666,205.33333333333334,70.66666666666664,214.83333333333334C70.66666666666666,224.33333333333334,70.66666666666666,230.66666666666666,70.66666666666664,233.83333333333334L70.66666666666666,237"></path><path class="path" d="M96,186.33333333333334L92.83333333333333,186.33333333333334C89.66666666666667,186.33333333333334,83.33333333333333,186.33333333333334,73.83333333333333,186.33333333333334C64.33333333333333,186.33333333333334,51.666666666666664,186.33333333333334,42.166666666666664,186.33333333333334C32.666666666666664,186.33333333333334,26.333333333333332,186.33333333333334,23.166666666666668,186.33333333333334L20,186.33333333333334"></path><path class="path" d="M45.33333333333333,237L45.33333333333332,232.7777777777778C45.333333333333336,228.55555555555554,45.333333333333336,220.1111111111111,41.11111111111111,215.88888888888889C36.888888888888886,211.66666666666666,28.444444444444443,211.66666666666666,24.222222222222218,211.66666666666666C20,211.66666666666666,20,211.66666666666666,20,211.66666666666666L20,211.66666666666666"></path><rect class="border" x="20" y="161" width="76" height="76"></rect></g><g><rect class="tile-bg tile-bg--empty" x="20" y="237" width="76" height="76"></rect><rect class="border" x="20" y="237" width="76" height="76"></rect></g><g><rect class="tile-bg tile-bg--empty" x="20" y="313" width="76" height="76"></rect><rect class="border" x="20" y="313" width="76" height="76"></rect></g><g><rect class="tile-bg tile-bg--empty" x="20" y="389" width="76" height="76"></rect><rect class="border" x="20" y="389" width="76" height="76"></rect></g><g><rect class="tile-bg tile-bg--empty" x="20" y="465" width="76" height="76"></rect><rect class="border" x="20" y="465" width="76" height="76"></rect></g><g><rect class="tile-bg tile-bg--empty" x="20" y="541" width="76" height="76"></rect><rect class="border" x="20" y="541" width="76" height="76"></rect></g><g><rect class="tile-bg tile-bg--empty" x="20" y="617" width="76" height="76"></rect><rect class="border" x="20" y="617" width="76" height="76"></rect></g><g><rect class="tile-bg tile-bg--empty" x="20" y="693" width="76" height="76"></rect><rect class="border" x="20" y="693" width="76" height="76"></rect></g><g><rect class="tile-bg tile-bg--empty" x="20" y="769" width="76" height="76"></rect><rect class="border" x="20" y="769" width="76" height="76"></rect></g><g><rect class="tile-bg" x="96" y="85" width="76" height="76"></rect><path class="path__shadow" d="M121.33333333333333,85L121.33333333333333,89.22222222222223C121.33333333333333,93.44444444444444,121.33333333333333,101.88888888888887,129.77777777777777,106.1111111111111C138.2222222222222,110.33333333333333,155.11111111111111,110.33333333333333,163.55555555555557,110.33333333333333C172,110.33333333333333,172,110.33333333333333,172,110.33333333333333L172,110.33333333333333"></path><path class="path__shadow" d="M146.66666666666666,85L146.66666666666666,93.44444444444444C146.66666666666666,101.88888888888887,146.66666666666666,118.77777777777777,150.88888888888889,127.22222222222221C155.11111111111111,135.66666666666666,163.55555555555554,135.66666666666666,167.77777777777777,135.66666666666666C172,135.66666666666666,172,135.66666666666666,172,135.66666666666666L172,135.66666666666666"></path><path class="path__shadow" d="M146.66666666666666,161L146.66666666666666,156.77777777777777C146.66666666666666,152.55555555555554,146.66666666666666,144.11111111111111,138.2222222222222,139.88888888888889C129.77777777777777,135.66666666666666,112.88888888888887,135.66666666666666,104.44444444444444,135.66666666666666C96,135.66666666666666,96,135.66666666666666,96,135.66666666666666L96,135.66666666666666"></path><path class="path__shadow" d="M121.33333333333333,161L121.33333333333333,152.55555555555557C121.33333333333333,144.11111111111111,121.33333333333333,127.22222222222221,117.1111111111111,118.77777777777777C112.88888888888887,110.33333333333333,104.44444444444444,110.33333333333333,100.22222222222221,110.33333333333333C96,110.33333333333333,96,110.33333333333333,96,110.33333333333333L96,110.33333333333333"></path><path class="path" d="M121.33333333333333,85L121.33333333333333,89.22222222222223C121.33333333333333,93.44444444444444,121.33333333333333,101.88888888888887,129.77777777777777,106.1111111111111C138.2222222222222,110.33333333333333,155.11111111111111,110.33333333333333,163.55555555555557,110.33333333333333C172,110.33333333333333,172,110.33333333333333,172,110.33333333333333L172,110.33333333333333"></path><path class="path" d="M146.66666666666666,85L146.66666666666666,93.44444444444444C146.66666666666666,101.88888888888887,146.66666666666666,118.77777777777777,150.88888888888889,127.22222222222221C155.11111111111111,135.66666666666666,163.55555555555554,135.66666666666666,167.77777777777777,135.66666666666666C172,135.66666666666666,172,135.66666666666666,172,135.66666666666666L172,135.66666666666666"></path><path class="path" d="M146.66666666666666,161L146.66666666666666,156.77777777777777C146.66666666666666,152.55555555555554,146.66666666666666,144.11111111111111,138.2222222222222,139.88888888888889C129.77777777777777,135.66666666666666,112.88888888888887,135.66666666666666,104.44444444444444,135.66666666666666C96,135.66666666666666,96,135.66666666666666,96,135.66666666666666L96,135.66666666666666"></path><path class="path" d="M121.33333333333333,161L121.33333333333333,152.55555555555557C121.33333333333333,144.11111111111111,121.33333333333333,127.22222222222221,117.1111111111111,118.77777777777777C112.88888888888887,110.33333333333333,104.44444444444444,110.33333333333333,100.22222222222221,110.33333333333333C96,110.33333333333333,96,110.33333333333333,96,110.33333333333333L96,110.33333333333333"></path><rect class="border" x="96" y="85" width="76" height="76"></rect></g><g><rect class="tile-bg" x="96" y="161" width="76" height="76"></rect><path class="path__shadow" d="M121.33333333333333,161L121.33333333333333,165.22222222222223C121.33333333333333,169.44444444444446,121.33333333333333,177.8888888888889,129.77777777777777,182.11111111111111C138.2222222222222,186.33333333333334,155.11111111111111,186.33333333333334,163.55555555555557,186.33333333333334C172,186.33333333333334,172,186.33333333333334,172,186.33333333333334L172,186.33333333333334"></path><path class="path__shadow" d="M146.66666666666666,161L146.66666666666666,169.44444444444443C146.66666666666666,177.88888888888889,146.66666666666666,194.77777777777774,138.2222222222222,203.2222222222222C129.77777777777777,211.66666666666666,112.88888888888887,211.66666666666666,104.44444444444444,211.66666666666666C96,211.66666666666666,96,211.66666666666666,96,211.66666666666666L96,211.66666666666666"></path><path class="path__shadow" d="M172,211.66666666666666L172,211.66666666666666C172,211.66666666666666,172,211.66666666666666,167.77777777777777,211.66666666666666C163.55555555555554,211.66666666666666,155.11111111111111,211.66666666666666,150.88888888888889,215.88888888888889C146.66666666666666,220.1111111111111,146.66666666666666,228.55555555555554,146.66666666666666,232.7777777777778L146.66666666666666,237"></path><path class="path__shadow" d="M121.33333333333333,237L121.33333333333333,228.55555555555554C121.33333333333333,220.11111111111111,121.33333333333333,203.22222222222226,117.1111111111111,194.7777777777778C112.88888888888887,186.33333333333334,104.44444444444444,186.33333333333334,100.22222222222221,186.33333333333334C96,186.33333333333334,96,186.33333333333334,96,186.33333333333334L96,186.33333333333334"></path><path class="path" d="M121.33333333333333,161L121.33333333333333,165.22222222222223C121.33333333333333,169.44444444444446,121.33333333333333,177.8888888888889,129.77777777777777,182.11111111111111C138.2222222222222,186.33333333333334,155.11111111111111,186.33333333333334,163.55555555555557,186.33333333333334C172,186.33333333333334,172,186.33333333333334,172,186.33333333333334L172,186.33333333333334"></path><path class="path" d="M146.66666666666666,161L146.66666666666666,169.44444444444443C146.66666666666666,177.88888888888889,146.66666666666666,194.77777777777774,138.2222222222222,203.2222222222222C129.77777777777777,211.66666666666666,112.88888888888887,211.66666666666666,104.44444444444444,211.66666666666666C96,211.66666666666666,96,211.66666666666666,96,211.66666666666666L96,211.66666666666666"></path><path class="path" d="M172,211.66666666666666L172,211.66666666666666C172,211.66666666666666,172,211.66666666666666,167.77777777777777,211.66666666666666C163.55555555555554,211.66666666666666,155.11111111111111,211.66666666666666,150.88888888888889,215.88888888888889C146.66666666666666,220.1111111111111,146.66666666666666,228.55555555555554,146.66666666666666,232.7777777777778L146.66666666666666,237"></path><path class="path" d="M121.33333333333333,237L121.33333333333333,228.55555555555554C121.33333333333333,220.11111111111111,121.33333333333333,203.22222222222226,117.1111111111111,194.7777777777778C112.88888888888887,186.33333333333334,104.44444444444444,186.33333333333334,100.22222222222221,186.33333333333334C96,186.33333333333334,96,186.33333333333334,96,186.33333333333334L96,186.33333333333334"></path><rect class="border" x="96" y="161" width="76" height="76"></rect></g><g><rect class="tile-bg tile-bg--empty" x="96" y="237" width="76" height="76"></rect><rect class="border" x="96" y="237" width="76" height="76"></rect></g><g><rect class="tile-bg tile-bg--empty" x="96" y="313" width="76" height="76"></rect><rect class="border" x="96" y="313" width="76" height="76"></rect></g><g><rect class="tile-bg tile-bg--empty" x="96" y="389" width="76" height="76"></rect><rect class="border" x="96" y="389" width="76" height="76"></rect></g><g><rect class="tile-bg tile-bg--empty" x="96" y="465" width="76" height="76"></rect><rect class="border" x="96" y="465" width="76" height="76"></rect></g><g><rect class="tile-bg tile-bg--empty" x="96" y="541" width="76" height="76"></rect><rect class="border" x="96" y="541" width="76" height="76"></rect></g><g><rect class="tile-bg tile-bg--empty" x="96" y="617" width="76" height="76"></rect><rect class="border" x="96" y="617" width="76" height="76"></rect></g><g><rect class="tile-bg tile-bg--empty" x="96" y="693" width="76" height="76"></rect><rect class="border" x="96" y="693" width="76" height="76"></rect></g><g><rect class="tile-bg tile-bg--empty" x="96" y="769" width="76" height="76"></rect><rect class="border" x="96" y="769" width="76" height="76"></rect></g><g><rect class="tile-bg" x="172" y="85" width="76" height="76"></rect><path class="path__shadow" d="M197.33333333333334,85L197.33333333333334,88.16666666666667C197.33333333333334,91.33333333333333,197.33333333333334,97.66666666666667,201.55555555555557,107.16666666666667C205.7777777777778,116.66666666666667,214.2222222222222,129.33333333333334,218.44444444444446,138.83333333333334C222.66666666666666,148.33333333333334,222.66666666666666,154.66666666666666,222.66666666666666,157.83333333333334L222.66666666666666,161"></path><path class="path__shadow" d="M222.66666666666666,85L222.66666666666666,89.22222222222223C222.66666666666666,93.44444444444444,222.66666666666666,101.88888888888887,226.88888888888889,106.1111111111111C231.1111111111111,110.33333333333333,239.55555555555554,110.33333333333333,243.7777777777778,110.33333333333333C248,110.33333333333333,248,110.33333333333333,248,110.33333333333333L248,110.33333333333333"></path><path class="path__shadow" d="M248,135.66666666666666L244.83333333333334,135.66666666666666C241.66666666666666,135.66666666666666,235.33333333333334,135.66666666666666,225.83333333333334,131.44444444444443C216.33333333333334,127.22222222222221,203.66666666666666,118.77777777777777,194.16666666666666,114.55555555555556C184.66666666666666,110.33333333333333,178.33333333333334,110.33333333333333,175.16666666666666,110.33333333333333L172,110.33333333333333"></path><path class="path__shadow" d="M197.33333333333334,161L197.33333333333334,156.77777777777777C197.33333333333334,152.55555555555554,197.33333333333334,144.11111111111111,193.11111111111111,139.88888888888889C188.8888888888889,135.66666666666666,180.44444444444446,135.66666666666666,176.22222222222226,135.66666666666666C172,135.66666666666666,172,135.66666666666666,172,135.66666666666666L172,135.66666666666666"></path><path class="path" d="M197.33333333333334,85L197.33333333333334,88.16666666666667C197.33333333333334,91.33333333333333,197.33333333333334,97.66666666666667,201.55555555555557,107.16666666666667C205.7777777777778,116.66666666666667,214.2222222222222,129.33333333333334,218.44444444444446,138.83333333333334C222.66666666666666,148.33333333333334,222.66666666666666,154.66666666666666,222.66666666666666,157.83333333333334L222.66666666666666,161"></path><path class="path" d="M222.66666666666666,85L222.66666666666666,89.22222222222223C222.66666666666666,93.44444444444444,222.66666666666666,101.88888888888887,226.88888888888889,106.1111111111111C231.1111111111111,110.33333333333333,239.55555555555554,110.33333333333333,243.7777777777778,110.33333333333333C248,110.33333333333333,248,110.33333333333333,248,110.33333333333333L248,110.33333333333333"></path><path class="path" d="M248,135.66666666666666L244.83333333333334,135.66666666666666C241.66666666666666,135.66666666666666,235.33333333333334,135.66666666666666,225.83333333333334,131.44444444444443C216.33333333333334,127.22222222222221,203.66666666666666,118.77777777777777,194.16666666666666,114.55555555555556C184.66666666666666,110.33333333333333,178.33333333333334,110.33333333333333,175.16666666666666,110.33333333333333L172,110.33333333333333"></path><path class="path" d="M197.33333333333334,161L197.33333333333334,156.77777777777777C197.33333333333334,152.55555555555554,197.33333333333334,144.11111111111111,193.11111111111111,139.88888888888889C188.8888888888889,135.66666666666666,180.44444444444446,135.66666666666666,176.22222222222226,135.66666666666666C172,135.66666666666666,172,135.66666666666666,172,135.66666666666666L172,135.66666666666666"></path><rect class="border" x="172" y="85" width="76" height="76"></rect></g><g><rect class="tile-bg" x="172" y="161" width="76" height="76"></rect><path class="path__shadow" d="M197.33333333333334,161L197.33333333333334,169.44444444444443C197.33333333333334,177.88888888888889,197.33333333333334,194.77777777777774,205.7777777777778,203.2222222222222C214.22222222222226,211.66666666666666,231.11111111111111,211.66666666666666,239.55555555555554,211.66666666666666C248,211.66666666666666,248,211.66666666666666,248,211.66666666666666L248,211.66666666666666"></path><path class="path__shadow" d="M222.66666666666666,161L222.66666666666666,165.22222222222223C222.66666666666666,169.44444444444446,222.66666666666666,177.8888888888889,226.88888888888889,182.11111111111111C231.1111111111111,186.33333333333334,239.55555555555554,186.33333333333334,243.7777777777778,186.33333333333334C248,186.33333333333334,248,186.33333333333334,248,186.33333333333334L248,186.33333333333334"></path><path class="path__shadow" d="M222.66666666666666,237L222.66666666666666,228.55555555555554C222.66666666666666,220.11111111111111,222.66666666666666,203.22222222222226,214.2222222222222,194.7777777777778C205.77777777777774,186.33333333333334,188.88888888888889,186.33333333333334,180.44444444444443,186.33333333333334C172,186.33333333333334,172,186.33333333333334,172,186.33333333333334L172,186.33333333333334"></path><path class="path__shadow" d="M197.33333333333334,237L197.33333333333334,232.7777777777778C197.33333333333334,228.55555555555554,197.33333333333334,220.1111111111111,193.11111111111111,215.88888888888889C188.8888888888889,211.66666666666666,180.44444444444446,211.66666666666666,176.22222222222226,211.66666666666666C172,211.66666666666666,172,211.66666666666666,172,211.66666666666666L172,211.66666666666666"></path><path class="path" d="M197.33333333333334,161L197.33333333333334,169.44444444444443C197.33333333333334,177.88888888888889,197.33333333333334,194.77777777777774,205.7777777777778,203.2222222222222C214.22222222222226,211.66666666666666,231.11111111111111,211.66666666666666,239.55555555555554,211.66666666666666C248,211.66666666666666,248,211.66666666666666,248,211.66666666666666L248,211.66666666666666"></path><path class="path" d="M222.66666666666666,161L222.66666666666666,165.22222222222223C222.66666666666666,169.44444444444446,222.66666666666666,177.8888888888889,226.88888888888889,182.11111111111111C231.1111111111111,186.33333333333334,239.55555555555554,186.33333333333334,243.7777777777778,186.33333333333334C248,186.33333333333334,248,186.33333333333334,248,186.33333333333334L248,186.33333333333334"></path><path class="path" d="M222.66666666666666,237L222.66666666666666,228.55555555555554C222.66666666666666,220.11111111111111,222.66666666666666,203.22222222222226,214.2222222222222,194.7777777777778C205.77777777777774,186.33333333333334,188.88888888888889,186.33333333333334,180.44444444444443,186.33333333333334C172,186.33333333333334,172,186.33333333333334,172,186.33333333333334L172,186.33333333333334"></path><path class="path" d="M197.33333333333334,237L197.33333333333334,232.7777777777778C197.33333333333334,228.55555555555554,197.33333333333334,220.1111111111111,193.11111111111111,215.88888888888889C188.8888888888889,211.66666666666666,180.44444444444446,211.66666666666666,176.22222222222226,211.66666666666666C172,211.66666666666666,172,211.66666666666666,172,211.66666666666666L172,211.66666666666666"></path><rect class="border" x="172" y="161" width="76" height="76"></rect></g><g><rect class="tile-bg tile-bg--empty" x="172" y="237" width="76" height="76"></rect><rect class="border" x="172" y="237" width="76" height="76"></rect></g><g><rect class="tile-bg tile-bg--empty" x="172" y="313" width="76" height="76"></rect><rect class="border" x="172" y="313" width="76" height="76"></rect></g><g><rect class="tile-bg tile-bg--empty" x="172" y="389" width="76" height="76"></rect><rect class="border" x="172" y="389" width="76" height="76"></rect></g><g><rect class="tile-bg tile-bg--empty" x="172" y="465" width="76" height="76"></rect><rect class="border" x="172" y="465" width="76" height="76"></rect></g><g><rect class="tile-bg tile-bg--empty" x="172" y="541" width="76" height="76"></rect><rect class="border" x="172" y="541" width="76" height="76"></rect></g><g><rect class="tile-bg tile-bg--empty" x="172" y="617" width="76" height="76"></rect><rect class="border" x="172" y="617" width="76" height="76"></rect></g><g><rect class="tile-bg tile-bg--empty" x="172" y="693" width="76" height="76"></rect><rect class="border" x="172" y="693" width="76" height="76"></rect></g><g><rect class="tile-bg tile-bg--empty" x="172" y="769" width="76" height="76"></rect><rect class="border" x="172" y="769" width="76" height="76"></rect></g><g><rect class="tile-bg" x="248" y="85" width="76" height="76"></rect><path class="path__shadow" d="M273.3333333333333,85L273.3333333333333,88.16666666666667C273.3333333333333,91.33333333333333,273.3333333333333,97.66666666666667,277.55555555555554,100.83333333333333C281.77777777777777,104,290.22222222222223,104,294.44444444444446,100.83333333333333C298.6666666666667,97.66666666666667,298.6666666666667,91.33333333333333,298.6666666666667,88.16666666666667L298.6666666666667,85"></path><path class="path__shadow" d="M324,110.33333333333333L320.8333333333333,110.33333333333333C317.6666666666667,110.33333333333333,311.3333333333333,110.33333333333333,301.8333333333333,114.55555555555554C292.3333333333333,118.77777777777777,279.6666666666667,127.22222222222221,270.1666666666667,131.44444444444443C260.6666666666667,135.66666666666666,254.33333333333334,135.66666666666666,251.16666666666666,135.66666666666666L248,135.66666666666666"></path><path class="path__shadow" d="M324,135.66666666666666L324,135.66666666666666C324,135.66666666666666,324,135.66666666666666,319.77777777777777,135.66666666666666C315.5555555555556,135.66666666666666,307.11111111111114,135.66666666666666,302.8888888888889,139.88888888888889C298.6666666666667,144.11111111111111,298.6666666666667,152.55555555555554,298.6666666666667,156.77777777777777L298.6666666666667,161"></path><path class="path__shadow" d="M273.3333333333333,161L273.3333333333333,152.55555555555557C273.3333333333333,144.11111111111111,273.3333333333333,127.22222222222221,269.1111111111111,118.77777777777777C264.88888888888886,110.33333333333333,256.4444444444444,110.33333333333333,252.2222222222222,110.33333333333333C248,110.33333333333333,248,110.33333333333333,248,110.33333333333333L248,110.33333333333333"></path><path class="path" d="M273.3333333333333,85L273.3333333333333,88.16666666666667C273.3333333333333,91.33333333333333,273.3333333333333,97.66666666666667,277.55555555555554,100.83333333333333C281.77777777777777,104,290.22222222222223,104,294.44444444444446,100.83333333333333C298.6666666666667,97.66666666666667,298.6666666666667,91.33333333333333,298.6666666666667,88.16666666666667L298.6666666666667,85"></path><path class="path" d="M324,110.33333333333333L320.8333333333333,110.33333333333333C317.6666666666667,110.33333333333333,311.3333333333333,110.33333333333333,301.8333333333333,114.55555555555554C292.3333333333333,118.77777777777777,279.6666666666667,127.22222222222221,270.1666666666667,131.44444444444443C260.6666666666667,135.66666666666666,254.33333333333334,135.66666666666666,251.16666666666666,135.66666666666666L248,135.66666666666666"></path><path class="path" d="M324,135.66666666666666L324,135.66666666666666C324,135.66666666666666,324,135.66666666666666,319.77777777777777,135.66666666666666C315.5555555555556,135.66666666666666,307.11111111111114,135.66666666666666,302.8888888888889,139.88888888888889C298.6666666666667,144.11111111111111,298.6666666666667,152.55555555555554,298.6666666666667,156.77777777777777L298.6666666666667,161"></path><path class="path" d="M273.3333333333333,161L273.3333333333333,152.55555555555557C273.3333333333333,144.11111111111111,273.3333333333333,127.22222222222221,269.1111111111111,118.77777777777777C264.88888888888886,110.33333333333333,256.4444444444444,110.33333333333333,252.2222222222222,110.33333333333333C248,110.33333333333333,248,110.33333333333333,248,110.33333333333333L248,110.33333333333333"></path><rect class="border" x="248" y="85" width="76" height="76"></rect></g><g><rect class="tile-bg" x="248" y="161" width="76" height="76"></rect><path class="path__shadow" d="M273.3333333333333,161L273.3333333333333,165.22222222222223C273.3333333333333,169.44444444444446,273.3333333333333,177.8888888888889,281.77777777777777,182.11111111111111C290.22222222222223,186.33333333333334,307.1111111111111,186.33333333333334,315.55555555555554,186.33333333333334C324,186.33333333333334,324,186.33333333333334,324,186.33333333333334L324,186.33333333333334"></path><path class="path__shadow" d="M298.6666666666667,161L298.6666666666667,164.16666666666666C298.6666666666667,167.33333333333334,298.6666666666667,173.66666666666666,294.44444444444446,183.16666666666666C290.22222222222223,192.66666666666666,281.77777777777777,205.33333333333334,277.55555555555554,214.83333333333334C273.3333333333333,224.33333333333334,273.3333333333333,230.66666666666666,273.3333333333333,233.83333333333334L273.3333333333333,237"></path><path class="path__shadow" d="M324,211.66666666666666L320.8333333333333,211.66666666666666C317.6666666666667,211.66666666666666,311.3333333333333,211.66666666666666,301.8333333333333,211.66666666666666C292.3333333333333,211.66666666666666,279.6666666666667,211.66666666666666,270.1666666666667,211.66666666666666C260.6666666666667,211.66666666666666,254.33333333333334,211.66666666666666,251.16666666666666,211.66666666666666L248,211.66666666666666"></path><path class="path__shadow" d="M298.6666666666667,237L298.6666666666667,228.55555555555554C298.6666666666667,220.11111111111111,298.6666666666667,203.22222222222226,290.22222222222223,194.7777777777778C281.77777777777777,186.33333333333334,264.8888888888889,186.33333333333334,256.44444444444446,186.33333333333334C248,186.33333333333334,248,186.33333333333334,248,186.33333333333334L248,186.33333333333334"></path><path class="path" d="M273.3333333333333,161L273.3333333333333,165.22222222222223C273.3333333333333,169.44444444444446,273.3333333333333,177.8888888888889,281.77777777777777,182.11111111111111C290.22222222222223,186.33333333333334,307.1111111111111,186.33333333333334,315.55555555555554,186.33333333333334C324,186.33333333333334,324,186.33333333333334,324,186.33333333333334L324,186.33333333333334"></path><path class="path" d="M298.6666666666667,161L298.6666666666667,164.16666666666666C298.6666666666667,167.33333333333334,298.6666666666667,173.66666666666666,294.44444444444446,183.16666666666666C290.22222222222223,192.66666666666666,281.77777777777777,205.33333333333334,277.55555555555554,214.83333333333334C273.3333333333333,224.33333333333334,273.3333333333333,230.66666666666666,273.3333333333333,233.83333333333334L273.3333333333333,237"></path><path class="path" d="M324,211.66666666666666L320.8333333333333,211.66666666666666C317.6666666666667,211.66666666666666,311.3333333333333,211.66666666666666,301.8333333333333,211.66666666666666C292.3333333333333,211.66666666666666,279.6666666666667,211.66666666666666,270.1666666666667,211.66666666666666C260.6666666666667,211.66666666666666,254.33333333333334,211.66666666666666,251.16666666666666,211.66666666666666L248,211.66666666666666"></path><path class="path" d="M298.6666666666667,237L298.6666666666667,228.55555555555554C298.6666666666667,220.11111111111111,298.6666666666667,203.22222222222226,290.22222222222223,194.7777777777778C281.77777777777777,186.33333333333334,264.8888888888889,186.33333333333334,256.44444444444446,186.33333333333334C248,186.33333333333334,248,186.33333333333334,248,186.33333333333334L248,186.33333333333334"></path><rect class="border" x="248" y="161" width="76" height="76"></rect></g><g><rect class="tile-bg" x="248" y="237" width="76" height="76"></rect><path class="path__shadow" d="M273.3333333333333,237L273.3333333333333,240.16666666666666C273.3333333333333,243.33333333333334,273.3333333333333,249.66666666666666,277.55555555555554,252.83333333333334C281.77777777777777,256,290.22222222222223,256,294.44444444444446,252.83333333333334C298.6666666666667,249.66666666666666,298.6666666666667,243.33333333333334,298.6666666666667,240.16666666666666L298.6666666666667,237"></path><path class="path__shadow" d="M324,262.3333333333333L320.8333333333333,262.3333333333333C317.6666666666667,262.3333333333333,311.3333333333333,262.3333333333333,301.8333333333333,262.3333333333333C292.3333333333333,262.3333333333333,279.6666666666667,262.3333333333333,270.1666666666667,262.3333333333333C260.6666666666667,262.3333333333333,254.33333333333334,262.3333333333333,251.16666666666666,262.3333333333333L248,262.3333333333333"></path><path class="path__shadow" d="M324,287.6666666666667L324,287.6666666666667C324,287.6666666666667,324,287.6666666666667,315.55555555555554,287.6666666666667C307.1111111111111,287.6666666666667,290.22222222222223,287.6666666666667,281.77777777777777,291.8888888888889C273.3333333333333,296.11111111111114,273.3333333333333,304.5555555555556,273.3333333333333,308.77777777777777L273.3333333333333,313"></path><path class="path__shadow" d="M298.6666666666667,313L298.6666666666667,308.77777777777777C298.6666666666667,304.5555555555556,298.6666666666667,296.11111111111114,290.22222222222223,291.8888888888889C281.77777777777777,287.6666666666667,264.8888888888889,287.6666666666667,256.44444444444446,287.6666666666667C248,287.6666666666667,248,287.6666666666667,248,287.6666666666667L248,287.6666666666667"></path><path class="path" d="M273.3333333333333,237L273.3333333333333,240.16666666666666C273.3333333333333,243.33333333333334,273.3333333333333,249.66666666666666,277.55555555555554,252.83333333333334C281.77777777777777,256,290.22222222222223,256,294.44444444444446,252.83333333333334C298.6666666666667,249.66666666666666,298.6666666666667,243.33333333333334,298.6666666666667,240.16666666666666L298.6666666666667,237"></path><path class="path" d="M324,262.3333333333333L320.8333333333333,262.3333333333333C317.6666666666667,262.3333333333333,311.3333333333333,262.3333333333333,301.8333333333333,262.3333333333333C292.3333333333333,262.3333333333333,279.6666666666667,262.3333333333333,270.1666666666667,262.3333333333333C260.6666666666667,262.3333333333333,254.33333333333334,262.3333333333333,251.16666666666666,262.3333333333333L248,262.3333333333333"></path><path class="path" d="M324,287.6666666666667L324,287.6666666666667C324,287.6666666666667,324,287.6666666666667,315.55555555555554,287.6666666666667C307.1111111111111,287.6666666666667,290.22222222222223,287.6666666666667,281.77777777777777,291.8888888888889C273.3333333333333,296.11111111111114,273.3333333333333,304.5555555555556,273.3333333333333,308.77777777777777L273.3333333333333,313"></path><path class="path" d="M298.6666666666667,313L298.6666666666667,308.77777777777777C298.6666666666667,304.5555555555556,298.6666666666667,296.11111111111114,290.22222222222223,291.8888888888889C281.77777777777777,287.6666666666667,264.8888888888889,287.6666666666667,256.44444444444446,287.6666666666667C248,287.6666666666667,248,287.6666666666667,248,287.6666666666667L248,287.6666666666667"></path><rect class="border" x="248" y="237" width="76" height="76"></rect></g><g><rect class="tile-bg tile-bg--empty" x="248" y="313" width="76" height="76"></rect><rect class="border" x="248" y="313" width="76" height="76"></rect></g><g><rect class="tile-bg tile-bg--empty" x="248" y="389" width="76" height="76"></rect><rect class="border" x="248" y="389" width="76" height="76"></rect></g><g><rect class="tile-bg tile-bg--empty" x="248" y="465" width="76" height="76"></rect><rect class="border" x="248" y="465" width="76" height="76"></rect></g><g><rect class="tile-bg tile-bg--empty" x="248" y="541" width="76" height="76"></rect><rect class="border" x="248" y="541" width="76" height="76"></rect></g><g><rect class="tile-bg tile-bg--empty" x="248" y="617" width="76" height="76"></rect><rect class="border" x="248" y="617" width="76" height="76"></rect></g><g><rect class="tile-bg tile-bg--empty" x="248" y="693" width="76" height="76"></rect><rect class="border" x="248" y="693" width="76" height="76"></rect></g><g><rect class="tile-bg tile-bg--empty" x="248" y="769" width="76" height="76"></rect><rect class="border" x="248" y="769" width="76" height="76"></rect></g><g><rect class="tile-bg" x="324" y="85" width="76" height="76"></rect><path class="path__shadow" d="M349.3333333333333,85L349.3333333333333,93.44444444444444C349.3333333333333,101.88888888888887,349.3333333333333,118.77777777777777,357.77777777777777,127.22222222222221C366.2222222222222,135.66666666666666,383.1111111111111,135.66666666666666,391.5555555555555,135.66666666666666C400,135.66666666666666,400,135.66666666666666,400,135.66666666666666L400,135.66666666666666"></path><path class="path__shadow" d="M374.6666666666667,85L374.6666666666667,88.16666666666667C374.6666666666667,91.33333333333333,374.6666666666667,97.66666666666667,370.4444444444445,107.16666666666667C366.22222222222223,116.66666666666667,357.77777777777777,129.33333333333334,353.5555555555556,138.83333333333334C349.3333333333333,148.33333333333334,349.3333333333333,154.66666666666666,349.3333333333333,157.83333333333334L349.3333333333333,161"></path><path class="path__shadow" d="M400,110.33333333333333L396.8333333333333,110.33333333333333C393.6666666666667,110.33333333333333,387.3333333333333,110.33333333333333,377.8333333333333,114.55555555555554C368.3333333333333,118.77777777777777,355.6666666666667,127.22222222222221,346.1666666666667,131.44444444444443C336.6666666666667,135.66666666666666,330.3333333333333,135.66666666666666,327.1666666666667,135.66666666666666L324,135.66666666666666"></path><path class="path__shadow" d="M374.6666666666667,161L374.6666666666667,152.55555555555557C374.6666666666667,144.11111111111111,374.6666666666667,127.22222222222221,366.22222222222223,118.77777777777777C357.7777777777778,110.33333333333333,340.8888888888889,110.33333333333333,332.44444444444446,110.33333333333333C324,110.33333333333333,324,110.33333333333333,324,110.33333333333333L324,110.33333333333333"></path><path class="path" d="M349.3333333333333,85L349.3333333333333,93.44444444444444C349.3333333333333,101.88888888888887,349.3333333333333,118.77777777777777,357.77777777777777,127.22222222222221C366.2222222222222,135.66666666666666,383.1111111111111,135.66666666666666,391.5555555555555,135.66666666666666C400,135.66666666666666,400,135.66666666666666,400,135.66666666666666L400,135.66666666666666"></path><path class="path" d="M374.6666666666667,85L374.6666666666667,88.16666666666667C374.6666666666667,91.33333333333333,374.6666666666667,97.66666666666667,370.4444444444445,107.16666666666667C366.22222222222223,116.66666666666667,357.77777777777777,129.33333333333334,353.5555555555556,138.83333333333334C349.3333333333333,148.33333333333334,349.3333333333333,154.66666666666666,349.3333333333333,157.83333333333334L349.3333333333333,161"></path><path class="path" d="M400,110.33333333333333L396.8333333333333,110.33333333333333C393.6666666666667,110.33333333333333,387.3333333333333,110.33333333333333,377.8333333333333,114.55555555555554C368.3333333333333,118.77777777777777,355.6666666666667,127.22222222222221,346.1666666666667,131.44444444444443C336.6666666666667,135.66666666666666,330.3333333333333,135.66666666666666,327.1666666666667,135.66666666666666L324,135.66666666666666"></path><path class="path" d="M374.6666666666667,161L374.6666666666667,152.55555555555557C374.6666666666667,144.11111111111111,374.6666666666667,127.22222222222221,366.22222222222223,118.77777777777777C357.7777777777778,110.33333333333333,340.8888888888889,110.33333333333333,332.44444444444446,110.33333333333333C324,110.33333333333333,324,110.33333333333333,324,110.33333333333333L324,110.33333333333333"></path><rect class="border" x="324" y="85" width="76" height="76"></rect></g><g><rect class="tile-bg tile-bg--empty" x="324" y="161" width="76" height="76"></rect><rect class="border" x="324" y="161" width="76" height="76"></rect></g><g><rect class="tile-bg tile-bg--empty" x="324" y="237" width="76" height="76"></rect><rect class="border" x="324" y="237" width="76" height="76"></rect></g><g><rect class="tile-bg tile-bg--empty" x="324" y="313" width="76" height="76"></rect><rect class="border" x="324" y="313" width="76" height="76"></rect></g><g><rect class="tile-bg tile-bg--empty" x="324" y="389" width="76" height="76"></rect><rect class="border" x="324" y="389" width="76" height="76"></rect></g><g><rect class="tile-bg tile-bg--empty" x="324" y="465" width="76" height="76"></rect><rect class="border" x="324" y="465" width="76" height="76"></rect></g><g><rect class="tile-bg tile-bg--empty" x="324" y="541" width="76" height="76"></rect><rect class="border" x="324" y="541" width="76" height="76"></rect></g><g><rect class="tile-bg tile-bg--empty" x="324" y="617" width="76" height="76"></rect><rect class="border" x="324" y="617" width="76" height="76"></rect></g><g><rect class="tile-bg tile-bg--empty" x="324" y="693" width="76" height="76"></rect><rect class="border" x="324" y="693" width="76" height="76"></rect></g><g><rect class="tile-bg tile-bg--empty" x="324" y="769" width="76" height="76"></rect><rect class="border" x="324" y="769" width="76" height="76"></rect></g><g><rect class="tile-bg" x="400" y="85" width="76" height="76"></rect><path class="path__shadow" d="M425.3333333333333,85L425.3333333333333,89.22222222222223C425.3333333333333,93.44444444444444,425.3333333333333,101.88888888888887,433.77777777777777,106.1111111111111C442.2222222222222,110.33333333333333,459.1111111111111,110.33333333333333,467.5555555555556,110.33333333333333C476,110.33333333333333,476,110.33333333333333,476,110.33333333333333L476,110.33333333333333"></path><path class="path__shadow" d="M450.6666666666667,85L450.6666666666667,89.22222222222223C450.6666666666667,93.44444444444444,450.6666666666667,101.88888888888887,442.22222222222223,106.1111111111111C433.7777777777778,110.33333333333333,416.8888888888889,110.33333333333333,408.4444444444444,110.33333333333333C400,110.33333333333333,400,110.33333333333333,400,110.33333333333333L400,110.33333333333333"></path><path class="path__shadow" d="M476,135.66666666666666L476,135.66666666666666C476,135.66666666666666,476,135.66666666666666,471.77777777777777,135.66666666666666C467.5555555555556,135.66666666666666,459.11111111111114,135.66666666666666,454.8888888888889,139.88888888888889C450.6666666666667,144.11111111111111,450.6666666666667,152.55555555555554,450.6666666666667,156.77777777777777L450.6666666666667,161"></path><path class="path__shadow" d="M425.3333333333333,161L425.3333333333333,156.77777777777777C425.3333333333333,152.55555555555554,425.3333333333333,144.11111111111111,421.1111111111111,139.88888888888889C416.88888888888886,135.66666666666666,408.4444444444444,135.66666666666666,404.2222222222222,135.66666666666666C400,135.66666666666666,400,135.66666666666666,400,135.66666666666666L400,135.66666666666666"></path><path class="path" d="M425.3333333333333,85L425.3333333333333,89.22222222222223C425.3333333333333,93.44444444444444,425.3333333333333,101.88888888888887,433.77777777777777,106.1111111111111C442.2222222222222,110.33333333333333,459.1111111111111,110.33333333333333,467.5555555555556,110.33333333333333C476,110.33333333333333,476,110.33333333333333,476,110.33333333333333L476,110.33333333333333"></path><path class="path" d="M450.6666666666667,85L450.6666666666667,89.22222222222223C450.6666666666667,93.44444444444444,450.6666666666667,101.88888888888887,442.22222222222223,106.1111111111111C433.7777777777778,110.33333333333333,416.8888888888889,110.33333333333333,408.4444444444444,110.33333333333333C400,110.33333333333333,400,110.33333333333333,400,110.33333333333333L400,110.33333333333333"></path><path class="path" d="M476,135.66666666666666L476,135.66666666666666C476,135.66666666666666,476,135.66666666666666,471.77777777777777,135.66666666666666C467.5555555555556,135.66666666666666,459.11111111111114,135.66666666666666,454.8888888888889,139.88888888888889C450.6666666666667,144.11111111111111,450.6666666666667,152.55555555555554,450.6666666666667,156.77777777777777L450.6666666666667,161"></path><path class="path" d="M425.3333333333333,161L425.3333333333333,156.77777777777777C425.3333333333333,152.55555555555554,425.3333333333333,144.11111111111111,421.1111111111111,139.88888888888889C416.88888888888886,135.66666666666666,408.4444444444444,135.66666666666666,404.2222222222222,135.66666666666666C400,135.66666666666666,400,135.66666666666666,400,135.66666666666666L400,135.66666666666666"></path><rect class="border" x="400" y="85" width="76" height="76"></rect></g><g><rect class="tile-bg" x="400" y="161" width="76" height="76"></rect><path class="path__shadow" d="M425.3333333333333,161L425.3333333333333,165.22222222222223C425.3333333333333,169.44444444444446,425.3333333333333,177.8888888888889,433.77777777777777,182.11111111111111C442.2222222222222,186.33333333333334,459.1111111111111,186.33333333333334,467.5555555555556,186.33333333333334C476,186.33333333333334,476,186.33333333333334,476,186.33333333333334L476,186.33333333333334"></path><path class="path__shadow" d="M450.6666666666667,161L450.6666666666667,164.16666666666666C450.6666666666667,167.33333333333334,450.6666666666667,173.66666666666666,450.6666666666667,183.16666666666666C450.6666666666667,192.66666666666666,450.6666666666667,205.33333333333334,450.6666666666667,214.83333333333334C450.6666666666667,224.33333333333334,450.6666666666667,230.66666666666666,450.6666666666667,233.83333333333334L450.6666666666667,237"></path><path class="path__shadow" d="M476,211.66666666666666L472.8333333333333,211.66666666666666C469.6666666666667,211.66666666666666,463.3333333333333,211.66666666666666,453.8333333333333,211.66666666666666C444.3333333333333,211.66666666666666,431.6666666666667,211.66666666666666,422.1666666666667,211.66666666666666C412.6666666666667,211.66666666666666,406.3333333333333,211.66666666666666,403.1666666666667,211.66666666666666L400,211.66666666666666"></path><path class="path__shadow" d="M425.3333333333333,237L425.3333333333333,228.55555555555554C425.3333333333333,220.11111111111111,425.3333333333333,203.22222222222226,421.1111111111111,194.7777777777778C416.88888888888886,186.33333333333334,408.4444444444444,186.33333333333334,404.2222222222222,186.33333333333334C400,186.33333333333334,400,186.33333333333334,400,186.33333333333334L400,186.33333333333334"></path><path class="path" d="M425.3333333333333,161L425.3333333333333,165.22222222222223C425.3333333333333,169.44444444444446,425.3333333333333,177.8888888888889,433.77777777777777,182.11111111111111C442.2222222222222,186.33333333333334,459.1111111111111,186.33333333333334,467.5555555555556,186.33333333333334C476,186.33333333333334,476,186.33333333333334,476,186.33333333333334L476,186.33333333333334"></path><path class="path" d="M450.6666666666667,161L450.6666666666667,164.16666666666666C450.6666666666667,167.33333333333334,450.6666666666667,173.66666666666666,450.6666666666667,183.16666666666666C450.6666666666667,192.66666666666666,450.6666666666667,205.33333333333334,450.6666666666667,214.83333333333334C450.6666666666667,224.33333333333334,450.6666666666667,230.66666666666666,450.6666666666667,233.83333333333334L450.6666666666667,237"></path><path class="path" d="M476,211.66666666666666L472.8333333333333,211.66666666666666C469.6666666666667,211.66666666666666,463.3333333333333,211.66666666666666,453.8333333333333,211.66666666666666C444.3333333333333,211.66666666666666,431.6666666666667,211.66666666666666,422.1666666666667,211.66666666666666C412.6666666666667,211.66666666666666,406.3333333333333,211.66666666666666,403.1666666666667,211.66666666666666L400,211.66666666666666"></path><path class="path" d="M425.3333333333333,237L425.3333333333333,228.55555555555554C425.3333333333333,220.11111111111111,425.3333333333333,203.22222222222226,421.1111111111111,194.7777777777778C416.88888888888886,186.33333333333334,408.4444444444444,186.33333333333334,404.2222222222222,186.33333333333334C400,186.33333333333334,400,186.33333333333334,400,186.33333333333334L400,186.33333333333334"></path><rect class="border" x="400" y="161" width="76" height="76"></rect></g><g><rect class="tile-bg tile-bg--empty" x="400" y="237" width="76" height="76"></rect><rect class="border" x="400" y="237" width="76" height="76"></rect></g><g><rect class="tile-bg tile-bg--empty" x="400" y="313" width="76" height="76"></rect><rect class="border" x="400" y="313" width="76" height="76"></rect></g><g><rect class="tile-bg tile-bg--empty" x="400" y="389" width="76" height="76"></rect><rect class="border" x="400" y="389" width="76" height="76"></rect></g><g><rect class="tile-bg tile-bg--empty" x="400" y="465" width="76" height="76"></rect><rect class="border" x="400" y="465" width="76" height="76"></rect></g><g><rect class="tile-bg tile-bg--empty" x="400" y="541" width="76" height="76"></rect><rect class="border" x="400" y="541" width="76" height="76"></rect></g><g><rect class="tile-bg tile-bg--empty" x="400" y="617" width="76" height="76"></rect><rect class="border" x="400" y="617" width="76" height="76"></rect></g><g><rect class="tile-bg tile-bg--empty" x="400" y="693" width="76" height="76"></rect><rect class="border" x="400" y="693" width="76" height="76"></rect></g><g><rect class="tile-bg tile-bg--empty" x="400" y="769" width="76" height="76"></rect><rect class="border" x="400" y="769" width="76" height="76"></rect></g><g><rect class="tile-bg tile-bg--empty" x="476" y="85" width="76" height="76"></rect><rect class="border" x="476" y="85" width="76" height="76"></rect></g><g><rect class="tile-bg" x="476" y="161" width="76" height="76"></rect><path class="path__shadow" d="M501.3333333333333,161L501.3333333333333,164.16666666666666C501.3333333333333,167.33333333333334,501.3333333333333,173.66666666666666,505.5555555555555,176.83333333333334C509.77777777777777,180,518.2222222222222,180,522.4444444444445,176.83333333333334C526.6666666666666,173.66666666666666,526.6666666666666,167.33333333333334,526.6666666666666,164.16666666666666L526.6666666666666,161"></path><path class="path__shadow" d="M552,186.33333333333334L548.8333333333334,186.33333333333334C545.6666666666666,186.33333333333334,539.3333333333334,186.33333333333334,529.8333333333334,190.55555555555557C520.3333333333334,194.7777777777778,507.6666666666667,203.2222222222222,498.1666666666667,207.44444444444446C488.6666666666667,211.66666666666666,482.3333333333333,211.66666666666666,479.1666666666667,211.66666666666666L476,211.66666666666666"></path><path class="path__shadow" d="M552,211.66666666666666L548.8333333333334,211.66666666666666C545.6666666666666,211.66666666666666,539.3333333333334,211.66666666666666,529.8333333333334,207.44444444444443C520.3333333333334,203.2222222222222,507.6666666666667,194.7777777777778,498.1666666666667,190.55555555555554C488.6666666666667,186.33333333333334,482.3333333333333,186.33333333333334,479.1666666666667,186.33333333333334L476,186.33333333333334"></path><path class="path__shadow" d="M526.6666666666666,237L526.6666666666666,233.83333333333334C526.6666666666666,230.66666666666666,526.6666666666666,224.33333333333334,522.4444444444445,221.16666666666666C518.2222222222222,218,509.77777777777777,218,505.5555555555556,221.16666666666666C501.3333333333333,224.33333333333334,501.3333333333333,230.66666666666666,501.3333333333333,233.83333333333334L501.3333333333333,237"></path><path class="path" d="M501.3333333333333,161L501.3333333333333,164.16666666666666C501.3333333333333,167.33333333333334,501.3333333333333,173.66666666666666,505.5555555555555,176.83333333333334C509.77777777777777,180,518.2222222222222,180,522.4444444444445,176.83333333333334C526.6666666666666,173.66666666666666,526.6666666666666,167.33333333333334,526.6666666666666,164.16666666666666L526.6666666666666,161"></path><path class="path" d="M552,186.33333333333334L548.8333333333334,186.33333333333334C545.6666666666666,186.33333333333334,539.3333333333334,186.33333333333334,529.8333333333334,190.55555555555557C520.3333333333334,194.7777777777778,507.6666666666667,203.2222222222222,498.1666666666667,207.44444444444446C488.6666666666667,211.66666666666666,482.3333333333333,211.66666666666666,479.1666666666667,211.66666666666666L476,211.66666666666666"></path><path class="path" d="M552,211.66666666666666L548.8333333333334,211.66666666666666C545.6666666666666,211.66666666666666,539.3333333333334,211.66666666666666,529.8333333333334,207.44444444444443C520.3333333333334,203.2222222222222,507.6666666666667,194.7777777777778,498.1666666666667,190.55555555555554C488.6666666666667,186.33333333333334,482.3333333333333,186.33333333333334,479.1666666666667,186.33333333333334L476,186.33333333333334"></path><path class="path" d="M526.6666666666666,237L526.6666666666666,233.83333333333334C526.6666666666666,230.66666666666666,526.6666666666666,224.33333333333334,522.4444444444445,221.16666666666666C518.2222222222222,218,509.77777777777777,218,505.5555555555556,221.16666666666666C501.3333333333333,224.33333333333334,501.3333333333333,230.66666666666666,501.3333333333333,233.83333333333334L501.3333333333333,237"></path><rect class="border" x="476" y="161" width="76" height="76"></rect></g><g><rect class="tile-bg tile-bg--empty" x="476" y="237" width="76" height="76"></rect><rect class="border" x="476" y="237" width="76" height="76"></rect></g><g><rect class="tile-bg tile-bg--empty" x="476" y="313" width="76" height="76"></rect><rect class="border" x="476" y="313" width="76" height="76"></rect></g><g><rect class="tile-bg tile-bg--empty" x="476" y="389" width="76" height="76"></rect><rect class="border" x="476" y="389" width="76" height="76"></rect></g><g><rect class="tile-bg tile-bg--empty" x="476" y="465" width="76" height="76"></rect><rect class="border" x="476" y="465" width="76" height="76"></rect></g><g><rect class="tile-bg tile-bg--empty" x="476" y="541" width="76" height="76"></rect><rect class="border" x="476" y="541" width="76" height="76"></rect></g><g><rect class="tile-bg tile-bg--empty" x="476" y="617" width="76" height="76"></rect><rect class="border" x="476" y="617" width="76" height="76"></rect></g><g><rect class="tile-bg tile-bg--empty" x="476" y="693" width="76" height="76"></rect><rect class="border" x="476" y="693" width="76" height="76"></rect></g><g><rect class="tile-bg tile-bg--empty" x="476" y="769" width="76" height="76"></rect><rect class="border" x="476" y="769" width="76" height="76"></rect></g><g><rect class="tile-bg tile-bg--empty" x="552" y="85" width="76" height="76"></rect><rect class="border" x="552" y="85" width="76" height="76"></rect></g><g><rect class="tile-bg tile-bg--empty" x="552" y="161" width="76" height="76"></rect><rect class="border" x="552" y="161" width="76" height="76"></rect></g><g><rect class="tile-bg tile-bg--empty" x="552" y="237" width="76" height="76"></rect><rect class="border" x="552" y="237" width="76" height="76"></rect></g><g><rect class="tile-bg tile-bg--empty" x="552" y="313" width="76" height="76"></rect><rect class="border" x="552" y="313" width="76" height="76"></rect></g><g><rect class="tile-bg tile-bg--empty" x="552" y="389" width="76" height="76"></rect><rect class="border" x="552" y="389" width="76" height="76"></rect></g><g><rect class="tile-bg tile-bg--empty" x="552" y="465" width="76" height="76"></rect><rect class="border" x="552" y="465" width="76" height="76"></rect></g><g><rect class="tile-bg tile-bg--empty" x="552" y="541" width="76" height="76"></rect><rect class="border" x="552" y="541" width="76" height="76"></rect></g><g><rect class="tile-bg tile-bg--empty" x="552" y="617" width="76" height="76"></rect><rect class="border" x="552" y="617" width="76" height="76"></rect></g><g><rect class="tile-bg tile-bg--empty" x="552" y="693" width="76" height="76"></rect><rect class="border" x="552" y="693" width="76" height="76"></rect></g><g><rect class="tile-bg tile-bg--empty" x="552" y="769" width="76" height="76"></rect><rect class="border" x="552" y="769" width="76" height="76"></rect></g><g><rect class="tile-bg tile-bg--empty" x="628" y="85" width="76" height="76"></rect><rect class="border" x="628" y="85" width="76" height="76"></rect></g><g><rect class="tile-bg tile-bg--empty" x="628" y="161" width="76" height="76"></rect><rect class="border" x="628" y="161" width="76" height="76"></rect></g><g><rect class="tile-bg tile-bg--empty" x="628" y="237" width="76" height="76"></rect><rect class="border" x="628" y="237" width="76" height="76"></rect></g><g><rect class="tile-bg tile-bg--empty" x="628" y="313" width="76" height="76"></rect><rect class="border" x="628" y="313" width="76" height="76"></rect></g><g><rect class="tile-bg tile-bg--empty" x="628" y="389" width="76" height="76"></rect><rect class="border" x="628" y="389" width="76" height="76"></rect></g><g><rect class="tile-bg tile-bg--empty" x="628" y="465" width="76" height="76"></rect><rect class="border" x="628" y="465" width="76" height="76"></rect></g><g><rect class="tile-bg tile-bg--empty" x="628" y="541" width="76" height="76"></rect><rect class="border" x="628" y="541" width="76" height="76"></rect></g><g><rect class="tile-bg tile-bg--empty" x="628" y="617" width="76" height="76"></rect><rect class="border" x="628" y="617" width="76" height="76"></rect></g><g><rect class="tile-bg tile-bg--empty" x="628" y="693" width="76" height="76"></rect><rect class="border" x="628" y="693" width="76" height="76"></rect></g><g><rect class="tile-bg tile-bg--empty" x="628" y="769" width="76" height="76"></rect><rect class="border" x="628" y="769" width="76" height="76"></rect></g><g><rect class="tile-bg tile-bg--empty" x="704" y="85" width="76" height="76"></rect><rect class="border" x="704" y="85" width="76" height="76"></rect></g><g><rect class="tile-bg tile-bg--empty" x="704" y="161" width="76" height="76"></rect><rect class="border" x="704" y="161" width="76" height="76"></rect></g><g><rect class="tile-bg tile-bg--empty" x="704" y="237" width="76" height="76"></rect><rect class="border" x="704" y="237" width="76" height="76"></rect></g><g><rect class="tile-bg tile-bg--empty" x="704" y="313" width="76" height="76"></rect><rect class="border" x="704" y="313" width="76" height="76"></rect></g><g><rect class="tile-bg tile-bg--empty" x="704" y="389" width="76" height="76"></rect><rect class="border" x="704" y="389" width="76" height="76"></rect></g><g><rect class="tile-bg tile-bg--empty" x="704" y="465" width="76" height="76"></rect><rect class="border" x="704" y="465" width="76" height="76"></rect></g><g><rect class="tile-bg tile-bg--empty" x="704" y="541" width="76" height="76"></rect><rect class="border" x="704" y="541" width="76" height="76"></rect></g><g><rect class="tile-bg tile-bg--empty" x="704" y="617" width="76" height="76"></rect><rect class="border" x="704" y="617" width="76" height="76"></rect></g><g><rect class="tile-bg tile-bg--empty" x="704" y="693" width="76" height="76"></rect><rect class="border" x="704" y="693" width="76" height="76"></rect></g><g><rect class="tile-bg tile-bg--empty" x="704" y="769" width="76" height="76"></rect><rect class="border" x="704" y="769" width="76" height="76"></rect></g><g><g class="dead"><circle class="avatar__shadow" cx="20" cy="135.66666666666666" r="5.32"></circle><circle class="avatar" cx="20" cy="135.66666666666666" r="5.32" fill="white"></circle></g><g class="dead"><circle class="avatar__shadow" cx="450.6666666666667" cy="85" r="5.32"></circle><circle class="avatar" cx="450.6666666666667" cy="85" r="5.32" fill="black"></circle></g><g class=""><circle class="avatar__shadow" cx="552" cy="211.66666666666666" r="5.32"></circle><circle class="avatar" cx="552" cy="211.66666666666666" r="5.32" fill="red"></circle></g></g></svg>