<svg xmlns="http://www.w3.org/2000/svg" width="800" height="800"><defs><style type="text/css"><![CDATA[ 
  .border, .port, .avatar {
    stroke: #583C14;
    stroke-width: 1;
  }

  .avatar__shadow {
    fill: #FCE8B8;
  }

  .border {
    fill: none;
  }

  .background {
    fill: #936D36;
  }

  .background--empty {
    fill: #E3A865;
  }

  .dead {
    opacity: 0.75;
  }

  .port {
    fill: #ffffff;
  }

  .path__shadow {
    fill: none;
    stroke: #583C14;
    stroke-width: 5;
  }

  .path {
    fill: none;
    stroke: #FCE8B8;
    stroke-width: 3;
  }
 ]]></style></defs><g><rect class="background" x="0" y="0" width="80" height="80"></rect><path class="path__shadow" d="M26.666666666666664,0L26.66666666666666,3.3333333333333335C26.666666666666668,6.666666666666667,26.666666666666668,13.333333333333334,26.66666666666666,23.333333333333332C26.666666666666668,33.333333333333336,26.666666666666668,46.666666666666664,26.66666666666666,56.666666666666664C26.666666666666668,66.66666666666667,26.666666666666668,73.33333333333333,26.66666666666666,76.66666666666667L26.666666666666664,80"></path><path class="path__shadow" d="M53.33333333333333,0L53.33333333333332,3.3333333333333335C53.333333333333336,6.666666666666667,53.333333333333336,13.333333333333334,53.33333333333332,23.333333333333332C53.333333333333336,33.333333333333336,53.333333333333336,46.666666666666664,53.33333333333332,56.666666666666664C53.333333333333336,66.66666666666667,53.333333333333336,73.33333333333333,53.33333333333332,76.66666666666667L53.33333333333333,80"></path><path class="path__shadow" d="M80,26.666666666666664L76.66666666666667,26.66666666666666C73.33333333333333,26.666666666666668,66.66666666666667,26.666666666666668,56.666666666666664,26.66666666666666C46.666666666666664,26.666666666666668,33.333333333333336,26.666666666666668,23.333333333333332,26.66666666666666C13.333333333333334,26.666666666666668,6.666666666666667,26.666666666666668,3.3333333333333335,26.66666666666666L0,26.666666666666664"></path><path class="path__shadow" d="M80,53.33333333333333L76.66666666666667,53.33333333333332C73.33333333333333,53.333333333333336,66.66666666666667,53.333333333333336,56.666666666666664,53.33333333333332C46.666666666666664,53.333333333333336,33.333333333333336,53.333333333333336,23.333333333333332,53.33333333333332C13.333333333333334,53.333333333333336,6.666666666666667,53.333333333333336,3.3333333333333335,53.33333333333332L0,53.33333333333333"></path><path class="path" d="M26.666666666666664,0L26.66666666666666,3.3333333333333335C26.666666666666668,6.666666666666667,26.666666666666668,13.333333333333334,26.66666666666666,23.333333333333332C26.666666666666668,33.333333333333336,26.666666666666668,46.666666666666664,26.66666666666666,56.666666666666664C26.666666666666668,66.66666666666667,26.666666666666668,73.33333333333333,26.66666666666666,76.66666666666667L26.666666666666664,80"></path><path class="path" d="M53.33333333333333,0L53.33333333333332,3.3333333333333335C53.333333333333336,6.666666666666667,53.333333333333336,13.333333333333334,53.33333333333332,23.333333333333332C53.333333333333336,33.333333333333336,53.333333333333336,46.666666666666664,53.33333333333332,56.666666666666664C53.333333333333336,66.66666666666667,53.333333333333336,73.33333333333333,53.33333333333332,76.66666666666667L53.33333333333333,80"></path><path class="path" d="M80,26.666666666666664L76.66666666666667,26.66666666666666C73.33333333333333,26.666666666666668,66.66666666666667,26.666666666666668,56.666666666666664,26.66666666666666C46.666666666666664,26.666666666666668,33.333333333333336,26.666666666666668,23.333333333333332,26.66666666666666C13.333333333333334,26.666666666666668,6.666666666666667,26.666666666666668,3.3333333333333335,26.66666666666666L0,26.666666666666664"></path><path class="path" d="M80,53.33333333333333L76.66666666666667,53.33333333333332C73.33333333333333,53.333333333333336,66.66666666666667,53.333333333333336,56.666666666666664,53.33333333333332C46.666666666666664,53.333333333333336,33.333333333333336,53.333333333333336,23.333333333333332,53.33333333333332C13.333333333333334,53.333333333333336,6.666666666666667,53.333333333333336,3.3333333333333335,53.33333333333332L0,53.33333333333333"></path><rect class="border" x="0" y="0" width="80" height="80"></rect></g><g><rect class="background" x="0" y="80" width="80" height="80"></rect><path class="path__shadow" d="M26.666666666666664,80L26.66666666666666,88.88888888888887C26.666666666666668,97.77777777777777,26.666666666666668,115.55555555555554,35.55555555555555,124.44444444444441C44.444444444444436,133.33333333333331,62.22222222222222,133.33333333333331,71.11111111111111,133.3333333333333C80,133.33333333333331,80,133.33333333333331,80,133.3333333333333L80,133.33333333333331"></path><path class="path__shadow" d="M53.33333333333333,80L53.33333333333332,83.33333333333333C53.333333333333336,86.66666666666667,53.333333333333336,93.33333333333333,53.33333333333332,103.33333333333333C53.333333333333336,113.33333333333333,53.333333333333336,126.66666666666667,53.33333333333332,136.66666666666666C53.333333333333336,146.66666666666666,53.333333333333336,153.33333333333334,53.33333333333332,156.66666666666666L53.33333333333333,160"></path><path class="path__shadow" d="M80,106.66666666666666L76.66666666666667,106.66666666666664C73.33333333333333,106.66666666666667,66.66666666666667,106.66666666666667,56.666666666666664,106.66666666666664C46.666666666666664,106.66666666666667,33.333333333333336,106.66666666666667,23.333333333333332,106.66666666666664C13.333333333333334,106.66666666666667,6.666666666666667,106.66666666666667,3.3333333333333335,106.66666666666664L0,106.66666666666666"></path><path class="path__shadow" d="M26.666666666666664,160L26.66666666666666,155.55555555555554C26.666666666666668,151.11111111111111,26.666666666666668,142.2222222222222,22.222222222222218,137.77777777777774C17.777777777777775,133.33333333333331,8.888888888888888,133.33333333333331,4.444444444444444,133.3333333333333C0,133.33333333333331,0,133.33333333333331,0,133.3333333333333L0,133.33333333333331"></path><path class="path" d="M26.666666666666664,80L26.66666666666666,88.88888888888887C26.666666666666668,97.77777777777777,26.666666666666668,115.55555555555554,35.55555555555555,124.44444444444441C44.444444444444436,133.33333333333331,62.22222222222222,133.33333333333331,71.11111111111111,133.3333333333333C80,133.33333333333331,80,133.33333333333331,80,133.3333333333333L80,133.33333333333331"></path><path class="path" d="M53.33333333333333,80L53.33333333333332,83.33333333333333C53.333333333333336,86.66666666666667,53.333333333333336,93.33333333333333,53.33333333333332,103.33333333333333C53.333333333333336,113.33333333333333,53.333333333333336,126.66666666666667,53.33333333333332,136.66666666666666C53.333333333333336,146.66666666666666,53.333333333333336,153.33333333333334,53.33333333333332,156.66666666666666L53.33333333333333,160"></path><path class="path" d="M80,106.66666666666666L76.66666666666667,106.66666666666664C73.33333333333333,106.66666666666667,66.66666666666667,106.66666666666667,56.666666666666664,106.66666666666664C46.666666666666664,106.66666666666667,33.333333333333336,106.66666666666667,23.333333333333332,106.66666666666664C13.333333333333334,106.66666666666667,6.666666666666667,106.66666666666667,3.3333333333333335,106.66666666666664L0,106.66666666666666"></path><path class="path" d="M26.666666666666664,160L26.66666666666666,155.55555555555554C26.666666666666668,151.11111111111111,26.666666666666668,142.2222222222222,22.222222222222218,137.77777777777774C17.777777777777775,133.33333333333331,8.888888888888888,133.33333333333331,4.444444444444444,133.3333333333333C0,133.33333333333331,0,133.33333333333331,0,133.3333333333333L0,133.33333333333331"></path><rect class="border" x="0" y="80" width="80" height="80"></rect></g><g><rect class="background background--empty" x="0" y="160" width="80" height="80"></rect><rect class="border" x="0" y="160" width="80" height="80"></rect></g><g><rect class="background background--empty" x="0" y="240" width="80" height="80"></rect><rect class="border" x="0" y="240" width="80" height="80"></rect></g><g><rect class="background background--empty" x="0" y="320" width="80" height="80"></rect><rect class="border" x="0" y="320" width="80" height="80"></rect></g><g><rect class="background background--empty" x="0" y="400" width="80" height="80"></rect><rect class="border" x="0" y="400" width="80" height="80"></rect></g><g><rect class="background background--empty" x="0" y="480" width="80" height="80"></rect><rect class="border" x="0" y="480" width="80" height="80"></rect></g><g><rect class="background background--empty" x="0" y="560" width="80" height="80"></rect><rect class="border" x="0" y="560" width="80" height="80"></rect></g><g><rect class="background background--empty" x="0" y="640" width="80" height="80"></rect><rect class="border" x="0" y="640" width="80" height="80"></rect></g><g><rect class="background background--empty" x="0" y="720" width="80" height="80"></rect><rect class="border" x="0" y="720" width="80" height="80"></rect></g><g><rect class="background" x="80" y="0" width="80" height="80"></rect><path class="path__shadow" d="M106.66666666666666,0L106.66666666666664,4.444444444444444C106.66666666666667,8.888888888888888,106.66666666666667,17.777777777777775,115.55555555555554,22.222222222222218C124.44444444444444,26.666666666666668,142.2222222222222,26.666666666666668,151.11111111111111,26.66666666666666C160,26.666666666666668,160,26.666666666666668,160,26.66666666666666L160,26.666666666666664"></path><path class="path__shadow" d="M133.33333333333331,0L133.3333333333333,8.888888888888888C133.33333333333331,17.777777777777775,133.33333333333331,35.55555555555555,137.77777777777774,44.444444444444436C142.2222222222222,53.333333333333336,151.11111111111111,53.333333333333336,155.55555555555554,53.33333333333332C160,53.333333333333336,160,53.333333333333336,160,53.33333333333332L160,53.33333333333333"></path><path class="path__shadow" d="M133.33333333333331,80L133.3333333333333,75.55555555555556C133.33333333333331,71.1111111111111,133.33333333333331,62.22222222222222,124.44444444444441,57.77777777777777C115.55555555555554,53.333333333333336,97.77777777777777,53.333333333333336,88.88888888888887,53.33333333333332C80,53.333333333333336,80,53.333333333333336,80,53.33333333333332L80,53.33333333333333"></path><path class="path__shadow" d="M106.66666666666666,80L106.66666666666664,71.11111111111111C106.66666666666667,62.22222222222222,106.66666666666667,44.444444444444436,102.22222222222221,35.55555555555555C97.77777777777777,26.666666666666668,88.88888888888887,26.666666666666668,84.44444444444444,26.66666666666666C80,26.666666666666668,80,26.666666666666668,80,26.66666666666666L80,26.666666666666664"></path><path class="path" d="M106.66666666666666,0L106.66666666666664,4.444444444444444C106.66666666666667,8.888888888888888,106.66666666666667,17.777777777777775,115.55555555555554,22.222222222222218C124.44444444444444,26.666666666666668,142.2222222222222,26.666666666666668,151.11111111111111,26.66666666666666C160,26.666666666666668,160,26.666666666666668,160,26.66666666666666L160,26.666666666666664"></path><path class="path" d="M133.33333333333331,0L133.3333333333333,8.888888888888888C133.33333333333331,17.777777777777775,133.33333333333331,35.55555555555555,137.77777777777774,44.444444444444436C142.2222222222222,53.333333333333336,151.11111111111111,53.333333333333336,155.55555555555554,53.33333333333332C160,53.333333333333336,160,53.333333333333336,160,53.33333333333332L160,53.33333333333333"></path><path class="path" d="M133.33333333333331,80L133.3333333333333,75.55555555555556C133.33333333333331,71.1111111111111,133.33333333333331,62.22222222222222,124.44444444444441,57.77777777777777C115.55555555555554,53.333333333333336,97.77777777777777,53.333333333333336,88.88888888888887,53.33333333333332C80,53.333333333333336,80,53.333333333333336,80,53.33333333333332L80,53.33333333333333"></path><path class="path" d="M106.66666666666666,80L106.66666666666664,71.11111111111111C106.66666666666667,62.22222222222222,106.66666666666667,44.444444444444436,102.22222222222221,35.55555555555555C97.77777777777777,26.666666666666668,88.88888888888887,26.666666666666668,84.44444444444444,26.66666666666666C80,26.666666666666668,80,26.666666666666668,80,26.66666666666666L80,26.666666666666664"></path><rect class="border" x="80" y="0" width="80" height="80"></rect></g><g><rect class="background" x="80" y="80" width="80" height="80"></rect><path class="path__shadow" d="M106.66666666666666,80L106.66666666666664,84.44444444444444C106.66666666666667,88.88888888888887,106.66666666666667,97.77777777777777,115.55555555555554,102.22222222222221C124.44444444444444,106.66666666666667,142.2222222222222,106.66666666666667,151.11111111111111,106.66666666666664C160,106.66666666666667,160,106.66666666666667,160,106.66666666666664L160,106.66666666666666"></path><path class="path__shadow" d="M133.33333333333331,80L133.3333333333333,88.88888888888887C133.33333333333331,97.77777777777777,133.33333333333331,115.55555555555554,124.44444444444441,124.44444444444441C115.55555555555554,133.33333333333331,97.77777777777777,133.33333333333331,88.88888888888887,133.3333333333333C80,133.33333333333331,80,133.33333333333331,80,133.3333333333333L80,133.33333333333331"></path><path class="path__shadow" d="M160,133.33333333333331L160,133.3333333333333C160,133.33333333333331,160,133.33333333333331,155.55555555555554,133.3333333333333C151.11111111111111,133.33333333333331,142.2222222222222,133.33333333333331,137.77777777777774,137.77777777777774C133.33333333333331,142.2222222222222,133.33333333333331,151.11111111111111,133.3333333333333,155.55555555555554L133.33333333333331,160"></path><path class="path__shadow" d="M106.66666666666666,160L106.66666666666664,151.11111111111111C106.66666666666667,142.2222222222222,106.66666666666667,124.44444444444444,102.22222222222221,115.55555555555554C97.77777777777777,106.66666666666667,88.88888888888887,106.66666666666667,84.44444444444444,106.66666666666664C80,106.66666666666667,80,106.66666666666667,80,106.66666666666664L80,106.66666666666666"></path><path class="path" d="M106.66666666666666,80L106.66666666666664,84.44444444444444C106.66666666666667,88.88888888888887,106.66666666666667,97.77777777777777,115.55555555555554,102.22222222222221C124.44444444444444,106.66666666666667,142.2222222222222,106.66666666666667,151.11111111111111,106.66666666666664C160,106.66666666666667,160,106.66666666666667,160,106.66666666666664L160,106.66666666666666"></path><path class="path" d="M133.33333333333331,80L133.3333333333333,88.88888888888887C133.33333333333331,97.77777777777777,133.33333333333331,115.55555555555554,124.44444444444441,124.44444444444441C115.55555555555554,133.33333333333331,97.77777777777777,133.33333333333331,88.88888888888887,133.3333333333333C80,133.33333333333331,80,133.33333333333331,80,133.3333333333333L80,133.33333333333331"></path><path class="path" d="M160,133.33333333333331L160,133.3333333333333C160,133.33333333333331,160,133.33333333333331,155.55555555555554,133.3333333333333C151.11111111111111,133.33333333333331,142.2222222222222,133.33333333333331,137.77777777777774,137.77777777777774C133.33333333333331,142.2222222222222,133.33333333333331,151.11111111111111,133.3333333333333,155.55555555555554L133.33333333333331,160"></path><path class="path" d="M106.66666666666666,160L106.66666666666664,151.11111111111111C106.66666666666667,142.2222222222222,106.66666666666667,124.44444444444444,102.22222222222221,115.55555555555554C97.77777777777777,106.66666666666667,88.88888888888887,106.66666666666667,84.44444444444444,106.66666666666664C80,106.66666666666667,80,106.66666666666667,80,106.66666666666664L80,106.66666666666666"></path><rect class="border" x="80" y="80" width="80" height="80"></rect></g><g><rect class="background background--empty" x="80" y="160" width="80" height="80"></rect><rect class="border" x="80" y="160" width="80" height="80"></rect></g><g><rect class="background background--empty" x="80" y="240" width="80" height="80"></rect><rect class="border" x="80" y="240" width="80" height="80"></rect></g><g><rect class="background background--empty" x="80" y="320" width="80" height="80"></rect><rect class="border" x="80" y="320" width="80" height="80"></rect></g><g><rect class="background background--empty" x="80" y="400" width="80" height="80"></rect><rect class="border" x="80" y="400" width="80" height="80"></rect></g><g><rect class="background background--empty" x="80" y="480" width="80" height="80"></rect><rect class="border" x="80" y="480" width="80" height="80"></rect></g><g><rect class="background background--empty" x="80" y="560" width="80" height="80"></rect><rect class="border" x="80" y="560" width="80" height="80"></rect></g><g><rect class="background background--empty" x="80" y="640" width="80" height="80"></rect><rect class="border" x="80" y="640" width="80" height="80"></rect></g><g><rect class="background background--empty" x="80" y="720" width="80" height="80"></rect><rect class="border" x="80" y="720" width="80" height="80"></rect></g><g><rect class="background" x="160" y="0" width="80" height="80"></rect><path class="path__shadow" d="M186.66666666666666,0L186.66666666666666,3.3333333333333335C186.66666666666666,6.666666666666667,186.66666666666666,13.333333333333334,191.1111111111111,23.333333333333332C195.55555555555554,33.333333333333336,204.44444444444443,46.666666666666664,208.88888888888889,56.666666666666664C213.33333333333334,66.66666666666667,213.33333333333334,73.33333333333333,213.3333333333333,76.66666666666667L213.33333333333331,80"></path><path class="path__shadow" d="M213.33333333333331,0L213.3333333333333,4.444444444444444C213.33333333333334,8.888888888888888,213.33333333333334,17.777777777777775,217.77777777777774,22.222222222222218C222.2222222222222,26.666666666666668,231.1111111111111,26.666666666666668,235.55555555555554,26.66666666666666C240,26.666666666666668,240,26.666666666666668,240,26.66666666666666L240,26.666666666666664"></path><path class="path__shadow" d="M240,53.33333333333333L236.66666666666666,53.33333333333332C233.33333333333334,53.333333333333336,226.66666666666666,53.333333333333336,216.66666666666666,48.888888888888886C206.66666666666666,44.444444444444436,193.33333333333334,35.55555555555555,183.33333333333334,31.11111111111111C173.33333333333334,26.666666666666668,166.66666666666666,26.666666666666668,163.33333333333334,26.66666666666666L160,26.666666666666664"></path><path class="path__shadow" d="M186.66666666666666,80L186.66666666666666,75.55555555555556C186.66666666666666,71.1111111111111,186.66666666666666,62.22222222222222,182.2222222222222,57.77777777777777C177.77777777777774,53.333333333333336,168.88888888888889,53.333333333333336,164.44444444444443,53.33333333333332C160,53.333333333333336,160,53.333333333333336,160,53.33333333333332L160,53.33333333333333"></path><path class="path" d="M186.66666666666666,0L186.66666666666666,3.3333333333333335C186.66666666666666,6.666666666666667,186.66666666666666,13.333333333333334,191.1111111111111,23.333333333333332C195.55555555555554,33.333333333333336,204.44444444444443,46.666666666666664,208.88888888888889,56.666666666666664C213.33333333333334,66.66666666666667,213.33333333333334,73.33333333333333,213.3333333333333,76.66666666666667L213.33333333333331,80"></path><path class="path" d="M213.33333333333331,0L213.3333333333333,4.444444444444444C213.33333333333334,8.888888888888888,213.33333333333334,17.777777777777775,217.77777777777774,22.222222222222218C222.2222222222222,26.666666666666668,231.1111111111111,26.666666666666668,235.55555555555554,26.66666666666666C240,26.666666666666668,240,26.666666666666668,240,26.66666666666666L240,26.666666666666664"></path><path class="path" d="M240,53.33333333333333L236.66666666666666,53.33333333333332C233.33333333333334,53.333333333333336,226.66666666666666,53.333333333333336,216.66666666666666,48.888888888888886C206.66666666666666,44.444444444444436,193.33333333333334,35.55555555555555,183.33333333333334,31.11111111111111C173.33333333333334,26.666666666666668,166.66666666666666,26.666666666666668,163.33333333333334,26.66666666666666L160,26.666666666666664"></path><path class="path" d="M186.66666666666666,80L186.66666666666666,75.55555555555556C186.66666666666666,71.1111111111111,186.66666666666666,62.22222222222222,182.2222222222222,57.77777777777777C177.77777777777774,53.333333333333336,168.88888888888889,53.333333333333336,164.44444444444443,53.33333333333332C160,53.333333333333336,160,53.333333333333336,160,53.33333333333332L160,53.33333333333333"></path><rect class="border" x="160" y="0" width="80" height="80"></rect></g><g><rect class="background" x="160" y="80" width="80" height="80"></rect><path class="path__shadow" d="M186.66666666666666,80L186.66666666666666,88.88888888888887C186.66666666666666,97.77777777777777,186.66666666666666,115.55555555555554,195.55555555555554,124.44444444444441C204.44444444444443,133.33333333333331,222.2222222222222,133.33333333333331,231.11111111111111,133.3333333333333C240,133.33333333333331,240,133.33333333333331,240,133.3333333333333L240,133.33333333333331"></path><path class="path__shadow" d="M213.33333333333331,80L213.3333333333333,84.44444444444444C213.33333333333334,88.88888888888887,213.33333333333334,97.77777777777777,217.77777777777774,102.22222222222221C222.2222222222222,106.66666666666667,231.1111111111111,106.66666666666667,235.55555555555554,106.66666666666664C240,106.66666666666667,240,106.66666666666667,240,106.66666666666664L240,106.66666666666666"></path><path class="path__shadow" d="M213.33333333333331,160L213.3333333333333,151.11111111111111C213.33333333333334,142.2222222222222,213.33333333333334,124.44444444444444,204.44444444444443,115.55555555555554C195.55555555555554,106.66666666666667,177.77777777777774,106.66666666666667,168.88888888888889,106.66666666666664C160,106.66666666666667,160,106.66666666666667,160,106.66666666666664L160,106.66666666666666"></path><path class="path__shadow" d="M186.66666666666666,160L186.66666666666666,155.55555555555554C186.66666666666666,151.11111111111111,186.66666666666666,142.2222222222222,182.2222222222222,137.77777777777774C177.77777777777774,133.33333333333331,168.88888888888889,133.33333333333331,164.44444444444443,133.3333333333333C160,133.33333333333331,160,133.33333333333331,160,133.3333333333333L160,133.33333333333331"></path><path class="path" d="M186.66666666666666,80L186.66666666666666,88.88888888888887C186.66666666666666,97.77777777777777,186.66666666666666,115.55555555555554,195.55555555555554,124.44444444444441C204.44444444444443,133.33333333333331,222.2222222222222,133.33333333333331,231.11111111111111,133.3333333333333C240,133.33333333333331,240,133.33333333333331,240,133.3333333333333L240,133.33333333333331"></path><path class="path" d="M213.33333333333331,80L213.3333333333333,84.44444444444444C213.33333333333334,88.88888888888887,213.33333333333334,97.77777777777777,217.77777777777774,102.22222222222221C222.2222222222222,106.66666666666667,231.1111111111111,106.66666666666667,235.55555555555554,106.66666666666664C240,106.66666666666667,240,106.66666666666667,240,106.66666666666664L240,106.66666666666666"></path><path class="path" d="M213.33333333333331,160L213.3333333333333,151.11111111111111C213.33333333333334,142.2222222222222,213.33333333333334,124.44444444444444,204.44444444444443,115.55555555555554C195.55555555555554,106.66666666666667,177.77777777777774,106.66666666666667,168.88888888888889,106.66666666666664C160,106.66666666666667,160,106.66666666666667,160,106.66666666666664L160,106.66666666666666"></path><path class="path" d="M186.66666666666666,160L186.66666666666666,155.55555555555554C186.66666666666666,151.11111111111111,186.66666666666666,142.2222222222222,182.2222222222222,137.77777777777774C177.77777777777774,133.33333333333331,168.88888888888889,133.33333333333331,164.44444444444443,133.3333333333333C160,133.33333333333331,160,133.33333333333331,160,133.3333333333333L160,133.33333333333331"></path><rect class="border" x="160" y="80" width="80" height="80"></rect></g><g><rect class="background background--empty" x="160" y="160" width="80" height="80"></rect><rect class="border" x="160" y="160" width="80" height="80"></rect></g><g><rect class="background background--empty" x="160" y="240" width="80" height="80"></rect><rect class="border" x="160" y="240" width="80" height="80"></rect></g><g><rect class="background background--empty" x="160" y="320" width="80" height="80"></rect><rect class="border" x="160" y="320" width="80" height="80"></rect></g><g><rect class="background background--empty" x="160" y="400" width="80" height="80"></rect><rect class="border" x="160" y="400" width="80" height="80"></rect></g><g><rect class="background background--empty" x="160" y="480" width="80" height="80"></rect><rect class="border" x="160" y="480" width="80" height="80"></rect></g><g><rect class="background background--empty" x="160" y="560" width="80" height="80"></rect><rect class="border" x="160" y="560" width="80" height="80"></rect></g><g><rect class="background background--empty" x="160" y="640" width="80" height="80"></rect><rect class="border" x="160" y="640" width="80" height="80"></rect></g><g><rect class="background background--empty" x="160" y="720" width="80" height="80"></rect><rect class="border" x="160" y="720" width="80" height="80"></rect></g><g><rect class="background" x="240" y="0" width="80" height="80"></rect><path class="path__shadow" d="M266.6666666666667,0L266.6666666666667,3.3333333333333335C266.6666666666667,6.666666666666667,266.6666666666667,13.333333333333334,271.11111111111114,16.666666666666668C275.5555555555556,20,284.4444444444444,20,288.88888888888886,16.666666666666668C293.3333333333333,13.333333333333334,293.3333333333333,6.666666666666667,293.3333333333333,3.3333333333333335L293.3333333333333,0"></path><path class="path__shadow" d="M320,26.666666666666664L316.6666666666667,26.66666666666666C313.3333333333333,26.666666666666668,306.6666666666667,26.666666666666668,296.6666666666667,31.111111111111104C286.6666666666667,35.55555555555555,273.3333333333333,44.444444444444436,263.3333333333333,48.888888888888886C253.33333333333334,53.333333333333336,246.66666666666666,53.333333333333336,243.33333333333334,53.33333333333332L240,53.33333333333333"></path><path class="path__shadow" d="M320,53.33333333333333L320,53.33333333333332C320,53.333333333333336,320,53.333333333333336,315.55555555555554,53.33333333333332C311.1111111111111,53.333333333333336,302.22222222222223,53.333333333333336,297.77777777777777,57.77777777777777C293.3333333333333,62.22222222222222,293.3333333333333,71.1111111111111,293.3333333333333,75.55555555555556L293.3333333333333,80"></path><path class="path__shadow" d="M266.6666666666667,80L266.6666666666667,71.11111111111111C266.6666666666667,62.22222222222222,266.6666666666667,44.444444444444436,262.22222222222223,35.55555555555555C257.77777777777777,26.666666666666668,248.8888888888889,26.666666666666668,244.44444444444446,26.66666666666666C240,26.666666666666668,240,26.666666666666668,240,26.66666666666666L240,26.666666666666664"></path><path class="path" d="M266.6666666666667,0L266.6666666666667,3.3333333333333335C266.6666666666667,6.666666666666667,266.6666666666667,13.333333333333334,271.11111111111114,16.666666666666668C275.5555555555556,20,284.4444444444444,20,288.88888888888886,16.666666666666668C293.3333333333333,13.333333333333334,293.3333333333333,6.666666666666667,293.3333333333333,3.3333333333333335L293.3333333333333,0"></path><path class="path" d="M320,26.666666666666664L316.6666666666667,26.66666666666666C313.3333333333333,26.666666666666668,306.6666666666667,26.666666666666668,296.6666666666667,31.111111111111104C286.6666666666667,35.55555555555555,273.3333333333333,44.444444444444436,263.3333333333333,48.888888888888886C253.33333333333334,53.333333333333336,246.66666666666666,53.333333333333336,243.33333333333334,53.33333333333332L240,53.33333333333333"></path><path class="path" d="M320,53.33333333333333L320,53.33333333333332C320,53.333333333333336,320,53.333333333333336,315.55555555555554,53.33333333333332C311.1111111111111,53.333333333333336,302.22222222222223,53.333333333333336,297.77777777777777,57.77777777777777C293.3333333333333,62.22222222222222,293.3333333333333,71.1111111111111,293.3333333333333,75.55555555555556L293.3333333333333,80"></path><path class="path" d="M266.6666666666667,80L266.6666666666667,71.11111111111111C266.6666666666667,62.22222222222222,266.6666666666667,44.444444444444436,262.22222222222223,35.55555555555555C257.77777777777777,26.666666666666668,248.8888888888889,26.666666666666668,244.44444444444446,26.66666666666666C240,26.666666666666668,240,26.666666666666668,240,26.66666666666666L240,26.666666666666664"></path><rect class="border" x="240" y="0" width="80" height="80"></rect></g><g><rect class="background" x="240" y="80" width="80" height="80"></rect><path class="path__shadow" d="M266.6666666666667,80L266.6666666666667,84.44444444444444C266.6666666666667,88.88888888888887,266.6666666666667,97.77777777777777,275.5555555555556,102.22222222222221C284.44444444444446,106.66666666666667,302.22222222222223,106.66666666666667,311.11111111111114,106.66666666666664C320,106.66666666666667,320,106.66666666666667,320,106.66666666666664L320,106.66666666666666"></path><path class="path__shadow" d="M293.3333333333333,80L293.3333333333333,83.33333333333333C293.3333333333333,86.66666666666667,293.3333333333333,93.33333333333333,288.88888888888886,103.33333333333333C284.4444444444444,113.33333333333333,275.5555555555556,126.66666666666667,271.11111111111114,136.66666666666666C266.6666666666667,146.66666666666666,266.6666666666667,153.33333333333334,266.6666666666667,156.66666666666666L266.6666666666667,160"></path><path class="path__shadow" d="M320,133.33333333333331L316.6666666666667,133.3333333333333C313.3333333333333,133.33333333333331,306.6666666666667,133.33333333333331,296.6666666666667,133.3333333333333C286.6666666666667,133.33333333333331,273.3333333333333,133.33333333333331,263.3333333333333,133.3333333333333C253.33333333333334,133.33333333333331,246.66666666666666,133.33333333333331,243.33333333333334,133.3333333333333L240,133.33333333333331"></path><path class="path__shadow" d="M293.3333333333333,160L293.3333333333333,151.11111111111111C293.3333333333333,142.2222222222222,293.3333333333333,124.44444444444444,284.4444444444444,115.55555555555554C275.55555555555554,106.66666666666667,257.77777777777777,106.66666666666667,248.88888888888889,106.66666666666664C240,106.66666666666667,240,106.66666666666667,240,106.66666666666664L240,106.66666666666666"></path><path class="path" d="M266.6666666666667,80L266.6666666666667,84.44444444444444C266.6666666666667,88.88888888888887,266.6666666666667,97.77777777777777,275.5555555555556,102.22222222222221C284.44444444444446,106.66666666666667,302.22222222222223,106.66666666666667,311.11111111111114,106.66666666666664C320,106.66666666666667,320,106.66666666666667,320,106.66666666666664L320,106.66666666666666"></path><path class="path" d="M293.3333333333333,80L293.3333333333333,83.33333333333333C293.3333333333333,86.66666666666667,293.3333333333333,93.33333333333333,288.88888888888886,103.33333333333333C284.4444444444444,113.33333333333333,275.5555555555556,126.66666666666667,271.11111111111114,136.66666666666666C266.6666666666667,146.66666666666666,266.6666666666667,153.33333333333334,266.6666666666667,156.66666666666666L266.6666666666667,160"></path><path class="path" d="M320,133.33333333333331L316.6666666666667,133.3333333333333C313.3333333333333,133.33333333333331,306.6666666666667,133.33333333333331,296.6666666666667,133.3333333333333C286.6666666666667,133.33333333333331,273.3333333333333,133.33333333333331,263.3333333333333,133.3333333333333C253.33333333333334,133.33333333333331,246.66666666666666,133.33333333333331,243.33333333333334,133.3333333333333L240,133.33333333333331"></path><path class="path" d="M293.3333333333333,160L293.3333333333333,151.11111111111111C293.3333333333333,142.2222222222222,293.3333333333333,124.44444444444444,284.4444444444444,115.55555555555554C275.55555555555554,106.66666666666667,257.77777777777777,106.66666666666667,248.88888888888889,106.66666666666664C240,106.66666666666667,240,106.66666666666667,240,106.66666666666664L240,106.66666666666666"></path><rect class="border" x="240" y="80" width="80" height="80"></rect></g><g><rect class="background" x="240" y="160" width="80" height="80"></rect><path class="path__shadow" d="M266.6666666666667,160L266.6666666666667,163.33333333333334C266.6666666666667,166.66666666666666,266.6666666666667,173.33333333333334,271.11111111111114,176.66666666666666C275.5555555555556,180,284.4444444444444,180,288.88888888888886,176.66666666666666C293.3333333333333,173.33333333333334,293.3333333333333,166.66666666666666,293.3333333333333,163.33333333333334L293.3333333333333,160"></path><path class="path__shadow" d="M320,186.66666666666666L316.6666666666667,186.66666666666666C313.3333333333333,186.66666666666666,306.6666666666667,186.66666666666666,296.6666666666667,186.66666666666666C286.6666666666667,186.66666666666666,273.3333333333333,186.66666666666666,263.3333333333333,186.66666666666666C253.33333333333334,186.66666666666666,246.66666666666666,186.66666666666666,243.33333333333334,186.66666666666666L240,186.66666666666666"></path><path class="path__shadow" d="M320,213.33333333333331L320,213.3333333333333C320,213.33333333333334,320,213.33333333333334,311.11111111111114,213.3333333333333C302.22222222222223,213.33333333333334,284.44444444444446,213.33333333333334,275.5555555555556,217.77777777777774C266.6666666666667,222.2222222222222,266.6666666666667,231.1111111111111,266.6666666666667,235.55555555555554L266.6666666666667,240"></path><path class="path__shadow" d="M293.3333333333333,240L293.3333333333333,235.55555555555554C293.3333333333333,231.1111111111111,293.3333333333333,222.2222222222222,284.4444444444444,217.77777777777774C275.55555555555554,213.33333333333334,257.77777777777777,213.33333333333334,248.88888888888889,213.3333333333333C240,213.33333333333334,240,213.33333333333334,240,213.3333333333333L240,213.33333333333331"></path><path class="path" d="M266.6666666666667,160L266.6666666666667,163.33333333333334C266.6666666666667,166.66666666666666,266.6666666666667,173.33333333333334,271.11111111111114,176.66666666666666C275.5555555555556,180,284.4444444444444,180,288.88888888888886,176.66666666666666C293.3333333333333,173.33333333333334,293.3333333333333,166.66666666666666,293.3333333333333,163.33333333333334L293.3333333333333,160"></path><path class="path" d="M320,186.66666666666666L316.6666666666667,186.66666666666666C313.3333333333333,186.66666666666666,306.6666666666667,186.66666666666666,296.6666666666667,186.66666666666666C286.6666666666667,186.66666666666666,273.3333333333333,186.66666666666666,263.3333333333333,186.66666666666666C253.33333333333334,186.66666666666666,246.66666666666666,186.66666666666666,243.33333333333334,186.66666666666666L240,186.66666666666666"></path><path class="path" d="M320,213.33333333333331L320,213.3333333333333C320,213.33333333333334,320,213.33333333333334,311.11111111111114,213.3333333333333C302.22222222222223,213.33333333333334,284.44444444444446,213.33333333333334,275.5555555555556,217.77777777777774C266.6666666666667,222.2222222222222,266.6666666666667,231.1111111111111,266.6666666666667,235.55555555555554L266.6666666666667,240"></path><path class="path" d="M293.3333333333333,240L293.3333333333333,235.55555555555554C293.3333333333333,231.1111111111111,293.3333333333333,222.2222222222222,284.4444444444444,217.77777777777774C275.55555555555554,213.33333333333334,257.77777777777777,213.33333333333334,248.88888888888889,213.3333333333333C240,213.33333333333334,240,213.33333333333334,240,213.3333333333333L240,213.33333333333331"></path><rect class="border" x="240" y="160" width="80" height="80"></rect></g><g><rect class="background background--empty" x="240" y="240" width="80" height="80"></rect><rect class="border" x="240" y="240" width="80" height="80"></rect></g><g><rect class="background background--empty" x="240" y="320" width="80" height="80"></rect><rect class="border" x="240" y="320" width="80" height="80"></rect></g><g><rect class="background background--empty" x="240" y="400" width="80" height="80"></rect><rect class="border" x="240" y="400" width="80" height="80"></rect></g><g><rect class="background background--empty" x="240" y="480" width="80" height="80"></rect><rect class="border" x="240" y="480" width="80" height="80"></rect></g><g><rect class="background background--empty" x="240" y="560" width="80" height="80"></rect><rect class="border" x="240" y="560" width="80" height="80"></rect></g><g><rect class="background background--empty" x="240" y="640" width="80" height="80"></rect><rect class="border" x="240" y="640" width="80" height="80"></rect></g><g><rect class="background background--empty" x="240" y="720" width="80" height="80"></rect><rect class="border" x="240" y="720" width="80" height="80"></rect></g><g><rect class="background" x="320" y="0" width="80" height="80"></rect><path class="path__shadow" d="M346.6666666666667,0L346.6666666666667,8.888888888888888C346.6666666666667,17.777777777777775,346.6666666666667,35.55555555555555,355.5555555555556,44.444444444444436C364.4444444444445,53.333333333333336,382.22222222222223,53.333333333333336,391.11111111111114,53.33333333333332C400,53.333333333333336,400,53.333333333333336,400,53.33333333333332L400,53.33333333333333"></path><path class="path__shadow" d="M373.3333333333333,0L373.3333333333333,3.3333333333333335C373.3333333333333,6.666666666666667,373.3333333333333,13.333333333333334,368.88888888888886,23.333333333333332C364.4444444444444,33.333333333333336,355.5555555555556,46.666666666666664,351.1111111111111,56.666666666666664C346.6666666666667,66.66666666666667,346.6666666666667,73.33333333333333,346.6666666666667,76.66666666666667L346.6666666666667,80"></path><path class="path__shadow" d="M400,26.666666666666664L396.6666666666667,26.66666666666666C393.3333333333333,26.666666666666668,386.6666666666667,26.666666666666668,376.6666666666667,31.111111111111104C366.6666666666667,35.55555555555555,353.3333333333333,44.444444444444436,343.3333333333333,48.888888888888886C333.3333333333333,53.333333333333336,326.6666666666667,53.333333333333336,323.3333333333333,53.33333333333332L320,53.33333333333333"></path><path class="path__shadow" d="M373.3333333333333,80L373.3333333333333,71.11111111111111C373.3333333333333,62.22222222222222,373.3333333333333,44.444444444444436,364.4444444444444,35.55555555555555C355.5555555555555,26.666666666666668,337.77777777777777,26.666666666666668,328.88888888888886,26.66666666666666C320,26.666666666666668,320,26.666666666666668,320,26.66666666666666L320,26.666666666666664"></path><path class="path" d="M346.6666666666667,0L346.6666666666667,8.888888888888888C346.6666666666667,17.777777777777775,346.6666666666667,35.55555555555555,355.5555555555556,44.444444444444436C364.4444444444445,53.333333333333336,382.22222222222223,53.333333333333336,391.11111111111114,53.33333333333332C400,53.333333333333336,400,53.333333333333336,400,53.33333333333332L400,53.33333333333333"></path><path class="path" d="M373.3333333333333,0L373.3333333333333,3.3333333333333335C373.3333333333333,6.666666666666667,373.3333333333333,13.333333333333334,368.88888888888886,23.333333333333332C364.4444444444444,33.333333333333336,355.5555555555556,46.666666666666664,351.1111111111111,56.666666666666664C346.6666666666667,66.66666666666667,346.6666666666667,73.33333333333333,346.6666666666667,76.66666666666667L346.6666666666667,80"></path><path class="path" d="M400,26.666666666666664L396.6666666666667,26.66666666666666C393.3333333333333,26.666666666666668,386.6666666666667,26.666666666666668,376.6666666666667,31.111111111111104C366.6666666666667,35.55555555555555,353.3333333333333,44.444444444444436,343.3333333333333,48.888888888888886C333.3333333333333,53.333333333333336,326.6666666666667,53.333333333333336,323.3333333333333,53.33333333333332L320,53.33333333333333"></path><path class="path" d="M373.3333333333333,80L373.3333333333333,71.11111111111111C373.3333333333333,62.22222222222222,373.3333333333333,44.444444444444436,364.4444444444444,35.55555555555555C355.5555555555555,26.666666666666668,337.77777777777777,26.666666666666668,328.88888888888886,26.66666666666666C320,26.666666666666668,320,26.666666666666668,320,26.66666666666666L320,26.666666666666664"></path><rect class="border" x="320" y="0" width="80" height="80"></rect></g><g><rect class="background background--empty" x="320" y="80" width="80" height="80"></rect><rect class="border" x="320" y="80" width="80" height="80"></rect></g><g><rect class="background background--empty" x="320" y="160" width="80" height="80"></rect><rect class="border" x="320" y="160" width="80" height="80"></rect></g><g><rect class="background background--empty" x="320" y="240" width="80" height="80"></rect><rect class="border" x="320" y="240" width="80" height="80"></rect></g><g><rect class="background background--empty" x="320" y="320" width="80" height="80"></rect><rect class="border" x="320" y="320" width="80" height="80"></rect></g><g><rect class="background background--empty" x="320" y="400" width="80" height="80"></rect><rect class="border" x="320" y="400" width="80" height="80"></rect></g><g><rect class="background background--empty" x="320" y="480" width="80" height="80"></rect><rect class="border" x="320" y="480" width="80" height="80"></rect></g><g><rect class="background background--empty" x="320" y="560" width="80" height="80"></rect><rect class="border" x="320" y="560" width="80" height="80"></rect></g><g><rect class="background background--empty" x="320" y="640" width="80" height="80"></rect><rect class="border" x="320" y="640" width="80" height="80"></rect></g><g><rect class="background background--empty" x="320" y="720" width="80" height="80"></rect><rect class="border" x="320" y="720" width="80" height="80"></rect></g><g><rect class="background" x="400" y="0" width="80" height="80"></rect><path class="path__shadow" d="M426.6666666666667,0L426.6666666666667,4.444444444444444C426.6666666666667,8.888888888888888,426.6666666666667,17.777777777777775,435.5555555555556,22.222222222222218C444.4444444444445,26.666666666666668,462.22222222222223,26.666666666666668,471.1111111111111,26.66666666666666C480,26.666666666666668,480,26.666666666666668,480,26.66666666666666L480,26.666666666666664"></path><path class="path__shadow" d="M453.3333333333333,0L453.3333333333333,4.444444444444444C453.3333333333333,8.888888888888888,453.3333333333333,17.777777777777775,444.4444444444444,22.222222222222218C435.5555555555555,26.666666666666668,417.77777777777777,26.666666666666668,408.8888888888889,26.66666666666666C400,26.666666666666668,400,26.666666666666668,400,26.66666666666666L400,26.666666666666664"></path><path class="path__shadow" d="M480,53.33333333333333L480,53.33333333333332C480,53.333333333333336,480,53.333333333333336,475.5555555555556,53.33333333333332C471.1111111111111,53.333333333333336,462.2222222222222,53.333333333333336,457.77777777777777,57.77777777777777C453.3333333333333,62.22222222222222,453.3333333333333,71.1111111111111,453.3333333333333,75.55555555555556L453.3333333333333,80"></path><path class="path__shadow" d="M426.6666666666667,80L426.6666666666667,75.55555555555556C426.6666666666667,71.1111111111111,426.6666666666667,62.22222222222222,422.22222222222223,57.77777777777777C417.7777777777778,53.333333333333336,408.8888888888889,53.333333333333336,404.4444444444445,53.33333333333332C400,53.333333333333336,400,53.333333333333336,400,53.33333333333332L400,53.33333333333333"></path><path class="path" d="M426.6666666666667,0L426.6666666666667,4.444444444444444C426.6666666666667,8.888888888888888,426.6666666666667,17.777777777777775,435.5555555555556,22.222222222222218C444.4444444444445,26.666666666666668,462.22222222222223,26.666666666666668,471.1111111111111,26.66666666666666C480,26.666666666666668,480,26.666666666666668,480,26.66666666666666L480,26.666666666666664"></path><path class="path" d="M453.3333333333333,0L453.3333333333333,4.444444444444444C453.3333333333333,8.888888888888888,453.3333333333333,17.777777777777775,444.4444444444444,22.222222222222218C435.5555555555555,26.666666666666668,417.77777777777777,26.666666666666668,408.8888888888889,26.66666666666666C400,26.666666666666668,400,26.666666666666668,400,26.66666666666666L400,26.666666666666664"></path><path class="path" d="M480,53.33333333333333L480,53.33333333333332C480,53.333333333333336,480,53.333333333333336,475.5555555555556,53.33333333333332C471.1111111111111,53.333333333333336,462.2222222222222,53.333333333333336,457.77777777777777,57.77777777777777C453.3333333333333,62.22222222222222,453.3333333333333,71.1111111111111,453.3333333333333,75.55555555555556L453.3333333333333,80"></path><path class="path" d="M426.6666666666667,80L426.6666666666667,75.55555555555556C426.6666666666667,71.1111111111111,426.6666666666667,62.22222222222222,422.22222222222223,57.77777777777777C417.7777777777778,53.333333333333336,408.8888888888889,53.333333333333336,404.4444444444445,53.33333333333332C400,53.333333333333336,400,53.333333333333336,400,53.33333333333332L400,53.33333333333333"></path><rect class="border" x="400" y="0" width="80" height="80"></rect></g><g><rect class="background" x="400" y="80" width="80" height="80"></rect><path class="path__shadow" d="M426.6666666666667,80L426.6666666666667,84.44444444444444C426.6666666666667,88.88888888888887,426.6666666666667,97.77777777777777,435.5555555555556,102.22222222222221C444.4444444444445,106.66666666666667,462.22222222222223,106.66666666666667,471.1111111111111,106.66666666666664C480,106.66666666666667,480,106.66666666666667,480,106.66666666666664L480,106.66666666666666"></path><path class="path__shadow" d="M453.3333333333333,80L453.3333333333333,83.33333333333333C453.3333333333333,86.66666666666667,453.3333333333333,93.33333333333333,453.3333333333333,103.33333333333333C453.3333333333333,113.33333333333333,453.3333333333333,126.66666666666667,453.3333333333333,136.66666666666666C453.3333333333333,146.66666666666666,453.3333333333333,153.33333333333334,453.3333333333333,156.66666666666666L453.3333333333333,160"></path><path class="path__shadow" d="M480,133.33333333333331L476.6666666666667,133.3333333333333C473.3333333333333,133.33333333333331,466.6666666666667,133.33333333333331,456.6666666666667,133.3333333333333C446.6666666666667,133.33333333333331,433.3333333333333,133.33333333333331,423.3333333333333,133.3333333333333C413.3333333333333,133.33333333333331,406.6666666666667,133.33333333333331,403.3333333333333,133.3333333333333L400,133.33333333333331"></path><path class="path__shadow" d="M426.6666666666667,160L426.6666666666667,151.11111111111111C426.6666666666667,142.2222222222222,426.6666666666667,124.44444444444444,422.22222222222223,115.55555555555554C417.7777777777778,106.66666666666667,408.8888888888889,106.66666666666667,404.4444444444445,106.66666666666664C400,106.66666666666667,400,106.66666666666667,400,106.66666666666664L400,106.66666666666666"></path><path class="path" d="M426.6666666666667,80L426.6666666666667,84.44444444444444C426.6666666666667,88.88888888888887,426.6666666666667,97.77777777777777,435.5555555555556,102.22222222222221C444.4444444444445,106.66666666666667,462.22222222222223,106.66666666666667,471.1111111111111,106.66666666666664C480,106.66666666666667,480,106.66666666666667,480,106.66666666666664L480,106.66666666666666"></path><path class="path" d="M453.3333333333333,80L453.3333333333333,83.33333333333333C453.3333333333333,86.66666666666667,453.3333333333333,93.33333333333333,453.3333333333333,103.33333333333333C453.3333333333333,113.33333333333333,453.3333333333333,126.66666666666667,453.3333333333333,136.66666666666666C453.3333333333333,146.66666666666666,453.3333333333333,153.33333333333334,453.3333333333333,156.66666666666666L453.3333333333333,160"></path><path class="path" d="M480,133.33333333333331L476.6666666666667,133.3333333333333C473.3333333333333,133.33333333333331,466.6666666666667,133.33333333333331,456.6666666666667,133.3333333333333C446.6666666666667,133.33333333333331,433.3333333333333,133.33333333333331,423.3333333333333,133.3333333333333C413.3333333333333,133.33333333333331,406.6666666666667,133.33333333333331,403.3333333333333,133.3333333333333L400,133.33333333333331"></path><path class="path" d="M426.6666666666667,160L426.6666666666667,151.11111111111111C426.6666666666667,142.2222222222222,426.6666666666667,124.44444444444444,422.22222222222223,115.55555555555554C417.7777777777778,106.66666666666667,408.8888888888889,106.66666666666667,404.4444444444445,106.66666666666664C400,106.66666666666667,400,106.66666666666667,400,106.66666666666664L400,106.66666666666666"></path><rect class="border" x="400" y="80" width="80" height="80"></rect></g><g><rect class="background background--empty" x="400" y="160" width="80" height="80"></rect><rect class="border" x="400" y="160" width="80" height="80"></rect></g><g><rect class="background background--empty" x="400" y="240" width="80" height="80"></rect><rect class="border" x="400" y="240" width="80" height="80"></rect></g><g><rect class="background background--empty" x="400" y="320" width="80" height="80"></rect><rect class="border" x="400" y="320" width="80" height="80"></rect></g><g><rect class="background background--empty" x="400" y="400" width="80" height="80"></rect><rect class="border" x="400" y="400" width="80" height="80"></rect></g><g><rect class="background background--empty" x="400" y="480" width="80" height="80"></rect><rect class="border" x="400" y="480" width="80" height="80"></rect></g><g><rect class="background background--empty" x="400" y="560" width="80" height="80"></rect><rect class="border" x="400" y="560" width="80" height="80"></rect></g><g><rect class="background background--empty" x="400" y="640" width="80" height="80"></rect><rect class="border" x="400" y="640" width="80" height="80"></rect></g><g><rect class="background background--empty" x="400" y="720" width="80" height="80"></rect><rect class="border" x="400" y="720" width="80" height="80"></rect></g><g><rect class="background background--empty" x="480" y="0" width="80" height="80"></rect><rect class="border" x="480" y="0" width="80" height="80"></rect></g><g><rect class="background" x="480" y="80" width="80" height="80"></rect><path class="path__shadow" d="M506.6666666666667,80L506.6666666666667,83.33333333333333C506.6666666666667,86.66666666666667,506.6666666666667,93.33333333333333,511.11111111111114,96.66666666666667C515.5555555555555,100,524.4444444444445,100,528.8888888888889,96.66666666666667C533.3333333333334,93.33333333333333,533.3333333333334,86.66666666666667,533.3333333333334,83.33333333333333L533.3333333333334,80"></path><path class="path__shadow" d="M560,106.66666666666666L556.6666666666666,106.66666666666664C553.3333333333334,106.66666666666667,546.6666666666666,106.66666666666667,536.6666666666666,111.11111111111109C526.6666666666666,115.55555555555554,513.3333333333334,124.44444444444441,503.3333333333333,128.88888888888889C493.3333333333333,133.33333333333331,486.6666666666667,133.33333333333331,483.3333333333333,133.3333333333333L480,133.33333333333331"></path><path class="path__shadow" d="M560,133.33333333333331L556.6666666666666,133.3333333333333C553.3333333333334,133.33333333333331,546.6666666666666,133.33333333333331,536.6666666666666,128.88888888888886C526.6666666666666,124.44444444444441,513.3333333333334,115.55555555555554,503.3333333333333,111.1111111111111C493.3333333333333,106.66666666666667,486.6666666666667,106.66666666666667,483.3333333333333,106.66666666666664L480,106.66666666666666"></path><path class="path__shadow" d="M533.3333333333334,160L533.3333333333334,156.66666666666666C533.3333333333334,153.33333333333334,533.3333333333334,146.66666666666666,528.8888888888889,143.33333333333334C524.4444444444445,140,515.5555555555555,140,511.1111111111111,143.33333333333334C506.6666666666667,146.66666666666666,506.6666666666667,153.33333333333334,506.6666666666667,156.66666666666666L506.6666666666667,160"></path><path class="path" d="M506.6666666666667,80L506.6666666666667,83.33333333333333C506.6666666666667,86.66666666666667,506.6666666666667,93.33333333333333,511.11111111111114,96.66666666666667C515.5555555555555,100,524.4444444444445,100,528.8888888888889,96.66666666666667C533.3333333333334,93.33333333333333,533.3333333333334,86.66666666666667,533.3333333333334,83.33333333333333L533.3333333333334,80"></path><path class="path" d="M560,106.66666666666666L556.6666666666666,106.66666666666664C553.3333333333334,106.66666666666667,546.6666666666666,106.66666666666667,536.6666666666666,111.11111111111109C526.6666666666666,115.55555555555554,513.3333333333334,124.44444444444441,503.3333333333333,128.88888888888889C493.3333333333333,133.33333333333331,486.6666666666667,133.33333333333331,483.3333333333333,133.3333333333333L480,133.33333333333331"></path><path class="path" d="M560,133.33333333333331L556.6666666666666,133.3333333333333C553.3333333333334,133.33333333333331,546.6666666666666,133.33333333333331,536.6666666666666,128.88888888888886C526.6666666666666,124.44444444444441,513.3333333333334,115.55555555555554,503.3333333333333,111.1111111111111C493.3333333333333,106.66666666666667,486.6666666666667,106.66666666666667,483.3333333333333,106.66666666666664L480,106.66666666666666"></path><path class="path" d="M533.3333333333334,160L533.3333333333334,156.66666666666666C533.3333333333334,153.33333333333334,533.3333333333334,146.66666666666666,528.8888888888889,143.33333333333334C524.4444444444445,140,515.5555555555555,140,511.1111111111111,143.33333333333334C506.6666666666667,146.66666666666666,506.6666666666667,153.33333333333334,506.6666666666667,156.66666666666666L506.6666666666667,160"></path><rect class="border" x="480" y="80" width="80" height="80"></rect></g><g><rect class="background background--empty" x="480" y="160" width="80" height="80"></rect><rect class="border" x="480" y="160" width="80" height="80"></rect></g><g><rect class="background background--empty" x="480" y="240" width="80" height="80"></rect><rect class="border" x="480" y="240" width="80" height="80"></rect></g><g><rect class="background background--empty" x="480" y="320" width="80" height="80"></rect><rect class="border" x="480" y="320" width="80" height="80"></rect></g><g><rect class="background background--empty" x="480" y="400" width="80" height="80"></rect><rect class="border" x="480" y="400" width="80" height="80"></rect></g><g><rect class="background background--empty" x="480" y="480" width="80" height="80"></rect><rect class="border" x="480" y="480" width="80" height="80"></rect></g><g><rect class="background background--empty" x="480" y="560" width="80" height="80"></rect><rect class="border" x="480" y="560" width="80" height="80"></rect></g><g><rect class="background background--empty" x="480" y="640" width="80" height="80"></rect><rect class="border" x="480" y="640" width="80" height="80"></rect></g><g><rect class="background background--empty" x="480" y="720" width="80" height="80"></rect><rect class="border" x="480" y="720" width="80" height="80"></rect></g><g><rect class="background background--empty" x="560" y="0" width="80" height="80"></rect><rect class="border" x="560" y="0" width="80" height="80"></rect></g><g><rect class="background background--empty" x="560" y="80" width="80" height="80"></rect><rect class="border" x="560" y="80" width="80" height="80"></rect></g><g><rect class="background background--empty" x="560" y="160" width="80" height="80"></rect><rect class="border" x="560" y="160" width="80" height="80"></rect></g><g><rect class="background background--empty" x="560" y="240" width="80" height="80"></rect><rect class="border" x="560" y="240" width="80" height="80"></rect></g><g><rect class="background background--empty" x="560" y="320" width="80" height="80"></rect><rect class="border" x="560" y="320" width="80" height="80"></rect></g><g><rect class="background background--empty" x="560" y="400" width="80" height="80"></rect><rect class="border" x="560" y="400" width="80" height="80"></rect></g><g><rect class="background background--empty" x="560" y="480" width="80" height="80"></rect><rect class="border" x="560" y="480" width="80" height="80"></rect></g><g><rect class="background background--empty" x="560" y="560" width="80" height="80"></rect><rect class="border" x="560" y="560" width="80" height="80"></rect></g><g><rect class="background background--empty" x="560" y="640" width="80" height="80"></rect><rect class="border" x="560" y="640" width="80" height="80"></rect></g><g><rect class="background background--empty" x="560" y="720" width="80" height="80"></rect><rect class="border" x="560" y="720" width="80" height="80"></rect></g><g><rect class="background background--empty" x="640" y="0" width="80" height="80"></rect><rect class="border" x="640" y="0" width="80" height="80"></rect></g><g><rect class="background background--empty" x="640" y="80" width="80" height="80"></rect><rect class="border" x="640" y="80" width="80" height="80"></rect></g><g><rect class="background background--empty" x="640" y="160" width="80" height="80"></rect><rect class="border" x="640" y="160" width="80" height="80"></rect></g><g><rect class="background background--empty" x="640" y="240" width="80" height="80"></rect><rect class="border" x="640" y="240" width="80" height="80"></rect></g><g><rect class="background background--empty" x="640" y="320" width="80" height="80"></rect><rect class="border" x="640" y="320" width="80" height="80"></rect></g><g><rect class="background background--empty" x="640" y="400" width="80" height="80"></rect><rect class="border" x="640" y="400" width="80" height="80"></rect></g><g><rect class="background background--empty" x="640" y="480" width="80" height="80"></rect><rect class="border" x="640" y="480" width="80" height="80"></rect></g><g><rect class="background background--empty" x="640" y="560" width="80" height="80"></rect><rect class="border" x="640" y="560" width="80" height="80"></rect></g><g><rect class="background background--empty" x="640" y="640" width="80" height="80"></rect><rect class="border" x="640" y="640" width="80" height="80"></rect></g><g><rect class="background background--empty" x="640" y="720" width="80" height="80"></rect><rect class="border" x="640" y="720" width="80" height="80"></rect></g><g><rect class="background background--empty" x="720" y="0" width="80" height="80"></rect><rect class="border" x="720" y="0" width="80" height="80"></rect></g><g><rect class="background background--empty" x="720" y="80" width="80" height="80"></rect><rect class="border" x="720" y="80" width="80" height="80"></rect></g><g><rect class="background background--empty" x="720" y="160" width="80" height="80"></rect><rect class="border" x="720" y="160" width="80" height="80"></rect></g><g><rect class="background background--empty" x="720" y="240" width="80" height="80"></rect><rect class="border" x="720" y="240" width="80" height="80"></rect></g><g><rect class="background background--empty" x="720" y="320" width="80" height="80"></rect><rect class="border" x="720" y="320" width="80" height="80"></rect></g><g><rect class="background background--empty" x="720" y="400" width="80" height="80"></rect><rect class="border" x="720" y="400" width="80" height="80"></rect></g><g><rect class="background background--empty" x="720" y="480" width="80" height="80"></rect><rect class="border" x="720" y="480" width="80" height="80"></rect></g><g><rect class="background background--empty" x="720" y="560" width="80" height="80"></rect><rect class="border" x="720" y="560" width="80" height="80"></rect></g><g><rect class="background background--empty" x="720" y="640" width="80" height="80"></rect><rect class="border" x="720" y="640" width="80" height="80"></rect></g><g><rect class="background background--empty" x="720" y="720" width="80" height="80"></rect><rect class="border" x="720" y="720" width="80" height="80"></rect></g><g><g class="dead"><circle class="avatar__shadow" cx="0" cy="53.33333333333333" r="8"></circle><circle class="avatar" fill="white" cx="0" cy="53.33333333333333" r="5.6000000000000005"></circle></g><g class="dead"><circle class="avatar__shadow" cx="453.3333333333333" cy="0" r="8"></circle><circle class="avatar" fill="black" cx="453.3333333333333" cy="0" r="5.6000000000000005"></circle></g><g class=""><circle class="avatar__shadow" cx="560" cy="133.33333333333331" r="8"></circle><circle class="avatar" fill="red" cx="560" cy="133.33333333333331" r="5.6000000000000005"></circle></g></g></svg>