<svg xmlns="http://www.w3.org/2000/svg" width="800" height="800"><defs><style type="text/css"><![CDATA[ 
  .background, .port {
    stroke: #000000;
    stroke-width: 1;
  }

  .background {
    fill: #eeeeee;
  }

  .port {
    fill: #ffffff;
  }

  .path {
    fill: none;
    stroke: #000000;
    stroke-width: 3;
  }
 ]]></style></defs><g><rect class="background" x="0" y="0" width="80" height="80"></rect><path class="path" d="M26.666666666666664,0L26.66666666666666,3.3333333333333335C26.666666666666668,6.666666666666667,26.666666666666668,13.333333333333334,26.66666666666666,23.333333333333332C26.666666666666668,33.333333333333336,26.666666666666668,46.666666666666664,26.66666666666666,56.666666666666664C26.666666666666668,66.66666666666667,26.666666666666668,73.33333333333333,26.66666666666666,76.66666666666667L26.666666666666664,80"></path><path class="path" d="M53.33333333333333,0L53.33333333333332,3.3333333333333335C53.333333333333336,6.666666666666667,53.333333333333336,13.333333333333334,53.33333333333332,23.333333333333332C53.333333333333336,33.333333333333336,53.333333333333336,46.666666666666664,53.33333333333332,56.666666666666664C53.333333333333336,66.66666666666667,53.333333333333336,73.33333333333333,53.33333333333332,76.66666666666667L53.33333333333333,80"></path><path class="path" d="M80,26.666666666666664L76.66666666666667,26.66666666666666C73.33333333333333,26.666666666666668,66.66666666666667,26.666666666666668,56.666666666666664,26.66666666666666C46.666666666666664,26.666666666666668,33.333333333333336,26.666666666666668,23.333333333333332,26.66666666666666C13.333333333333334,26.666666666666668,6.666666666666667,26.666666666666668,3.3333333333333335,26.66666666666666L0,26.666666666666664"></path><path class="path" d="M80,53.33333333333333L76.66666666666667,53.33333333333332C73.33333333333333,53.333333333333336,66.66666666666667,53.333333333333336,56.666666666666664,53.33333333333332C46.666666666666664,53.333333333333336,33.333333333333336,53.333333333333336,23.333333333333332,53.33333333333332C13.333333333333334,53.333333333333336,6.666666666666667,53.333333333333336,3.3333333333333335,53.33333333333332L0,53.33333333333333"></path><circle class="port" cx="26.666666666666664" cy="0" r="2"></circle><circle class="port" cx="53.33333333333333" cy="0" r="2"></circle><circle class="port" cx="80" cy="26.666666666666664" r="2"></circle><circle class="port" cx="80" cy="53.33333333333333" r="2"></circle><circle class="port" cx="53.33333333333333" cy="80" r="2"></circle><circle class="port" cx="26.666666666666664" cy="80" r="2"></circle><circle class="port" cx="0" cy="53.33333333333333" r="2"></circle><circle class="port" cx="0" cy="26.666666666666664" r="2"></circle></g><g><rect class="background" x="0" y="80" width="80" height="80"></rect><path class="path" d="M26.666666666666664,80L26.66666666666666,84.44444444444444C26.666666666666668,88.88888888888887,26.666666666666668,97.77777777777777,35.55555555555555,102.22222222222221C44.444444444444436,106.66666666666667,62.22222222222222,106.66666666666667,71.11111111111111,106.66666666666664C80,106.66666666666667,80,106.66666666666667,80,106.66666666666664L80,106.66666666666666"></path><path class="path" d="M53.33333333333333,80L53.33333333333332,88.88888888888887C53.333333333333336,97.77777777777777,53.333333333333336,115.55555555555554,44.444444444444436,124.44444444444441C35.55555555555555,133.33333333333331,17.777777777777775,133.33333333333331,8.888888888888888,133.3333333333333C0,133.33333333333331,0,133.33333333333331,0,133.3333333333333L0,133.33333333333331"></path><path class="path" d="M80,133.33333333333331L80,133.3333333333333C80,133.33333333333331,80,133.33333333333331,75.55555555555556,133.3333333333333C71.1111111111111,133.33333333333331,62.22222222222222,133.33333333333331,57.77777777777777,137.77777777777774C53.333333333333336,142.2222222222222,53.333333333333336,151.11111111111111,53.33333333333332,155.55555555555554L53.33333333333333,160"></path><path class="path" d="M26.666666666666664,160L26.66666666666666,151.11111111111111C26.666666666666668,142.2222222222222,26.666666666666668,124.44444444444444,22.222222222222218,115.55555555555554C17.777777777777775,106.66666666666667,8.888888888888888,106.66666666666667,4.444444444444444,106.66666666666664C0,106.66666666666667,0,106.66666666666667,0,106.66666666666664L0,106.66666666666666"></path><circle class="port" cx="26.666666666666664" cy="80" r="2"></circle><circle class="port" cx="53.33333333333333" cy="80" r="2"></circle><circle class="port" cx="80" cy="106.66666666666666" r="2"></circle><circle class="port" cx="80" cy="133.33333333333331" r="2"></circle><circle class="port" cx="53.33333333333333" cy="160" r="2"></circle><circle class="port" cx="26.666666666666664" cy="160" r="2"></circle><circle class="port" cx="0" cy="133.33333333333331" r="2"></circle><circle class="port" cx="0" cy="106.66666666666666" r="2"></circle></g><g><rect class="background" x="0" y="160" width="80" height="80"></rect><path class="path" d="M26.666666666666664,160L26.66666666666666,163.33333333333334C26.666666666666668,166.66666666666666,26.666666666666668,173.33333333333334,31.111111111111104,183.33333333333334C35.55555555555555,193.33333333333334,44.444444444444436,206.66666666666666,48.888888888888886,216.66666666666666C53.333333333333336,226.66666666666666,53.333333333333336,233.33333333333334,53.33333333333332,236.66666666666666L53.33333333333333,240"></path><path class="path" d="M53.33333333333333,160L53.33333333333332,163.33333333333334C53.333333333333336,166.66666666666666,53.333333333333336,173.33333333333334,48.888888888888886,183.33333333333334C44.444444444444436,193.33333333333334,35.55555555555555,206.66666666666666,31.11111111111111,216.66666666666666C26.666666666666668,226.66666666666666,26.666666666666668,233.33333333333334,26.66666666666666,236.66666666666666L26.666666666666664,240"></path><path class="path" d="M80,186.66666666666666L76.66666666666667,186.66666666666666C73.33333333333333,186.66666666666666,66.66666666666667,186.66666666666666,56.666666666666664,186.66666666666666C46.666666666666664,186.66666666666666,33.333333333333336,186.66666666666666,23.333333333333332,186.66666666666666C13.333333333333334,186.66666666666666,6.666666666666667,186.66666666666666,3.3333333333333335,186.66666666666666L0,186.66666666666666"></path><path class="path" d="M80,213.33333333333331L76.66666666666667,213.3333333333333C73.33333333333333,213.33333333333334,66.66666666666667,213.33333333333334,56.666666666666664,213.3333333333333C46.666666666666664,213.33333333333334,33.333333333333336,213.33333333333334,23.333333333333332,213.3333333333333C13.333333333333334,213.33333333333334,6.666666666666667,213.33333333333334,3.3333333333333335,213.3333333333333L0,213.33333333333331"></path><circle class="port" cx="26.666666666666664" cy="160" r="2"></circle><circle class="port" cx="53.33333333333333" cy="160" r="2"></circle><circle class="port" cx="80" cy="186.66666666666666" r="2"></circle><circle class="port" cx="80" cy="213.33333333333331" r="2"></circle><circle class="port" cx="53.33333333333333" cy="240" r="2"></circle><circle class="port" cx="26.666666666666664" cy="240" r="2"></circle><circle class="port" cx="0" cy="213.33333333333331" r="2"></circle><circle class="port" cx="0" cy="186.66666666666666" r="2"></circle></g><g><rect class="background" x="0" y="240" width="80" height="80"></rect><path class="path" d="M26.666666666666664,240L26.66666666666666,244.44444444444446C26.666666666666668,248.8888888888889,26.666666666666668,257.77777777777777,22.222222222222218,262.22222222222223C17.777777777777775,266.6666666666667,8.888888888888888,266.6666666666667,4.444444444444444,266.6666666666667C0,266.6666666666667,0,266.6666666666667,0,266.6666666666667L0,266.6666666666667"></path><path class="path" d="M53.33333333333333,240L53.33333333333332,244.44444444444446C53.333333333333336,248.8888888888889,53.333333333333336,257.77777777777777,57.77777777777777,262.22222222222223C62.22222222222222,266.6666666666667,71.1111111111111,266.6666666666667,75.55555555555556,266.6666666666667C80,266.6666666666667,80,266.6666666666667,80,266.6666666666667L80,266.6666666666667"></path><path class="path" d="M80,293.3333333333333L80,293.3333333333333C80,293.3333333333333,80,293.3333333333333,75.55555555555556,293.3333333333333C71.1111111111111,293.3333333333333,62.22222222222222,293.3333333333333,57.77777777777777,297.77777777777777C53.333333333333336,302.22222222222223,53.333333333333336,311.1111111111111,53.33333333333332,315.55555555555554L53.33333333333333,320"></path><path class="path" d="M26.666666666666664,320L26.66666666666666,315.55555555555554C26.666666666666668,311.1111111111111,26.666666666666668,302.22222222222223,22.222222222222218,297.77777777777777C17.777777777777775,293.3333333333333,8.888888888888888,293.3333333333333,4.444444444444444,293.3333333333333C0,293.3333333333333,0,293.3333333333333,0,293.3333333333333L0,293.3333333333333"></path><circle class="port" cx="26.666666666666664" cy="240" r="2"></circle><circle class="port" cx="53.33333333333333" cy="240" r="2"></circle><circle class="port" cx="80" cy="266.6666666666667" r="2"></circle><circle class="port" cx="80" cy="293.3333333333333" r="2"></circle><circle class="port" cx="53.33333333333333" cy="320" r="2"></circle><circle class="port" cx="26.666666666666664" cy="320" r="2"></circle><circle class="port" cx="0" cy="293.3333333333333" r="2"></circle><circle class="port" cx="0" cy="266.6666666666667" r="2"></circle></g><g><rect class="background" x="0" y="320" width="80" height="80"></rect><circle class="port" cx="26.666666666666664" cy="320" r="2"></circle><circle class="port" cx="53.33333333333333" cy="320" r="2"></circle><circle class="port" cx="80" cy="346.6666666666667" r="2"></circle><circle class="port" cx="80" cy="373.3333333333333" r="2"></circle><circle class="port" cx="53.33333333333333" cy="400" r="2"></circle><circle class="port" cx="26.666666666666664" cy="400" r="2"></circle><circle class="port" cx="0" cy="373.3333333333333" r="2"></circle><circle class="port" cx="0" cy="346.6666666666667" r="2"></circle></g><g><rect class="background" x="0" y="400" width="80" height="80"></rect><circle class="port" cx="26.666666666666664" cy="400" r="2"></circle><circle class="port" cx="53.33333333333333" cy="400" r="2"></circle><circle class="port" cx="80" cy="426.6666666666667" r="2"></circle><circle class="port" cx="80" cy="453.3333333333333" r="2"></circle><circle class="port" cx="53.33333333333333" cy="480" r="2"></circle><circle class="port" cx="26.666666666666664" cy="480" r="2"></circle><circle class="port" cx="0" cy="453.3333333333333" r="2"></circle><circle class="port" cx="0" cy="426.6666666666667" r="2"></circle></g><g><rect class="background" x="0" y="480" width="80" height="80"></rect><circle class="port" cx="26.666666666666664" cy="480" r="2"></circle><circle class="port" cx="53.33333333333333" cy="480" r="2"></circle><circle class="port" cx="80" cy="506.6666666666667" r="2"></circle><circle class="port" cx="80" cy="533.3333333333334" r="2"></circle><circle class="port" cx="53.33333333333333" cy="560" r="2"></circle><circle class="port" cx="26.666666666666664" cy="560" r="2"></circle><circle class="port" cx="0" cy="533.3333333333334" r="2"></circle><circle class="port" cx="0" cy="506.6666666666667" r="2"></circle></g><g><rect class="background" x="0" y="560" width="80" height="80"></rect><circle class="port" cx="26.666666666666664" cy="560" r="2"></circle><circle class="port" cx="53.33333333333333" cy="560" r="2"></circle><circle class="port" cx="80" cy="586.6666666666666" r="2"></circle><circle class="port" cx="80" cy="613.3333333333334" r="2"></circle><circle class="port" cx="53.33333333333333" cy="640" r="2"></circle><circle class="port" cx="26.666666666666664" cy="640" r="2"></circle><circle class="port" cx="0" cy="613.3333333333334" r="2"></circle><circle class="port" cx="0" cy="586.6666666666666" r="2"></circle></g><g><rect class="background" x="0" y="640" width="80" height="80"></rect><circle class="port" cx="26.666666666666664" cy="640" r="2"></circle><circle class="port" cx="53.33333333333333" cy="640" r="2"></circle><circle class="port" cx="80" cy="666.6666666666666" r="2"></circle><circle class="port" cx="80" cy="693.3333333333334" r="2"></circle><circle class="port" cx="53.33333333333333" cy="720" r="2"></circle><circle class="port" cx="26.666666666666664" cy="720" r="2"></circle><circle class="port" cx="0" cy="693.3333333333334" r="2"></circle><circle class="port" cx="0" cy="666.6666666666666" r="2"></circle></g><g><rect class="background" x="0" y="720" width="80" height="80"></rect><circle class="port" cx="26.666666666666664" cy="720" r="2"></circle><circle class="port" cx="53.33333333333333" cy="720" r="2"></circle><circle class="port" cx="80" cy="746.6666666666666" r="2"></circle><circle class="port" cx="80" cy="773.3333333333334" r="2"></circle><circle class="port" cx="53.33333333333333" cy="800" r="2"></circle><circle class="port" cx="26.666666666666664" cy="800" r="2"></circle><circle class="port" cx="0" cy="773.3333333333334" r="2"></circle><circle class="port" cx="0" cy="746.6666666666666" r="2"></circle></g><g><rect class="background" x="80" y="0" width="80" height="80"></rect><circle class="port" cx="106.66666666666666" cy="0" r="2"></circle><circle class="port" cx="133.33333333333331" cy="0" r="2"></circle><circle class="port" cx="160" cy="26.666666666666664" r="2"></circle><circle class="port" cx="160" cy="53.33333333333333" r="2"></circle><circle class="port" cx="133.33333333333331" cy="80" r="2"></circle><circle class="port" cx="106.66666666666666" cy="80" r="2"></circle><circle class="port" cx="80" cy="53.33333333333333" r="2"></circle><circle class="port" cx="80" cy="26.666666666666664" r="2"></circle></g><g><rect class="background" x="80" y="80" width="80" height="80"></rect><path class="path" d="M106.66666666666666,80L106.66666666666664,83.33333333333333C106.66666666666667,86.66666666666667,106.66666666666667,93.33333333333333,111.11111111111109,96.66666666666667C115.55555555555554,100,124.44444444444441,100,128.88888888888889,96.66666666666667C133.33333333333331,93.33333333333333,133.33333333333331,86.66666666666667,133.3333333333333,83.33333333333333L133.33333333333331,80"></path><path class="path" d="M160,106.66666666666666L156.66666666666666,106.66666666666664C153.33333333333334,106.66666666666667,146.66666666666666,106.66666666666667,136.66666666666666,111.11111111111109C126.66666666666667,115.55555555555554,113.33333333333333,124.44444444444441,103.33333333333333,128.88888888888889C93.33333333333333,133.33333333333331,86.66666666666667,133.33333333333331,83.33333333333333,133.3333333333333L80,133.33333333333331"></path><path class="path" d="M160,133.33333333333331L156.66666666666666,133.3333333333333C153.33333333333334,133.33333333333331,146.66666666666666,133.33333333333331,136.66666666666666,128.88888888888886C126.66666666666667,124.44444444444441,113.33333333333333,115.55555555555554,103.33333333333333,111.1111111111111C93.33333333333333,106.66666666666667,86.66666666666667,106.66666666666667,83.33333333333333,106.66666666666664L80,106.66666666666666"></path><path class="path" d="M133.33333333333331,160L133.3333333333333,156.66666666666666C133.33333333333331,153.33333333333334,133.33333333333331,146.66666666666666,128.88888888888886,143.33333333333334C124.44444444444441,140,115.55555555555554,140,111.1111111111111,143.33333333333334C106.66666666666667,146.66666666666666,106.66666666666667,153.33333333333334,106.66666666666664,156.66666666666666L106.66666666666666,160"></path><circle class="port" cx="106.66666666666666" cy="80" r="2"></circle><circle class="port" cx="133.33333333333331" cy="80" r="2"></circle><circle class="port" cx="160" cy="106.66666666666666" r="2"></circle><circle class="port" cx="160" cy="133.33333333333331" r="2"></circle><circle class="port" cx="133.33333333333331" cy="160" r="2"></circle><circle class="port" cx="106.66666666666666" cy="160" r="2"></circle><circle class="port" cx="80" cy="133.33333333333331" r="2"></circle><circle class="port" cx="80" cy="106.66666666666666" r="2"></circle></g><g><rect class="background" x="80" y="160" width="80" height="80"></rect><circle class="port" cx="106.66666666666666" cy="160" r="2"></circle><circle class="port" cx="133.33333333333331" cy="160" r="2"></circle><circle class="port" cx="160" cy="186.66666666666666" r="2"></circle><circle class="port" cx="160" cy="213.33333333333331" r="2"></circle><circle class="port" cx="133.33333333333331" cy="240" r="2"></circle><circle class="port" cx="106.66666666666666" cy="240" r="2"></circle><circle class="port" cx="80" cy="213.33333333333331" r="2"></circle><circle class="port" cx="80" cy="186.66666666666666" r="2"></circle></g><g><rect class="background" x="80" y="240" width="80" height="80"></rect><circle class="port" cx="106.66666666666666" cy="240" r="2"></circle><circle class="port" cx="133.33333333333331" cy="240" r="2"></circle><circle class="port" cx="160" cy="266.6666666666667" r="2"></circle><circle class="port" cx="160" cy="293.3333333333333" r="2"></circle><circle class="port" cx="133.33333333333331" cy="320" r="2"></circle><circle class="port" cx="106.66666666666666" cy="320" r="2"></circle><circle class="port" cx="80" cy="293.3333333333333" r="2"></circle><circle class="port" cx="80" cy="266.6666666666667" r="2"></circle></g><g><rect class="background" x="80" y="320" width="80" height="80"></rect><circle class="port" cx="106.66666666666666" cy="320" r="2"></circle><circle class="port" cx="133.33333333333331" cy="320" r="2"></circle><circle class="port" cx="160" cy="346.6666666666667" r="2"></circle><circle class="port" cx="160" cy="373.3333333333333" r="2"></circle><circle class="port" cx="133.33333333333331" cy="400" r="2"></circle><circle class="port" cx="106.66666666666666" cy="400" r="2"></circle><circle class="port" cx="80" cy="373.3333333333333" r="2"></circle><circle class="port" cx="80" cy="346.6666666666667" r="2"></circle></g><g><rect class="background" x="80" y="400" width="80" height="80"></rect><circle class="port" cx="106.66666666666666" cy="400" r="2"></circle><circle class="port" cx="133.33333333333331" cy="400" r="2"></circle><circle class="port" cx="160" cy="426.6666666666667" r="2"></circle><circle class="port" cx="160" cy="453.3333333333333" r="2"></circle><circle class="port" cx="133.33333333333331" cy="480" r="2"></circle><circle class="port" cx="106.66666666666666" cy="480" r="2"></circle><circle class="port" cx="80" cy="453.3333333333333" r="2"></circle><circle class="port" cx="80" cy="426.6666666666667" r="2"></circle></g><g><rect class="background" x="80" y="480" width="80" height="80"></rect><circle class="port" cx="106.66666666666666" cy="480" r="2"></circle><circle class="port" cx="133.33333333333331" cy="480" r="2"></circle><circle class="port" cx="160" cy="506.6666666666667" r="2"></circle><circle class="port" cx="160" cy="533.3333333333334" r="2"></circle><circle class="port" cx="133.33333333333331" cy="560" r="2"></circle><circle class="port" cx="106.66666666666666" cy="560" r="2"></circle><circle class="port" cx="80" cy="533.3333333333334" r="2"></circle><circle class="port" cx="80" cy="506.6666666666667" r="2"></circle></g><g><rect class="background" x="80" y="560" width="80" height="80"></rect><circle class="port" cx="106.66666666666666" cy="560" r="2"></circle><circle class="port" cx="133.33333333333331" cy="560" r="2"></circle><circle class="port" cx="160" cy="586.6666666666666" r="2"></circle><circle class="port" cx="160" cy="613.3333333333334" r="2"></circle><circle class="port" cx="133.33333333333331" cy="640" r="2"></circle><circle class="port" cx="106.66666666666666" cy="640" r="2"></circle><circle class="port" cx="80" cy="613.3333333333334" r="2"></circle><circle class="port" cx="80" cy="586.6666666666666" r="2"></circle></g><g><rect class="background" x="80" y="640" width="80" height="80"></rect><circle class="port" cx="106.66666666666666" cy="640" r="2"></circle><circle class="port" cx="133.33333333333331" cy="640" r="2"></circle><circle class="port" cx="160" cy="666.6666666666666" r="2"></circle><circle class="port" cx="160" cy="693.3333333333334" r="2"></circle><circle class="port" cx="133.33333333333331" cy="720" r="2"></circle><circle class="port" cx="106.66666666666666" cy="720" r="2"></circle><circle class="port" cx="80" cy="693.3333333333334" r="2"></circle><circle class="port" cx="80" cy="666.6666666666666" r="2"></circle></g><g><rect class="background" x="80" y="720" width="80" height="80"></rect><circle class="port" cx="106.66666666666666" cy="720" r="2"></circle><circle class="port" cx="133.33333333333331" cy="720" r="2"></circle><circle class="port" cx="160" cy="746.6666666666666" r="2"></circle><circle class="port" cx="160" cy="773.3333333333334" r="2"></circle><circle class="port" cx="133.33333333333331" cy="800" r="2"></circle><circle class="port" cx="106.66666666666666" cy="800" r="2"></circle><circle class="port" cx="80" cy="773.3333333333334" r="2"></circle><circle class="port" cx="80" cy="746.6666666666666" r="2"></circle></g><g><rect class="background" x="160" y="0" width="80" height="80"></rect><path class="path" d="M186.66666666666666,0L186.66666666666666,3.3333333333333335C186.66666666666666,6.666666666666667,186.66666666666666,13.333333333333334,191.1111111111111,23.333333333333332C195.55555555555554,33.333333333333336,204.44444444444443,46.666666666666664,208.88888888888889,56.666666666666664C213.33333333333334,66.66666666666667,213.33333333333334,73.33333333333333,213.3333333333333,76.66666666666667L213.33333333333331,80"></path><path class="path" d="M213.33333333333331,0L213.3333333333333,4.444444444444444C213.33333333333334,8.888888888888888,213.33333333333334,17.777777777777775,217.77777777777774,22.222222222222218C222.2222222222222,26.666666666666668,231.1111111111111,26.666666666666668,235.55555555555554,26.66666666666666C240,26.666666666666668,240,26.666666666666668,240,26.66666666666666L240,26.666666666666664"></path><path class="path" d="M240,53.33333333333333L236.66666666666666,53.33333333333332C233.33333333333334,53.333333333333336,226.66666666666666,53.333333333333336,216.66666666666666,48.888888888888886C206.66666666666666,44.444444444444436,193.33333333333334,35.55555555555555,183.33333333333334,31.11111111111111C173.33333333333334,26.666666666666668,166.66666666666666,26.666666666666668,163.33333333333334,26.66666666666666L160,26.666666666666664"></path><path class="path" d="M186.66666666666666,80L186.66666666666666,75.55555555555556C186.66666666666666,71.1111111111111,186.66666666666666,62.22222222222222,182.2222222222222,57.77777777777777C177.77777777777774,53.333333333333336,168.88888888888889,53.333333333333336,164.44444444444443,53.33333333333332C160,53.333333333333336,160,53.333333333333336,160,53.33333333333332L160,53.33333333333333"></path><circle class="port" cx="186.66666666666666" cy="0" r="2"></circle><circle class="port" cx="213.33333333333331" cy="0" r="2"></circle><circle class="port" cx="240" cy="26.666666666666664" r="2"></circle><circle class="port" cx="240" cy="53.33333333333333" r="2"></circle><circle class="port" cx="213.33333333333331" cy="80" r="2"></circle><circle class="port" cx="186.66666666666666" cy="80" r="2"></circle><circle class="port" cx="160" cy="53.33333333333333" r="2"></circle><circle class="port" cx="160" cy="26.666666666666664" r="2"></circle></g><g><rect class="background" x="160" y="80" width="80" height="80"></rect><path class="path" d="M186.66666666666666,80L186.66666666666666,84.44444444444444C186.66666666666666,88.88888888888887,186.66666666666666,97.77777777777777,195.55555555555554,102.22222222222221C204.44444444444443,106.66666666666667,222.2222222222222,106.66666666666667,231.11111111111111,106.66666666666664C240,106.66666666666667,240,106.66666666666667,240,106.66666666666664L240,106.66666666666666"></path><path class="path" d="M213.33333333333331,80L213.3333333333333,83.33333333333333C213.33333333333334,86.66666666666667,213.33333333333334,93.33333333333333,208.88888888888889,103.33333333333333C204.44444444444443,113.33333333333333,195.55555555555554,126.66666666666667,191.11111111111111,136.66666666666666C186.66666666666666,146.66666666666666,186.66666666666666,153.33333333333334,186.66666666666666,156.66666666666666L186.66666666666666,160"></path><path class="path" d="M240,133.33333333333331L236.66666666666666,133.3333333333333C233.33333333333334,133.33333333333331,226.66666666666666,133.33333333333331,216.66666666666666,133.3333333333333C206.66666666666666,133.33333333333331,193.33333333333334,133.33333333333331,183.33333333333334,133.3333333333333C173.33333333333334,133.33333333333331,166.66666666666666,133.33333333333331,163.33333333333334,133.3333333333333L160,133.33333333333331"></path><path class="path" d="M213.33333333333331,160L213.3333333333333,151.11111111111111C213.33333333333334,142.2222222222222,213.33333333333334,124.44444444444444,204.44444444444443,115.55555555555554C195.55555555555554,106.66666666666667,177.77777777777774,106.66666666666667,168.88888888888889,106.66666666666664C160,106.66666666666667,160,106.66666666666667,160,106.66666666666664L160,106.66666666666666"></path><circle class="port" cx="186.66666666666666" cy="80" r="2"></circle><circle class="port" cx="213.33333333333331" cy="80" r="2"></circle><circle class="port" cx="240" cy="106.66666666666666" r="2"></circle><circle class="port" cx="240" cy="133.33333333333331" r="2"></circle><circle class="port" cx="213.33333333333331" cy="160" r="2"></circle><circle class="port" cx="186.66666666666666" cy="160" r="2"></circle><circle class="port" cx="160" cy="133.33333333333331" r="2"></circle><circle class="port" cx="160" cy="106.66666666666666" r="2"></circle></g><g><rect class="background" x="160" y="160" width="80" height="80"></rect><path class="path" d="M186.66666666666666,160L186.66666666666666,163.33333333333334C186.66666666666666,166.66666666666666,186.66666666666666,173.33333333333334,191.1111111111111,176.66666666666666C195.55555555555554,180,204.44444444444443,180,208.88888888888889,176.66666666666666C213.33333333333334,173.33333333333334,213.33333333333334,166.66666666666666,213.3333333333333,163.33333333333334L213.33333333333331,160"></path><path class="path" d="M240,186.66666666666666L236.66666666666666,186.66666666666666C233.33333333333334,186.66666666666666,226.66666666666666,186.66666666666666,216.66666666666666,191.1111111111111C206.66666666666666,195.55555555555554,193.33333333333334,204.44444444444443,183.33333333333334,208.88888888888889C173.33333333333334,213.33333333333334,166.66666666666666,213.33333333333334,163.33333333333334,213.3333333333333L160,213.33333333333331"></path><path class="path" d="M240,213.33333333333331L240,213.3333333333333C240,213.33333333333334,240,213.33333333333334,235.55555555555554,213.3333333333333C231.1111111111111,213.33333333333334,222.2222222222222,213.33333333333334,217.77777777777774,217.77777777777774C213.33333333333334,222.2222222222222,213.33333333333334,231.1111111111111,213.3333333333333,235.55555555555554L213.33333333333331,240"></path><path class="path" d="M186.66666666666666,240L186.66666666666666,231.11111111111111C186.66666666666666,222.2222222222222,186.66666666666666,204.44444444444443,182.2222222222222,195.55555555555554C177.77777777777774,186.66666666666666,168.88888888888889,186.66666666666666,164.44444444444443,186.66666666666666C160,186.66666666666666,160,186.66666666666666,160,186.66666666666666L160,186.66666666666666"></path><circle class="port" cx="186.66666666666666" cy="160" r="2"></circle><circle class="port" cx="213.33333333333331" cy="160" r="2"></circle><circle class="port" cx="240" cy="186.66666666666666" r="2"></circle><circle class="port" cx="240" cy="213.33333333333331" r="2"></circle><circle class="port" cx="213.33333333333331" cy="240" r="2"></circle><circle class="port" cx="186.66666666666666" cy="240" r="2"></circle><circle class="port" cx="160" cy="213.33333333333331" r="2"></circle><circle class="port" cx="160" cy="186.66666666666666" r="2"></circle></g><g><rect class="background" x="160" y="240" width="80" height="80"></rect><circle class="port" cx="186.66666666666666" cy="240" r="2"></circle><circle class="port" cx="213.33333333333331" cy="240" r="2"></circle><circle class="port" cx="240" cy="266.6666666666667" r="2"></circle><circle class="port" cx="240" cy="293.3333333333333" r="2"></circle><circle class="port" cx="213.33333333333331" cy="320" r="2"></circle><circle class="port" cx="186.66666666666666" cy="320" r="2"></circle><circle class="port" cx="160" cy="293.3333333333333" r="2"></circle><circle class="port" cx="160" cy="266.6666666666667" r="2"></circle></g><g><rect class="background" x="160" y="320" width="80" height="80"></rect><circle class="port" cx="186.66666666666666" cy="320" r="2"></circle><circle class="port" cx="213.33333333333331" cy="320" r="2"></circle><circle class="port" cx="240" cy="346.6666666666667" r="2"></circle><circle class="port" cx="240" cy="373.3333333333333" r="2"></circle><circle class="port" cx="213.33333333333331" cy="400" r="2"></circle><circle class="port" cx="186.66666666666666" cy="400" r="2"></circle><circle class="port" cx="160" cy="373.3333333333333" r="2"></circle><circle class="port" cx="160" cy="346.6666666666667" r="2"></circle></g><g><rect class="background" x="160" y="400" width="80" height="80"></rect><circle class="port" cx="186.66666666666666" cy="400" r="2"></circle><circle class="port" cx="213.33333333333331" cy="400" r="2"></circle><circle class="port" cx="240" cy="426.6666666666667" r="2"></circle><circle class="port" cx="240" cy="453.3333333333333" r="2"></circle><circle class="port" cx="213.33333333333331" cy="480" r="2"></circle><circle class="port" cx="186.66666666666666" cy="480" r="2"></circle><circle class="port" cx="160" cy="453.3333333333333" r="2"></circle><circle class="port" cx="160" cy="426.6666666666667" r="2"></circle></g><g><rect class="background" x="160" y="480" width="80" height="80"></rect><circle class="port" cx="186.66666666666666" cy="480" r="2"></circle><circle class="port" cx="213.33333333333331" cy="480" r="2"></circle><circle class="port" cx="240" cy="506.6666666666667" r="2"></circle><circle class="port" cx="240" cy="533.3333333333334" r="2"></circle><circle class="port" cx="213.33333333333331" cy="560" r="2"></circle><circle class="port" cx="186.66666666666666" cy="560" r="2"></circle><circle class="port" cx="160" cy="533.3333333333334" r="2"></circle><circle class="port" cx="160" cy="506.6666666666667" r="2"></circle></g><g><rect class="background" x="160" y="560" width="80" height="80"></rect><circle class="port" cx="186.66666666666666" cy="560" r="2"></circle><circle class="port" cx="213.33333333333331" cy="560" r="2"></circle><circle class="port" cx="240" cy="586.6666666666666" r="2"></circle><circle class="port" cx="240" cy="613.3333333333334" r="2"></circle><circle class="port" cx="213.33333333333331" cy="640" r="2"></circle><circle class="port" cx="186.66666666666666" cy="640" r="2"></circle><circle class="port" cx="160" cy="613.3333333333334" r="2"></circle><circle class="port" cx="160" cy="586.6666666666666" r="2"></circle></g><g><rect class="background" x="160" y="640" width="80" height="80"></rect><circle class="port" cx="186.66666666666666" cy="640" r="2"></circle><circle class="port" cx="213.33333333333331" cy="640" r="2"></circle><circle class="port" cx="240" cy="666.6666666666666" r="2"></circle><circle class="port" cx="240" cy="693.3333333333334" r="2"></circle><circle class="port" cx="213.33333333333331" cy="720" r="2"></circle><circle class="port" cx="186.66666666666666" cy="720" r="2"></circle><circle class="port" cx="160" cy="693.3333333333334" r="2"></circle><circle class="port" cx="160" cy="666.6666666666666" r="2"></circle></g><g><rect class="background" x="160" y="720" width="80" height="80"></rect><circle class="port" cx="186.66666666666666" cy="720" r="2"></circle><circle class="port" cx="213.33333333333331" cy="720" r="2"></circle><circle class="port" cx="240" cy="746.6666666666666" r="2"></circle><circle class="port" cx="240" cy="773.3333333333334" r="2"></circle><circle class="port" cx="213.33333333333331" cy="800" r="2"></circle><circle class="port" cx="186.66666666666666" cy="800" r="2"></circle><circle class="port" cx="160" cy="773.3333333333334" r="2"></circle><circle class="port" cx="160" cy="746.6666666666666" r="2"></circle></g><g><rect class="background" x="240" y="0" width="80" height="80"></rect><circle class="port" cx="266.6666666666667" cy="0" r="2"></circle><circle class="port" cx="293.3333333333333" cy="0" r="2"></circle><circle class="port" cx="320" cy="26.666666666666664" r="2"></circle><circle class="port" cx="320" cy="53.33333333333333" r="2"></circle><circle class="port" cx="293.3333333333333" cy="80" r="2"></circle><circle class="port" cx="266.6666666666667" cy="80" r="2"></circle><circle class="port" cx="240" cy="53.33333333333333" r="2"></circle><circle class="port" cx="240" cy="26.666666666666664" r="2"></circle></g><g><rect class="background" x="240" y="80" width="80" height="80"></rect><path class="path" d="M266.6666666666667,80L266.6666666666667,83.33333333333333C266.6666666666667,86.66666666666667,266.6666666666667,93.33333333333333,271.11111111111114,96.66666666666667C275.5555555555556,100,284.4444444444444,100,288.88888888888886,96.66666666666667C293.3333333333333,93.33333333333333,293.3333333333333,86.66666666666667,293.3333333333333,83.33333333333333L293.3333333333333,80"></path><path class="path" d="M320,106.66666666666666L316.6666666666667,106.66666666666664C313.3333333333333,106.66666666666667,306.6666666666667,106.66666666666667,303.3333333333333,111.11111111111109C300,115.55555555555554,300,124.44444444444441,303.3333333333333,128.88888888888889C306.6666666666667,133.33333333333331,313.3333333333333,133.33333333333331,316.6666666666667,133.3333333333333L320,133.33333333333331"></path><path class="path" d="M293.3333333333333,160L293.3333333333333,155.55555555555554C293.3333333333333,151.11111111111111,293.3333333333333,142.2222222222222,284.4444444444444,137.77777777777774C275.55555555555554,133.33333333333331,257.77777777777777,133.33333333333331,248.88888888888889,133.3333333333333C240,133.33333333333331,240,133.33333333333331,240,133.3333333333333L240,133.33333333333331"></path><path class="path" d="M266.6666666666667,160L266.6666666666667,151.11111111111111C266.6666666666667,142.2222222222222,266.6666666666667,124.44444444444444,262.22222222222223,115.55555555555554C257.77777777777777,106.66666666666667,248.8888888888889,106.66666666666667,244.44444444444446,106.66666666666664C240,106.66666666666667,240,106.66666666666667,240,106.66666666666664L240,106.66666666666666"></path><circle class="port" cx="266.6666666666667" cy="80" r="2"></circle><circle class="port" cx="293.3333333333333" cy="80" r="2"></circle><circle class="port" cx="320" cy="106.66666666666666" r="2"></circle><circle class="port" cx="320" cy="133.33333333333331" r="2"></circle><circle class="port" cx="293.3333333333333" cy="160" r="2"></circle><circle class="port" cx="266.6666666666667" cy="160" r="2"></circle><circle class="port" cx="240" cy="133.33333333333331" r="2"></circle><circle class="port" cx="240" cy="106.66666666666666" r="2"></circle></g><g><rect class="background" x="240" y="160" width="80" height="80"></rect><path class="path" d="M266.6666666666667,160L266.6666666666667,163.33333333333334C266.6666666666667,166.66666666666666,266.6666666666667,173.33333333333334,266.6666666666667,183.33333333333334C266.6666666666667,193.33333333333334,266.6666666666667,206.66666666666666,266.6666666666667,216.66666666666666C266.6666666666667,226.66666666666666,266.6666666666667,233.33333333333334,266.6666666666667,236.66666666666666L266.6666666666667,240"></path><path class="path" d="M293.3333333333333,160L293.3333333333333,163.33333333333334C293.3333333333333,166.66666666666666,293.3333333333333,173.33333333333334,293.3333333333333,183.33333333333334C293.3333333333333,193.33333333333334,293.3333333333333,206.66666666666666,293.3333333333333,216.66666666666666C293.3333333333333,226.66666666666666,293.3333333333333,233.33333333333334,293.3333333333333,236.66666666666666L293.3333333333333,240"></path><path class="path" d="M320,186.66666666666666L316.6666666666667,186.66666666666666C313.3333333333333,186.66666666666666,306.6666666666667,186.66666666666666,296.6666666666667,186.66666666666666C286.6666666666667,186.66666666666666,273.3333333333333,186.66666666666666,263.3333333333333,186.66666666666666C253.33333333333334,186.66666666666666,246.66666666666666,186.66666666666666,243.33333333333334,186.66666666666666L240,186.66666666666666"></path><path class="path" d="M320,213.33333333333331L316.6666666666667,213.3333333333333C313.3333333333333,213.33333333333334,306.6666666666667,213.33333333333334,296.6666666666667,213.3333333333333C286.6666666666667,213.33333333333334,273.3333333333333,213.33333333333334,263.3333333333333,213.3333333333333C253.33333333333334,213.33333333333334,246.66666666666666,213.33333333333334,243.33333333333334,213.3333333333333L240,213.33333333333331"></path><circle class="port" cx="266.6666666666667" cy="160" r="2"></circle><circle class="port" cx="293.3333333333333" cy="160" r="2"></circle><circle class="port" cx="320" cy="186.66666666666666" r="2"></circle><circle class="port" cx="320" cy="213.33333333333331" r="2"></circle><circle class="port" cx="293.3333333333333" cy="240" r="2"></circle><circle class="port" cx="266.6666666666667" cy="240" r="2"></circle><circle class="port" cx="240" cy="213.33333333333331" r="2"></circle><circle class="port" cx="240" cy="186.66666666666666" r="2"></circle></g><g><rect class="background" x="240" y="240" width="80" height="80"></rect><circle class="port" cx="266.6666666666667" cy="240" r="2"></circle><circle class="port" cx="293.3333333333333" cy="240" r="2"></circle><circle class="port" cx="320" cy="266.6666666666667" r="2"></circle><circle class="port" cx="320" cy="293.3333333333333" r="2"></circle><circle class="port" cx="293.3333333333333" cy="320" r="2"></circle><circle class="port" cx="266.6666666666667" cy="320" r="2"></circle><circle class="port" cx="240" cy="293.3333333333333" r="2"></circle><circle class="port" cx="240" cy="266.6666666666667" r="2"></circle></g><g><rect class="background" x="240" y="320" width="80" height="80"></rect><circle class="port" cx="266.6666666666667" cy="320" r="2"></circle><circle class="port" cx="293.3333333333333" cy="320" r="2"></circle><circle class="port" cx="320" cy="346.6666666666667" r="2"></circle><circle class="port" cx="320" cy="373.3333333333333" r="2"></circle><circle class="port" cx="293.3333333333333" cy="400" r="2"></circle><circle class="port" cx="266.6666666666667" cy="400" r="2"></circle><circle class="port" cx="240" cy="373.3333333333333" r="2"></circle><circle class="port" cx="240" cy="346.6666666666667" r="2"></circle></g><g><rect class="background" x="240" y="400" width="80" height="80"></rect><circle class="port" cx="266.6666666666667" cy="400" r="2"></circle><circle class="port" cx="293.3333333333333" cy="400" r="2"></circle><circle class="port" cx="320" cy="426.6666666666667" r="2"></circle><circle class="port" cx="320" cy="453.3333333333333" r="2"></circle><circle class="port" cx="293.3333333333333" cy="480" r="2"></circle><circle class="port" cx="266.6666666666667" cy="480" r="2"></circle><circle class="port" cx="240" cy="453.3333333333333" r="2"></circle><circle class="port" cx="240" cy="426.6666666666667" r="2"></circle></g><g><rect class="background" x="240" y="480" width="80" height="80"></rect><circle class="port" cx="266.6666666666667" cy="480" r="2"></circle><circle class="port" cx="293.3333333333333" cy="480" r="2"></circle><circle class="port" cx="320" cy="506.6666666666667" r="2"></circle><circle class="port" cx="320" cy="533.3333333333334" r="2"></circle><circle class="port" cx="293.3333333333333" cy="560" r="2"></circle><circle class="port" cx="266.6666666666667" cy="560" r="2"></circle><circle class="port" cx="240" cy="533.3333333333334" r="2"></circle><circle class="port" cx="240" cy="506.6666666666667" r="2"></circle></g><g><rect class="background" x="240" y="560" width="80" height="80"></rect><circle class="port" cx="266.6666666666667" cy="560" r="2"></circle><circle class="port" cx="293.3333333333333" cy="560" r="2"></circle><circle class="port" cx="320" cy="586.6666666666666" r="2"></circle><circle class="port" cx="320" cy="613.3333333333334" r="2"></circle><circle class="port" cx="293.3333333333333" cy="640" r="2"></circle><circle class="port" cx="266.6666666666667" cy="640" r="2"></circle><circle class="port" cx="240" cy="613.3333333333334" r="2"></circle><circle class="port" cx="240" cy="586.6666666666666" r="2"></circle></g><g><rect class="background" x="240" y="640" width="80" height="80"></rect><circle class="port" cx="266.6666666666667" cy="640" r="2"></circle><circle class="port" cx="293.3333333333333" cy="640" r="2"></circle><circle class="port" cx="320" cy="666.6666666666666" r="2"></circle><circle class="port" cx="320" cy="693.3333333333334" r="2"></circle><circle class="port" cx="293.3333333333333" cy="720" r="2"></circle><circle class="port" cx="266.6666666666667" cy="720" r="2"></circle><circle class="port" cx="240" cy="693.3333333333334" r="2"></circle><circle class="port" cx="240" cy="666.6666666666666" r="2"></circle></g><g><rect class="background" x="240" y="720" width="80" height="80"></rect><circle class="port" cx="266.6666666666667" cy="720" r="2"></circle><circle class="port" cx="293.3333333333333" cy="720" r="2"></circle><circle class="port" cx="320" cy="746.6666666666666" r="2"></circle><circle class="port" cx="320" cy="773.3333333333334" r="2"></circle><circle class="port" cx="293.3333333333333" cy="800" r="2"></circle><circle class="port" cx="266.6666666666667" cy="800" r="2"></circle><circle class="port" cx="240" cy="773.3333333333334" r="2"></circle><circle class="port" cx="240" cy="746.6666666666666" r="2"></circle></g><g><rect class="background" x="320" y="0" width="80" height="80"></rect><path class="path" d="M346.6666666666667,0L346.6666666666667,8.888888888888888C346.6666666666667,17.777777777777775,346.6666666666667,35.55555555555555,355.5555555555556,44.444444444444436C364.4444444444445,53.333333333333336,382.22222222222223,53.333333333333336,391.11111111111114,53.33333333333332C400,53.333333333333336,400,53.333333333333336,400,53.33333333333332L400,53.33333333333333"></path><path class="path" d="M373.3333333333333,0L373.3333333333333,3.3333333333333335C373.3333333333333,6.666666666666667,373.3333333333333,13.333333333333334,368.88888888888886,23.333333333333332C364.4444444444444,33.333333333333336,355.5555555555556,46.666666666666664,351.1111111111111,56.666666666666664C346.6666666666667,66.66666666666667,346.6666666666667,73.33333333333333,346.6666666666667,76.66666666666667L346.6666666666667,80"></path><path class="path" d="M400,26.666666666666664L396.6666666666667,26.66666666666666C393.3333333333333,26.666666666666668,386.6666666666667,26.666666666666668,376.6666666666667,31.111111111111104C366.6666666666667,35.55555555555555,353.3333333333333,44.444444444444436,343.3333333333333,48.888888888888886C333.3333333333333,53.333333333333336,326.6666666666667,53.333333333333336,323.3333333333333,53.33333333333332L320,53.33333333333333"></path><path class="path" d="M373.3333333333333,80L373.3333333333333,71.11111111111111C373.3333333333333,62.22222222222222,373.3333333333333,44.444444444444436,364.4444444444444,35.55555555555555C355.5555555555555,26.666666666666668,337.77777777777777,26.666666666666668,328.88888888888886,26.66666666666666C320,26.666666666666668,320,26.666666666666668,320,26.66666666666666L320,26.666666666666664"></path><circle class="port" cx="346.6666666666667" cy="0" r="2"></circle><circle class="port" cx="373.3333333333333" cy="0" r="2"></circle><circle class="port" cx="400" cy="26.666666666666664" r="2"></circle><circle class="port" cx="400" cy="53.33333333333333" r="2"></circle><circle class="port" cx="373.3333333333333" cy="80" r="2"></circle><circle class="port" cx="346.6666666666667" cy="80" r="2"></circle><circle class="port" cx="320" cy="53.33333333333333" r="2"></circle><circle class="port" cx="320" cy="26.666666666666664" r="2"></circle></g><g><rect class="background" x="320" y="80" width="80" height="80"></rect><circle class="port" cx="346.6666666666667" cy="80" r="2"></circle><circle class="port" cx="373.3333333333333" cy="80" r="2"></circle><circle class="port" cx="400" cy="106.66666666666666" r="2"></circle><circle class="port" cx="400" cy="133.33333333333331" r="2"></circle><circle class="port" cx="373.3333333333333" cy="160" r="2"></circle><circle class="port" cx="346.6666666666667" cy="160" r="2"></circle><circle class="port" cx="320" cy="133.33333333333331" r="2"></circle><circle class="port" cx="320" cy="106.66666666666666" r="2"></circle></g><g><rect class="background" x="320" y="160" width="80" height="80"></rect><circle class="port" cx="346.6666666666667" cy="160" r="2"></circle><circle class="port" cx="373.3333333333333" cy="160" r="2"></circle><circle class="port" cx="400" cy="186.66666666666666" r="2"></circle><circle class="port" cx="400" cy="213.33333333333331" r="2"></circle><circle class="port" cx="373.3333333333333" cy="240" r="2"></circle><circle class="port" cx="346.6666666666667" cy="240" r="2"></circle><circle class="port" cx="320" cy="213.33333333333331" r="2"></circle><circle class="port" cx="320" cy="186.66666666666666" r="2"></circle></g><g><rect class="background" x="320" y="240" width="80" height="80"></rect><circle class="port" cx="346.6666666666667" cy="240" r="2"></circle><circle class="port" cx="373.3333333333333" cy="240" r="2"></circle><circle class="port" cx="400" cy="266.6666666666667" r="2"></circle><circle class="port" cx="400" cy="293.3333333333333" r="2"></circle><circle class="port" cx="373.3333333333333" cy="320" r="2"></circle><circle class="port" cx="346.6666666666667" cy="320" r="2"></circle><circle class="port" cx="320" cy="293.3333333333333" r="2"></circle><circle class="port" cx="320" cy="266.6666666666667" r="2"></circle></g><g><rect class="background" x="320" y="320" width="80" height="80"></rect><circle class="port" cx="346.6666666666667" cy="320" r="2"></circle><circle class="port" cx="373.3333333333333" cy="320" r="2"></circle><circle class="port" cx="400" cy="346.6666666666667" r="2"></circle><circle class="port" cx="400" cy="373.3333333333333" r="2"></circle><circle class="port" cx="373.3333333333333" cy="400" r="2"></circle><circle class="port" cx="346.6666666666667" cy="400" r="2"></circle><circle class="port" cx="320" cy="373.3333333333333" r="2"></circle><circle class="port" cx="320" cy="346.6666666666667" r="2"></circle></g><g><rect class="background" x="320" y="400" width="80" height="80"></rect><circle class="port" cx="346.6666666666667" cy="400" r="2"></circle><circle class="port" cx="373.3333333333333" cy="400" r="2"></circle><circle class="port" cx="400" cy="426.6666666666667" r="2"></circle><circle class="port" cx="400" cy="453.3333333333333" r="2"></circle><circle class="port" cx="373.3333333333333" cy="480" r="2"></circle><circle class="port" cx="346.6666666666667" cy="480" r="2"></circle><circle class="port" cx="320" cy="453.3333333333333" r="2"></circle><circle class="port" cx="320" cy="426.6666666666667" r="2"></circle></g><g><rect class="background" x="320" y="480" width="80" height="80"></rect><circle class="port" cx="346.6666666666667" cy="480" r="2"></circle><circle class="port" cx="373.3333333333333" cy="480" r="2"></circle><circle class="port" cx="400" cy="506.6666666666667" r="2"></circle><circle class="port" cx="400" cy="533.3333333333334" r="2"></circle><circle class="port" cx="373.3333333333333" cy="560" r="2"></circle><circle class="port" cx="346.6666666666667" cy="560" r="2"></circle><circle class="port" cx="320" cy="533.3333333333334" r="2"></circle><circle class="port" cx="320" cy="506.6666666666667" r="2"></circle></g><g><rect class="background" x="320" y="560" width="80" height="80"></rect><circle class="port" cx="346.6666666666667" cy="560" r="2"></circle><circle class="port" cx="373.3333333333333" cy="560" r="2"></circle><circle class="port" cx="400" cy="586.6666666666666" r="2"></circle><circle class="port" cx="400" cy="613.3333333333334" r="2"></circle><circle class="port" cx="373.3333333333333" cy="640" r="2"></circle><circle class="port" cx="346.6666666666667" cy="640" r="2"></circle><circle class="port" cx="320" cy="613.3333333333334" r="2"></circle><circle class="port" cx="320" cy="586.6666666666666" r="2"></circle></g><g><rect class="background" x="320" y="640" width="80" height="80"></rect><circle class="port" cx="346.6666666666667" cy="640" r="2"></circle><circle class="port" cx="373.3333333333333" cy="640" r="2"></circle><circle class="port" cx="400" cy="666.6666666666666" r="2"></circle><circle class="port" cx="400" cy="693.3333333333334" r="2"></circle><circle class="port" cx="373.3333333333333" cy="720" r="2"></circle><circle class="port" cx="346.6666666666667" cy="720" r="2"></circle><circle class="port" cx="320" cy="693.3333333333334" r="2"></circle><circle class="port" cx="320" cy="666.6666666666666" r="2"></circle></g><g><rect class="background" x="320" y="720" width="80" height="80"></rect><circle class="port" cx="346.6666666666667" cy="720" r="2"></circle><circle class="port" cx="373.3333333333333" cy="720" r="2"></circle><circle class="port" cx="400" cy="746.6666666666666" r="2"></circle><circle class="port" cx="400" cy="773.3333333333334" r="2"></circle><circle class="port" cx="373.3333333333333" cy="800" r="2"></circle><circle class="port" cx="346.6666666666667" cy="800" r="2"></circle><circle class="port" cx="320" cy="773.3333333333334" r="2"></circle><circle class="port" cx="320" cy="746.6666666666666" r="2"></circle></g><g><rect class="background" x="400" y="0" width="80" height="80"></rect><path class="path" d="M426.6666666666667,0L426.6666666666667,4.444444444444444C426.6666666666667,8.888888888888888,426.6666666666667,17.777777777777775,435.5555555555556,22.222222222222218C444.4444444444445,26.666666666666668,462.22222222222223,26.666666666666668,471.1111111111111,26.66666666666666C480,26.666666666666668,480,26.666666666666668,480,26.66666666666666L480,26.666666666666664"></path><path class="path" d="M453.3333333333333,0L453.3333333333333,3.3333333333333335C453.3333333333333,6.666666666666667,453.3333333333333,13.333333333333334,453.3333333333333,23.333333333333332C453.3333333333333,33.333333333333336,453.3333333333333,46.666666666666664,453.3333333333333,56.666666666666664C453.3333333333333,66.66666666666667,453.3333333333333,73.33333333333333,453.3333333333333,76.66666666666667L453.3333333333333,80"></path><path class="path" d="M480,53.33333333333333L476.6666666666667,53.33333333333332C473.3333333333333,53.333333333333336,466.6666666666667,53.333333333333336,456.6666666666667,53.33333333333332C446.6666666666667,53.333333333333336,433.3333333333333,53.333333333333336,423.3333333333333,53.33333333333332C413.3333333333333,53.333333333333336,406.6666666666667,53.333333333333336,403.3333333333333,53.33333333333332L400,53.33333333333333"></path><path class="path" d="M426.6666666666667,80L426.6666666666667,71.11111111111111C426.6666666666667,62.22222222222222,426.6666666666667,44.444444444444436,422.22222222222223,35.55555555555555C417.7777777777778,26.666666666666668,408.8888888888889,26.666666666666668,404.4444444444445,26.66666666666666C400,26.666666666666668,400,26.666666666666668,400,26.66666666666666L400,26.666666666666664"></path><circle class="port" cx="426.6666666666667" cy="0" r="2"></circle><circle class="port" cx="453.3333333333333" cy="0" r="2"></circle><circle class="port" cx="480" cy="26.666666666666664" r="2"></circle><circle class="port" cx="480" cy="53.33333333333333" r="2"></circle><circle class="port" cx="453.3333333333333" cy="80" r="2"></circle><circle class="port" cx="426.6666666666667" cy="80" r="2"></circle><circle class="port" cx="400" cy="53.33333333333333" r="2"></circle><circle class="port" cx="400" cy="26.666666666666664" r="2"></circle></g><g><rect class="background" x="400" y="80" width="80" height="80"></rect><circle class="port" cx="426.6666666666667" cy="80" r="2"></circle><circle class="port" cx="453.3333333333333" cy="80" r="2"></circle><circle class="port" cx="480" cy="106.66666666666666" r="2"></circle><circle class="port" cx="480" cy="133.33333333333331" r="2"></circle><circle class="port" cx="453.3333333333333" cy="160" r="2"></circle><circle class="port" cx="426.6666666666667" cy="160" r="2"></circle><circle class="port" cx="400" cy="133.33333333333331" r="2"></circle><circle class="port" cx="400" cy="106.66666666666666" r="2"></circle></g><g><rect class="background" x="400" y="160" width="80" height="80"></rect><circle class="port" cx="426.6666666666667" cy="160" r="2"></circle><circle class="port" cx="453.3333333333333" cy="160" r="2"></circle><circle class="port" cx="480" cy="186.66666666666666" r="2"></circle><circle class="port" cx="480" cy="213.33333333333331" r="2"></circle><circle class="port" cx="453.3333333333333" cy="240" r="2"></circle><circle class="port" cx="426.6666666666667" cy="240" r="2"></circle><circle class="port" cx="400" cy="213.33333333333331" r="2"></circle><circle class="port" cx="400" cy="186.66666666666666" r="2"></circle></g><g><rect class="background" x="400" y="240" width="80" height="80"></rect><circle class="port" cx="426.6666666666667" cy="240" r="2"></circle><circle class="port" cx="453.3333333333333" cy="240" r="2"></circle><circle class="port" cx="480" cy="266.6666666666667" r="2"></circle><circle class="port" cx="480" cy="293.3333333333333" r="2"></circle><circle class="port" cx="453.3333333333333" cy="320" r="2"></circle><circle class="port" cx="426.6666666666667" cy="320" r="2"></circle><circle class="port" cx="400" cy="293.3333333333333" r="2"></circle><circle class="port" cx="400" cy="266.6666666666667" r="2"></circle></g><g><rect class="background" x="400" y="320" width="80" height="80"></rect><circle class="port" cx="426.6666666666667" cy="320" r="2"></circle><circle class="port" cx="453.3333333333333" cy="320" r="2"></circle><circle class="port" cx="480" cy="346.6666666666667" r="2"></circle><circle class="port" cx="480" cy="373.3333333333333" r="2"></circle><circle class="port" cx="453.3333333333333" cy="400" r="2"></circle><circle class="port" cx="426.6666666666667" cy="400" r="2"></circle><circle class="port" cx="400" cy="373.3333333333333" r="2"></circle><circle class="port" cx="400" cy="346.6666666666667" r="2"></circle></g><g><rect class="background" x="400" y="400" width="80" height="80"></rect><circle class="port" cx="426.6666666666667" cy="400" r="2"></circle><circle class="port" cx="453.3333333333333" cy="400" r="2"></circle><circle class="port" cx="480" cy="426.6666666666667" r="2"></circle><circle class="port" cx="480" cy="453.3333333333333" r="2"></circle><circle class="port" cx="453.3333333333333" cy="480" r="2"></circle><circle class="port" cx="426.6666666666667" cy="480" r="2"></circle><circle class="port" cx="400" cy="453.3333333333333" r="2"></circle><circle class="port" cx="400" cy="426.6666666666667" r="2"></circle></g><g><rect class="background" x="400" y="480" width="80" height="80"></rect><circle class="port" cx="426.6666666666667" cy="480" r="2"></circle><circle class="port" cx="453.3333333333333" cy="480" r="2"></circle><circle class="port" cx="480" cy="506.6666666666667" r="2"></circle><circle class="port" cx="480" cy="533.3333333333334" r="2"></circle><circle class="port" cx="453.3333333333333" cy="560" r="2"></circle><circle class="port" cx="426.6666666666667" cy="560" r="2"></circle><circle class="port" cx="400" cy="533.3333333333334" r="2"></circle><circle class="port" cx="400" cy="506.6666666666667" r="2"></circle></g><g><rect class="background" x="400" y="560" width="80" height="80"></rect><circle class="port" cx="426.6666666666667" cy="560" r="2"></circle><circle class="port" cx="453.3333333333333" cy="560" r="2"></circle><circle class="port" cx="480" cy="586.6666666666666" r="2"></circle><circle class="port" cx="480" cy="613.3333333333334" r="2"></circle><circle class="port" cx="453.3333333333333" cy="640" r="2"></circle><circle class="port" cx="426.6666666666667" cy="640" r="2"></circle><circle class="port" cx="400" cy="613.3333333333334" r="2"></circle><circle class="port" cx="400" cy="586.6666666666666" r="2"></circle></g><g><rect class="background" x="400" y="640" width="80" height="80"></rect><circle class="port" cx="426.6666666666667" cy="640" r="2"></circle><circle class="port" cx="453.3333333333333" cy="640" r="2"></circle><circle class="port" cx="480" cy="666.6666666666666" r="2"></circle><circle class="port" cx="480" cy="693.3333333333334" r="2"></circle><circle class="port" cx="453.3333333333333" cy="720" r="2"></circle><circle class="port" cx="426.6666666666667" cy="720" r="2"></circle><circle class="port" cx="400" cy="693.3333333333334" r="2"></circle><circle class="port" cx="400" cy="666.6666666666666" r="2"></circle></g><g><rect class="background" x="400" y="720" width="80" height="80"></rect><circle class="port" cx="426.6666666666667" cy="720" r="2"></circle><circle class="port" cx="453.3333333333333" cy="720" r="2"></circle><circle class="port" cx="480" cy="746.6666666666666" r="2"></circle><circle class="port" cx="480" cy="773.3333333333334" r="2"></circle><circle class="port" cx="453.3333333333333" cy="800" r="2"></circle><circle class="port" cx="426.6666666666667" cy="800" r="2"></circle><circle class="port" cx="400" cy="773.3333333333334" r="2"></circle><circle class="port" cx="400" cy="746.6666666666666" r="2"></circle></g><g><rect class="background" x="480" y="0" width="80" height="80"></rect><path class="path" d="M506.6666666666667,0L506.6666666666667,8.888888888888888C506.6666666666667,17.777777777777775,506.6666666666667,35.55555555555555,515.5555555555555,44.444444444444436C524.4444444444445,53.333333333333336,542.2222222222223,53.333333333333336,551.1111111111111,53.33333333333332C560,53.333333333333336,560,53.333333333333336,560,53.33333333333332L560,53.33333333333333"></path><path class="path" d="M533.3333333333334,0L533.3333333333334,4.444444444444444C533.3333333333334,8.888888888888888,533.3333333333334,17.777777777777775,537.7777777777778,22.222222222222218C542.2222222222223,26.666666666666668,551.1111111111112,26.666666666666668,555.5555555555555,26.66666666666666C560,26.666666666666668,560,26.666666666666668,560,26.66666666666666L560,26.666666666666664"></path><path class="path" d="M533.3333333333334,80L533.3333333333334,71.11111111111111C533.3333333333334,62.22222222222222,533.3333333333334,44.444444444444436,524.4444444444445,35.55555555555555C515.5555555555555,26.666666666666668,497.7777777777778,26.666666666666668,488.8888888888889,26.66666666666666C480,26.666666666666668,480,26.666666666666668,480,26.66666666666666L480,26.666666666666664"></path><path class="path" d="M506.6666666666667,80L506.6666666666667,75.55555555555556C506.6666666666667,71.1111111111111,506.6666666666667,62.22222222222222,502.22222222222223,57.77777777777777C497.7777777777778,53.333333333333336,488.8888888888889,53.333333333333336,484.4444444444444,53.33333333333332C480,53.333333333333336,480,53.333333333333336,480,53.33333333333332L480,53.33333333333333"></path><circle class="port" cx="506.6666666666667" cy="0" r="2"></circle><circle class="port" cx="533.3333333333334" cy="0" r="2"></circle><circle class="port" cx="560" cy="26.666666666666664" r="2"></circle><circle class="port" cx="560" cy="53.33333333333333" r="2"></circle><circle class="port" cx="533.3333333333334" cy="80" r="2"></circle><circle class="port" cx="506.6666666666667" cy="80" r="2"></circle><circle class="port" cx="480" cy="53.33333333333333" r="2"></circle><circle class="port" cx="480" cy="26.666666666666664" r="2"></circle></g><g><rect class="background" x="480" y="80" width="80" height="80"></rect><path class="path" d="M506.6666666666667,80L506.6666666666667,83.33333333333333C506.6666666666667,86.66666666666667,506.6666666666667,93.33333333333333,511.11111111111114,96.66666666666667C515.5555555555555,100,524.4444444444445,100,528.8888888888889,96.66666666666667C533.3333333333334,93.33333333333333,533.3333333333334,86.66666666666667,533.3333333333334,83.33333333333333L533.3333333333334,80"></path><path class="path" d="M560,106.66666666666666L560,106.66666666666664C560,106.66666666666667,560,106.66666666666667,551.1111111111111,106.66666666666664C542.2222222222223,106.66666666666667,524.4444444444445,106.66666666666667,515.5555555555555,115.55555555555554C506.6666666666667,124.44444444444444,506.6666666666667,142.2222222222222,506.6666666666667,151.11111111111111L506.6666666666667,160"></path><path class="path" d="M560,133.33333333333331L556.6666666666666,133.3333333333333C553.3333333333334,133.33333333333331,546.6666666666666,133.33333333333331,536.6666666666666,133.3333333333333C526.6666666666666,133.33333333333331,513.3333333333334,133.33333333333331,503.3333333333333,133.3333333333333C493.3333333333333,133.33333333333331,486.6666666666667,133.33333333333331,483.3333333333333,133.3333333333333L480,133.33333333333331"></path><path class="path" d="M533.3333333333334,160L533.3333333333334,151.11111111111111C533.3333333333334,142.2222222222222,533.3333333333334,124.44444444444444,524.4444444444445,115.55555555555554C515.5555555555555,106.66666666666667,497.7777777777778,106.66666666666667,488.8888888888889,106.66666666666664C480,106.66666666666667,480,106.66666666666667,480,106.66666666666664L480,106.66666666666666"></path><circle class="port" cx="506.6666666666667" cy="80" r="2"></circle><circle class="port" cx="533.3333333333334" cy="80" r="2"></circle><circle class="port" cx="560" cy="106.66666666666666" r="2"></circle><circle class="port" cx="560" cy="133.33333333333331" r="2"></circle><circle class="port" cx="533.3333333333334" cy="160" r="2"></circle><circle class="port" cx="506.6666666666667" cy="160" r="2"></circle><circle class="port" cx="480" cy="133.33333333333331" r="2"></circle><circle class="port" cx="480" cy="106.66666666666666" r="2"></circle></g><g><rect class="background" x="480" y="160" width="80" height="80"></rect><circle class="port" cx="506.6666666666667" cy="160" r="2"></circle><circle class="port" cx="533.3333333333334" cy="160" r="2"></circle><circle class="port" cx="560" cy="186.66666666666666" r="2"></circle><circle class="port" cx="560" cy="213.33333333333331" r="2"></circle><circle class="port" cx="533.3333333333334" cy="240" r="2"></circle><circle class="port" cx="506.6666666666667" cy="240" r="2"></circle><circle class="port" cx="480" cy="213.33333333333331" r="2"></circle><circle class="port" cx="480" cy="186.66666666666666" r="2"></circle></g><g><rect class="background" x="480" y="240" width="80" height="80"></rect><circle class="port" cx="506.6666666666667" cy="240" r="2"></circle><circle class="port" cx="533.3333333333334" cy="240" r="2"></circle><circle class="port" cx="560" cy="266.6666666666667" r="2"></circle><circle class="port" cx="560" cy="293.3333333333333" r="2"></circle><circle class="port" cx="533.3333333333334" cy="320" r="2"></circle><circle class="port" cx="506.6666666666667" cy="320" r="2"></circle><circle class="port" cx="480" cy="293.3333333333333" r="2"></circle><circle class="port" cx="480" cy="266.6666666666667" r="2"></circle></g><g><rect class="background" x="480" y="320" width="80" height="80"></rect><circle class="port" cx="506.6666666666667" cy="320" r="2"></circle><circle class="port" cx="533.3333333333334" cy="320" r="2"></circle><circle class="port" cx="560" cy="346.6666666666667" r="2"></circle><circle class="port" cx="560" cy="373.3333333333333" r="2"></circle><circle class="port" cx="533.3333333333334" cy="400" r="2"></circle><circle class="port" cx="506.6666666666667" cy="400" r="2"></circle><circle class="port" cx="480" cy="373.3333333333333" r="2"></circle><circle class="port" cx="480" cy="346.6666666666667" r="2"></circle></g><g><rect class="background" x="480" y="400" width="80" height="80"></rect><circle class="port" cx="506.6666666666667" cy="400" r="2"></circle><circle class="port" cx="533.3333333333334" cy="400" r="2"></circle><circle class="port" cx="560" cy="426.6666666666667" r="2"></circle><circle class="port" cx="560" cy="453.3333333333333" r="2"></circle><circle class="port" cx="533.3333333333334" cy="480" r="2"></circle><circle class="port" cx="506.6666666666667" cy="480" r="2"></circle><circle class="port" cx="480" cy="453.3333333333333" r="2"></circle><circle class="port" cx="480" cy="426.6666666666667" r="2"></circle></g><g><rect class="background" x="480" y="480" width="80" height="80"></rect><circle class="port" cx="506.6666666666667" cy="480" r="2"></circle><circle class="port" cx="533.3333333333334" cy="480" r="2"></circle><circle class="port" cx="560" cy="506.6666666666667" r="2"></circle><circle class="port" cx="560" cy="533.3333333333334" r="2"></circle><circle class="port" cx="533.3333333333334" cy="560" r="2"></circle><circle class="port" cx="506.6666666666667" cy="560" r="2"></circle><circle class="port" cx="480" cy="533.3333333333334" r="2"></circle><circle class="port" cx="480" cy="506.6666666666667" r="2"></circle></g><g><rect class="background" x="480" y="560" width="80" height="80"></rect><circle class="port" cx="506.6666666666667" cy="560" r="2"></circle><circle class="port" cx="533.3333333333334" cy="560" r="2"></circle><circle class="port" cx="560" cy="586.6666666666666" r="2"></circle><circle class="port" cx="560" cy="613.3333333333334" r="2"></circle><circle class="port" cx="533.3333333333334" cy="640" r="2"></circle><circle class="port" cx="506.6666666666667" cy="640" r="2"></circle><circle class="port" cx="480" cy="613.3333333333334" r="2"></circle><circle class="port" cx="480" cy="586.6666666666666" r="2"></circle></g><g><rect class="background" x="480" y="640" width="80" height="80"></rect><circle class="port" cx="506.6666666666667" cy="640" r="2"></circle><circle class="port" cx="533.3333333333334" cy="640" r="2"></circle><circle class="port" cx="560" cy="666.6666666666666" r="2"></circle><circle class="port" cx="560" cy="693.3333333333334" r="2"></circle><circle class="port" cx="533.3333333333334" cy="720" r="2"></circle><circle class="port" cx="506.6666666666667" cy="720" r="2"></circle><circle class="port" cx="480" cy="693.3333333333334" r="2"></circle><circle class="port" cx="480" cy="666.6666666666666" r="2"></circle></g><g><rect class="background" x="480" y="720" width="80" height="80"></rect><circle class="port" cx="506.6666666666667" cy="720" r="2"></circle><circle class="port" cx="533.3333333333334" cy="720" r="2"></circle><circle class="port" cx="560" cy="746.6666666666666" r="2"></circle><circle class="port" cx="560" cy="773.3333333333334" r="2"></circle><circle class="port" cx="533.3333333333334" cy="800" r="2"></circle><circle class="port" cx="506.6666666666667" cy="800" r="2"></circle><circle class="port" cx="480" cy="773.3333333333334" r="2"></circle><circle class="port" cx="480" cy="746.6666666666666" r="2"></circle></g><g><rect class="background" x="560" y="0" width="80" height="80"></rect><path class="path" d="M586.6666666666666,0L586.6666666666666,4.444444444444444C586.6666666666666,8.888888888888888,586.6666666666666,17.777777777777775,595.5555555555555,22.222222222222218C604.4444444444445,26.666666666666668,622.2222222222222,26.666666666666668,631.1111111111111,26.66666666666666C640,26.666666666666668,640,26.666666666666668,640,26.66666666666666L640,26.666666666666664"></path><path class="path" d="M613.3333333333334,0L613.3333333333334,8.888888888888888C613.3333333333334,17.777777777777775,613.3333333333334,35.55555555555555,617.7777777777778,44.444444444444436C622.2222222222223,53.333333333333336,631.1111111111112,53.333333333333336,635.5555555555555,53.33333333333332C640,53.333333333333336,640,53.333333333333336,640,53.33333333333332L640,53.33333333333333"></path><path class="path" d="M613.3333333333334,80L613.3333333333334,75.55555555555556C613.3333333333334,71.1111111111111,613.3333333333334,62.22222222222222,604.4444444444445,57.77777777777777C595.5555555555555,53.333333333333336,577.7777777777778,53.333333333333336,568.8888888888889,53.33333333333332C560,53.333333333333336,560,53.333333333333336,560,53.33333333333332L560,53.33333333333333"></path><path class="path" d="M586.6666666666666,80L586.6666666666666,71.11111111111111C586.6666666666666,62.22222222222222,586.6666666666666,44.444444444444436,582.2222222222222,35.55555555555555C577.7777777777777,26.666666666666668,568.8888888888888,26.666666666666668,564.4444444444445,26.66666666666666C560,26.666666666666668,560,26.666666666666668,560,26.66666666666666L560,26.666666666666664"></path><circle class="port" cx="586.6666666666666" cy="0" r="2"></circle><circle class="port" cx="613.3333333333334" cy="0" r="2"></circle><circle class="port" cx="640" cy="26.666666666666664" r="2"></circle><circle class="port" cx="640" cy="53.33333333333333" r="2"></circle><circle class="port" cx="613.3333333333334" cy="80" r="2"></circle><circle class="port" cx="586.6666666666666" cy="80" r="2"></circle><circle class="port" cx="560" cy="53.33333333333333" r="2"></circle><circle class="port" cx="560" cy="26.666666666666664" r="2"></circle></g><g><rect class="background" x="560" y="80" width="80" height="80"></rect><path class="path" d="M586.6666666666666,80L586.6666666666666,83.33333333333333C586.6666666666666,86.66666666666667,586.6666666666666,93.33333333333333,591.1111111111111,96.66666666666667C595.5555555555555,100,604.4444444444445,100,608.8888888888889,96.66666666666667C613.3333333333334,93.33333333333333,613.3333333333334,86.66666666666667,613.3333333333334,83.33333333333333L613.3333333333334,80"></path><path class="path" d="M640,106.66666666666666L640,106.66666666666664C640,106.66666666666667,640,106.66666666666667,635.5555555555555,106.66666666666664C631.1111111111112,106.66666666666667,622.2222222222223,106.66666666666667,617.7777777777778,115.55555555555554C613.3333333333334,124.44444444444444,613.3333333333334,142.2222222222222,613.3333333333334,151.11111111111111L613.3333333333334,160"></path><path class="path" d="M640,133.33333333333331L636.6666666666666,133.3333333333333C633.3333333333334,133.33333333333331,626.6666666666666,133.33333333333331,616.6666666666666,133.3333333333333C606.6666666666666,133.33333333333331,593.3333333333334,133.33333333333331,583.3333333333334,133.3333333333333C573.3333333333334,133.33333333333331,566.6666666666666,133.33333333333331,563.3333333333334,133.3333333333333L560,133.33333333333331"></path><path class="path" d="M586.6666666666666,160L586.6666666666666,151.11111111111111C586.6666666666666,142.2222222222222,586.6666666666666,124.44444444444444,582.2222222222222,115.55555555555554C577.7777777777777,106.66666666666667,568.8888888888888,106.66666666666667,564.4444444444445,106.66666666666664C560,106.66666666666667,560,106.66666666666667,560,106.66666666666664L560,106.66666666666666"></path><circle class="port" cx="586.6666666666666" cy="80" r="2"></circle><circle class="port" cx="613.3333333333334" cy="80" r="2"></circle><circle class="port" cx="640" cy="106.66666666666666" r="2"></circle><circle class="port" cx="640" cy="133.33333333333331" r="2"></circle><circle class="port" cx="613.3333333333334" cy="160" r="2"></circle><circle class="port" cx="586.6666666666666" cy="160" r="2"></circle><circle class="port" cx="560" cy="133.33333333333331" r="2"></circle><circle class="port" cx="560" cy="106.66666666666666" r="2"></circle></g><g><rect class="background" x="560" y="160" width="80" height="80"></rect><circle class="port" cx="586.6666666666666" cy="160" r="2"></circle><circle class="port" cx="613.3333333333334" cy="160" r="2"></circle><circle class="port" cx="640" cy="186.66666666666666" r="2"></circle><circle class="port" cx="640" cy="213.33333333333331" r="2"></circle><circle class="port" cx="613.3333333333334" cy="240" r="2"></circle><circle class="port" cx="586.6666666666666" cy="240" r="2"></circle><circle class="port" cx="560" cy="213.33333333333331" r="2"></circle><circle class="port" cx="560" cy="186.66666666666666" r="2"></circle></g><g><rect class="background" x="560" y="240" width="80" height="80"></rect><circle class="port" cx="586.6666666666666" cy="240" r="2"></circle><circle class="port" cx="613.3333333333334" cy="240" r="2"></circle><circle class="port" cx="640" cy="266.6666666666667" r="2"></circle><circle class="port" cx="640" cy="293.3333333333333" r="2"></circle><circle class="port" cx="613.3333333333334" cy="320" r="2"></circle><circle class="port" cx="586.6666666666666" cy="320" r="2"></circle><circle class="port" cx="560" cy="293.3333333333333" r="2"></circle><circle class="port" cx="560" cy="266.6666666666667" r="2"></circle></g><g><rect class="background" x="560" y="320" width="80" height="80"></rect><circle class="port" cx="586.6666666666666" cy="320" r="2"></circle><circle class="port" cx="613.3333333333334" cy="320" r="2"></circle><circle class="port" cx="640" cy="346.6666666666667" r="2"></circle><circle class="port" cx="640" cy="373.3333333333333" r="2"></circle><circle class="port" cx="613.3333333333334" cy="400" r="2"></circle><circle class="port" cx="586.6666666666666" cy="400" r="2"></circle><circle class="port" cx="560" cy="373.3333333333333" r="2"></circle><circle class="port" cx="560" cy="346.6666666666667" r="2"></circle></g><g><rect class="background" x="560" y="400" width="80" height="80"></rect><circle class="port" cx="586.6666666666666" cy="400" r="2"></circle><circle class="port" cx="613.3333333333334" cy="400" r="2"></circle><circle class="port" cx="640" cy="426.6666666666667" r="2"></circle><circle class="port" cx="640" cy="453.3333333333333" r="2"></circle><circle class="port" cx="613.3333333333334" cy="480" r="2"></circle><circle class="port" cx="586.6666666666666" cy="480" r="2"></circle><circle class="port" cx="560" cy="453.3333333333333" r="2"></circle><circle class="port" cx="560" cy="426.6666666666667" r="2"></circle></g><g><rect class="background" x="560" y="480" width="80" height="80"></rect><circle class="port" cx="586.6666666666666" cy="480" r="2"></circle><circle class="port" cx="613.3333333333334" cy="480" r="2"></circle><circle class="port" cx="640" cy="506.6666666666667" r="2"></circle><circle class="port" cx="640" cy="533.3333333333334" r="2"></circle><circle class="port" cx="613.3333333333334" cy="560" r="2"></circle><circle class="port" cx="586.6666666666666" cy="560" r="2"></circle><circle class="port" cx="560" cy="533.3333333333334" r="2"></circle><circle class="port" cx="560" cy="506.6666666666667" r="2"></circle></g><g><rect class="background" x="560" y="560" width="80" height="80"></rect><circle class="port" cx="586.6666666666666" cy="560" r="2"></circle><circle class="port" cx="613.3333333333334" cy="560" r="2"></circle><circle class="port" cx="640" cy="586.6666666666666" r="2"></circle><circle class="port" cx="640" cy="613.3333333333334" r="2"></circle><circle class="port" cx="613.3333333333334" cy="640" r="2"></circle><circle class="port" cx="586.6666666666666" cy="640" r="2"></circle><circle class="port" cx="560" cy="613.3333333333334" r="2"></circle><circle class="port" cx="560" cy="586.6666666666666" r="2"></circle></g><g><rect class="background" x="560" y="640" width="80" height="80"></rect><circle class="port" cx="586.6666666666666" cy="640" r="2"></circle><circle class="port" cx="613.3333333333334" cy="640" r="2"></circle><circle class="port" cx="640" cy="666.6666666666666" r="2"></circle><circle class="port" cx="640" cy="693.3333333333334" r="2"></circle><circle class="port" cx="613.3333333333334" cy="720" r="2"></circle><circle class="port" cx="586.6666666666666" cy="720" r="2"></circle><circle class="port" cx="560" cy="693.3333333333334" r="2"></circle><circle class="port" cx="560" cy="666.6666666666666" r="2"></circle></g><g><rect class="background" x="560" y="720" width="80" height="80"></rect><circle class="port" cx="586.6666666666666" cy="720" r="2"></circle><circle class="port" cx="613.3333333333334" cy="720" r="2"></circle><circle class="port" cx="640" cy="746.6666666666666" r="2"></circle><circle class="port" cx="640" cy="773.3333333333334" r="2"></circle><circle class="port" cx="613.3333333333334" cy="800" r="2"></circle><circle class="port" cx="586.6666666666666" cy="800" r="2"></circle><circle class="port" cx="560" cy="773.3333333333334" r="2"></circle><circle class="port" cx="560" cy="746.6666666666666" r="2"></circle></g><g><rect class="background" x="640" y="0" width="80" height="80"></rect><path class="path" d="M666.6666666666666,0L666.6666666666666,4.444444444444444C666.6666666666666,8.888888888888888,666.6666666666666,17.777777777777775,675.5555555555555,22.222222222222218C684.4444444444443,26.666666666666668,702.2222222222222,26.666666666666668,711.111111111111,26.66666666666666C720,26.666666666666668,720,26.666666666666668,720,26.66666666666666L720,26.666666666666664"></path><path class="path" d="M693.3333333333334,0L693.3333333333334,8.888888888888888C693.3333333333334,17.777777777777775,693.3333333333334,35.55555555555555,684.4444444444445,44.444444444444436C675.5555555555555,53.333333333333336,657.7777777777778,53.333333333333336,648.8888888888889,53.33333333333332C640,53.333333333333336,640,53.333333333333336,640,53.33333333333332L640,53.33333333333333"></path><path class="path" d="M720,53.33333333333333L720,53.33333333333332C720,53.333333333333336,720,53.333333333333336,711.1111111111112,53.33333333333332C702.2222222222222,53.333333333333336,684.4444444444443,53.333333333333336,675.5555555555555,57.77777777777777C666.6666666666666,62.22222222222222,666.6666666666666,71.1111111111111,666.6666666666666,75.55555555555556L666.6666666666666,80"></path><path class="path" d="M693.3333333333334,80L693.3333333333334,71.11111111111111C693.3333333333334,62.22222222222222,693.3333333333334,44.444444444444436,684.4444444444445,35.55555555555555C675.5555555555555,26.666666666666668,657.7777777777778,26.666666666666668,648.8888888888889,26.66666666666666C640,26.666666666666668,640,26.666666666666668,640,26.66666666666666L640,26.666666666666664"></path><circle class="port" cx="666.6666666666666" cy="0" r="2"></circle><circle class="port" cx="693.3333333333334" cy="0" r="2"></circle><circle class="port" cx="720" cy="26.666666666666664" r="2"></circle><circle class="port" cx="720" cy="53.33333333333333" r="2"></circle><circle class="port" cx="693.3333333333334" cy="80" r="2"></circle><circle class="port" cx="666.6666666666666" cy="80" r="2"></circle><circle class="port" cx="640" cy="53.33333333333333" r="2"></circle><circle class="port" cx="640" cy="26.666666666666664" r="2"></circle></g><g><rect class="background" x="640" y="80" width="80" height="80"></rect><circle class="port" cx="666.6666666666666" cy="80" r="2"></circle><circle class="port" cx="693.3333333333334" cy="80" r="2"></circle><circle class="port" cx="720" cy="106.66666666666666" r="2"></circle><circle class="port" cx="720" cy="133.33333333333331" r="2"></circle><circle class="port" cx="693.3333333333334" cy="160" r="2"></circle><circle class="port" cx="666.6666666666666" cy="160" r="2"></circle><circle class="port" cx="640" cy="133.33333333333331" r="2"></circle><circle class="port" cx="640" cy="106.66666666666666" r="2"></circle></g><g><rect class="background" x="640" y="160" width="80" height="80"></rect><circle class="port" cx="666.6666666666666" cy="160" r="2"></circle><circle class="port" cx="693.3333333333334" cy="160" r="2"></circle><circle class="port" cx="720" cy="186.66666666666666" r="2"></circle><circle class="port" cx="720" cy="213.33333333333331" r="2"></circle><circle class="port" cx="693.3333333333334" cy="240" r="2"></circle><circle class="port" cx="666.6666666666666" cy="240" r="2"></circle><circle class="port" cx="640" cy="213.33333333333331" r="2"></circle><circle class="port" cx="640" cy="186.66666666666666" r="2"></circle></g><g><rect class="background" x="640" y="240" width="80" height="80"></rect><circle class="port" cx="666.6666666666666" cy="240" r="2"></circle><circle class="port" cx="693.3333333333334" cy="240" r="2"></circle><circle class="port" cx="720" cy="266.6666666666667" r="2"></circle><circle class="port" cx="720" cy="293.3333333333333" r="2"></circle><circle class="port" cx="693.3333333333334" cy="320" r="2"></circle><circle class="port" cx="666.6666666666666" cy="320" r="2"></circle><circle class="port" cx="640" cy="293.3333333333333" r="2"></circle><circle class="port" cx="640" cy="266.6666666666667" r="2"></circle></g><g><rect class="background" x="640" y="320" width="80" height="80"></rect><circle class="port" cx="666.6666666666666" cy="320" r="2"></circle><circle class="port" cx="693.3333333333334" cy="320" r="2"></circle><circle class="port" cx="720" cy="346.6666666666667" r="2"></circle><circle class="port" cx="720" cy="373.3333333333333" r="2"></circle><circle class="port" cx="693.3333333333334" cy="400" r="2"></circle><circle class="port" cx="666.6666666666666" cy="400" r="2"></circle><circle class="port" cx="640" cy="373.3333333333333" r="2"></circle><circle class="port" cx="640" cy="346.6666666666667" r="2"></circle></g><g><rect class="background" x="640" y="400" width="80" height="80"></rect><circle class="port" cx="666.6666666666666" cy="400" r="2"></circle><circle class="port" cx="693.3333333333334" cy="400" r="2"></circle><circle class="port" cx="720" cy="426.6666666666667" r="2"></circle><circle class="port" cx="720" cy="453.3333333333333" r="2"></circle><circle class="port" cx="693.3333333333334" cy="480" r="2"></circle><circle class="port" cx="666.6666666666666" cy="480" r="2"></circle><circle class="port" cx="640" cy="453.3333333333333" r="2"></circle><circle class="port" cx="640" cy="426.6666666666667" r="2"></circle></g><g><rect class="background" x="640" y="480" width="80" height="80"></rect><circle class="port" cx="666.6666666666666" cy="480" r="2"></circle><circle class="port" cx="693.3333333333334" cy="480" r="2"></circle><circle class="port" cx="720" cy="506.6666666666667" r="2"></circle><circle class="port" cx="720" cy="533.3333333333334" r="2"></circle><circle class="port" cx="693.3333333333334" cy="560" r="2"></circle><circle class="port" cx="666.6666666666666" cy="560" r="2"></circle><circle class="port" cx="640" cy="533.3333333333334" r="2"></circle><circle class="port" cx="640" cy="506.6666666666667" r="2"></circle></g><g><rect class="background" x="640" y="560" width="80" height="80"></rect><circle class="port" cx="666.6666666666666" cy="560" r="2"></circle><circle class="port" cx="693.3333333333334" cy="560" r="2"></circle><circle class="port" cx="720" cy="586.6666666666666" r="2"></circle><circle class="port" cx="720" cy="613.3333333333334" r="2"></circle><circle class="port" cx="693.3333333333334" cy="640" r="2"></circle><circle class="port" cx="666.6666666666666" cy="640" r="2"></circle><circle class="port" cx="640" cy="613.3333333333334" r="2"></circle><circle class="port" cx="640" cy="586.6666666666666" r="2"></circle></g><g><rect class="background" x="640" y="640" width="80" height="80"></rect><circle class="port" cx="666.6666666666666" cy="640" r="2"></circle><circle class="port" cx="693.3333333333334" cy="640" r="2"></circle><circle class="port" cx="720" cy="666.6666666666666" r="2"></circle><circle class="port" cx="720" cy="693.3333333333334" r="2"></circle><circle class="port" cx="693.3333333333334" cy="720" r="2"></circle><circle class="port" cx="666.6666666666666" cy="720" r="2"></circle><circle class="port" cx="640" cy="693.3333333333334" r="2"></circle><circle class="port" cx="640" cy="666.6666666666666" r="2"></circle></g><g><rect class="background" x="640" y="720" width="80" height="80"></rect><circle class="port" cx="666.6666666666666" cy="720" r="2"></circle><circle class="port" cx="693.3333333333334" cy="720" r="2"></circle><circle class="port" cx="720" cy="746.6666666666666" r="2"></circle><circle class="port" cx="720" cy="773.3333333333334" r="2"></circle><circle class="port" cx="693.3333333333334" cy="800" r="2"></circle><circle class="port" cx="666.6666666666666" cy="800" r="2"></circle><circle class="port" cx="640" cy="773.3333333333334" r="2"></circle><circle class="port" cx="640" cy="746.6666666666666" r="2"></circle></g><g><rect class="background" x="720" y="0" width="80" height="80"></rect><path class="path" d="M746.6666666666666,0L746.6666666666666,3.3333333333333335C746.6666666666666,6.666666666666667,746.6666666666666,13.333333333333334,751.111111111111,16.666666666666668C755.5555555555555,20,764.4444444444445,20,768.8888888888888,16.666666666666668C773.3333333333334,13.333333333333334,773.3333333333334,6.666666666666667,773.3333333333334,3.3333333333333335L773.3333333333334,0"></path><path class="path" d="M800,26.666666666666664L796.6666666666666,26.66666666666666C793.3333333333334,26.666666666666668,786.6666666666666,26.666666666666668,776.6666666666666,26.66666666666666C766.6666666666666,26.666666666666668,753.3333333333334,26.666666666666668,743.3333333333334,26.66666666666666C733.3333333333334,26.666666666666668,726.6666666666666,26.666666666666668,723.3333333333334,26.66666666666666L720,26.666666666666664"></path><path class="path" d="M800,53.33333333333333L800,53.33333333333332C800,53.333333333333336,800,53.333333333333336,791.1111111111112,53.33333333333332C782.2222222222222,53.333333333333336,764.4444444444443,53.333333333333336,755.5555555555555,57.77777777777777C746.6666666666666,62.22222222222222,746.6666666666666,71.1111111111111,746.6666666666666,75.55555555555556L746.6666666666666,80"></path><path class="path" d="M773.3333333333334,80L773.3333333333334,75.55555555555556C773.3333333333334,71.1111111111111,773.3333333333334,62.22222222222222,764.4444444444445,57.77777777777777C755.5555555555557,53.333333333333336,737.7777777777778,53.333333333333336,728.888888888889,53.33333333333332C720,53.333333333333336,720,53.333333333333336,720,53.33333333333332L720,53.33333333333333"></path><circle class="port" cx="746.6666666666666" cy="0" r="2"></circle><circle class="port" cx="773.3333333333334" cy="0" r="2"></circle><circle class="port" cx="800" cy="26.666666666666664" r="2"></circle><circle class="port" cx="800" cy="53.33333333333333" r="2"></circle><circle class="port" cx="773.3333333333334" cy="80" r="2"></circle><circle class="port" cx="746.6666666666666" cy="80" r="2"></circle><circle class="port" cx="720" cy="53.33333333333333" r="2"></circle><circle class="port" cx="720" cy="26.666666666666664" r="2"></circle></g><g><rect class="background" x="720" y="80" width="80" height="80"></rect><circle class="port" cx="746.6666666666666" cy="80" r="2"></circle><circle class="port" cx="773.3333333333334" cy="80" r="2"></circle><circle class="port" cx="800" cy="106.66666666666666" r="2"></circle><circle class="port" cx="800" cy="133.33333333333331" r="2"></circle><circle class="port" cx="773.3333333333334" cy="160" r="2"></circle><circle class="port" cx="746.6666666666666" cy="160" r="2"></circle><circle class="port" cx="720" cy="133.33333333333331" r="2"></circle><circle class="port" cx="720" cy="106.66666666666666" r="2"></circle></g><g><rect class="background" x="720" y="160" width="80" height="80"></rect><circle class="port" cx="746.6666666666666" cy="160" r="2"></circle><circle class="port" cx="773.3333333333334" cy="160" r="2"></circle><circle class="port" cx="800" cy="186.66666666666666" r="2"></circle><circle class="port" cx="800" cy="213.33333333333331" r="2"></circle><circle class="port" cx="773.3333333333334" cy="240" r="2"></circle><circle class="port" cx="746.6666666666666" cy="240" r="2"></circle><circle class="port" cx="720" cy="213.33333333333331" r="2"></circle><circle class="port" cx="720" cy="186.66666666666666" r="2"></circle></g><g><rect class="background" x="720" y="240" width="80" height="80"></rect><circle class="port" cx="746.6666666666666" cy="240" r="2"></circle><circle class="port" cx="773.3333333333334" cy="240" r="2"></circle><circle class="port" cx="800" cy="266.6666666666667" r="2"></circle><circle class="port" cx="800" cy="293.3333333333333" r="2"></circle><circle class="port" cx="773.3333333333334" cy="320" r="2"></circle><circle class="port" cx="746.6666666666666" cy="320" r="2"></circle><circle class="port" cx="720" cy="293.3333333333333" r="2"></circle><circle class="port" cx="720" cy="266.6666666666667" r="2"></circle></g><g><rect class="background" x="720" y="320" width="80" height="80"></rect><circle class="port" cx="746.6666666666666" cy="320" r="2"></circle><circle class="port" cx="773.3333333333334" cy="320" r="2"></circle><circle class="port" cx="800" cy="346.6666666666667" r="2"></circle><circle class="port" cx="800" cy="373.3333333333333" r="2"></circle><circle class="port" cx="773.3333333333334" cy="400" r="2"></circle><circle class="port" cx="746.6666666666666" cy="400" r="2"></circle><circle class="port" cx="720" cy="373.3333333333333" r="2"></circle><circle class="port" cx="720" cy="346.6666666666667" r="2"></circle></g><g><rect class="background" x="720" y="400" width="80" height="80"></rect><circle class="port" cx="746.6666666666666" cy="400" r="2"></circle><circle class="port" cx="773.3333333333334" cy="400" r="2"></circle><circle class="port" cx="800" cy="426.6666666666667" r="2"></circle><circle class="port" cx="800" cy="453.3333333333333" r="2"></circle><circle class="port" cx="773.3333333333334" cy="480" r="2"></circle><circle class="port" cx="746.6666666666666" cy="480" r="2"></circle><circle class="port" cx="720" cy="453.3333333333333" r="2"></circle><circle class="port" cx="720" cy="426.6666666666667" r="2"></circle></g><g><rect class="background" x="720" y="480" width="80" height="80"></rect><circle class="port" cx="746.6666666666666" cy="480" r="2"></circle><circle class="port" cx="773.3333333333334" cy="480" r="2"></circle><circle class="port" cx="800" cy="506.6666666666667" r="2"></circle><circle class="port" cx="800" cy="533.3333333333334" r="2"></circle><circle class="port" cx="773.3333333333334" cy="560" r="2"></circle><circle class="port" cx="746.6666666666666" cy="560" r="2"></circle><circle class="port" cx="720" cy="533.3333333333334" r="2"></circle><circle class="port" cx="720" cy="506.6666666666667" r="2"></circle></g><g><rect class="background" x="720" y="560" width="80" height="80"></rect><circle class="port" cx="746.6666666666666" cy="560" r="2"></circle><circle class="port" cx="773.3333333333334" cy="560" r="2"></circle><circle class="port" cx="800" cy="586.6666666666666" r="2"></circle><circle class="port" cx="800" cy="613.3333333333334" r="2"></circle><circle class="port" cx="773.3333333333334" cy="640" r="2"></circle><circle class="port" cx="746.6666666666666" cy="640" r="2"></circle><circle class="port" cx="720" cy="613.3333333333334" r="2"></circle><circle class="port" cx="720" cy="586.6666666666666" r="2"></circle></g><g><rect class="background" x="720" y="640" width="80" height="80"></rect><circle class="port" cx="746.6666666666666" cy="640" r="2"></circle><circle class="port" cx="773.3333333333334" cy="640" r="2"></circle><circle class="port" cx="800" cy="666.6666666666666" r="2"></circle><circle class="port" cx="800" cy="693.3333333333334" r="2"></circle><circle class="port" cx="773.3333333333334" cy="720" r="2"></circle><circle class="port" cx="746.6666666666666" cy="720" r="2"></circle><circle class="port" cx="720" cy="693.3333333333334" r="2"></circle><circle class="port" cx="720" cy="666.6666666666666" r="2"></circle></g><g><rect class="background" x="720" y="720" width="80" height="80"></rect><circle class="port" cx="746.6666666666666" cy="720" r="2"></circle><circle class="port" cx="773.3333333333334" cy="720" r="2"></circle><circle class="port" cx="800" cy="746.6666666666666" r="2"></circle><circle class="port" cx="800" cy="773.3333333333334" r="2"></circle><circle class="port" cx="773.3333333333334" cy="800" r="2"></circle><circle class="port" cx="746.6666666666666" cy="800" r="2"></circle><circle class="port" cx="720" cy="773.3333333333334" r="2"></circle><circle class="port" cx="720" cy="746.6666666666666" r="2"></circle></g></svg>